<svg width="421" height="20" viewBox="0 0 421 20" fill="none" xmlns="http://www.w3.org/2000/svg">
<path d="M3.42219 15.368C2.87819 15.368 2.38752 15.2827 1.95019 15.112C1.52352 14.9307 1.18219 14.6533 0.926188 14.28C0.670188 13.896 0.542188 13.4 0.542188 12.792C0.542188 11.9813 0.814188 11.3413 1.35819 10.872C1.90219 10.392 2.73419 10.152 3.85419 10.152H6.68619V9.48001C6.68619 8.98934 6.61152 8.60534 6.46219 8.32801C6.32352 8.04001 6.07819 7.83734 5.72619 7.72001C5.37419 7.59201 4.88352 7.52801 4.25419 7.52801C3.77419 7.52801 3.29952 7.56001 2.83019 7.62401C2.37152 7.68801 1.92352 7.79467 1.48619 7.94401V6.85601C1.89152 6.71734 2.35552 6.61067 2.87819 6.53601C3.41152 6.45067 3.95019 6.40801 4.49419 6.40801C4.77152 6.40801 5.03285 6.42401 5.27819 6.45601C5.52352 6.47734 5.75285 6.51467 5.96619 6.56801H8.71819L8.65419 7.64001H7.50219C7.68352 7.88534 7.81152 8.16801 7.88619 8.48801C7.96085 8.80801 7.99819 9.17067 7.99819 9.57601V15.208H6.68619V11.24H3.93419C3.20885 11.24 2.67552 11.3627 2.33419 11.608C1.99285 11.8427 1.82219 12.2373 1.82219 12.792C1.82219 13.336 1.97685 13.7147 2.28619 13.928C2.59552 14.1413 3.09152 14.248 3.77419 14.248C4.19019 14.248 4.55285 14.2053 4.86219 14.12V15.208C4.68085 15.2507 4.46752 15.288 4.22219 15.32C3.97685 15.352 3.71019 15.368 3.42219 15.368ZM13.4353 15.368C13.2326 15.368 12.9926 15.3573 12.7153 15.336C12.4486 15.3147 12.2193 15.2667 12.0273 15.192L9.59531 9.27201H10.8753L12.9233 14.248C13.9366 14.3227 14.6833 14.0613 15.1633 13.464C15.654 12.8667 15.8993 11.912 15.8993 10.6C15.8993 9.85334 15.83 9.26667 15.6913 8.84001C15.5526 8.40267 15.318 8.09334 14.9873 7.91201C14.6673 7.73067 14.214 7.64001 13.6273 7.64001H13.0673V6.56801H13.7713C14.998 6.56801 15.878 6.89867 16.4113 7.56001C16.9446 8.21067 17.2113 9.21867 17.2113 10.584C17.2113 11.7147 17.0406 12.632 16.6993 13.336C16.3686 14.04 15.9206 14.5573 15.3553 14.888C14.79 15.208 14.15 15.368 13.4353 15.368ZM21.2238 15.368C20.3065 15.368 19.5011 15.2187 18.8078 14.92V13.816C19.1171 13.944 19.4531 14.0507 19.8158 14.136C20.1891 14.2107 20.5571 14.248 20.9198 14.248C21.7091 14.248 22.3225 14.136 22.7598 13.912C23.1971 13.6773 23.5065 13.3147 23.6878 12.824C23.8691 12.3333 23.9598 11.688 23.9598 10.888C23.9598 9.69334 23.7251 8.83467 23.2558 8.31201C22.7865 7.78934 21.9918 7.52801 20.8718 7.52801C20.4985 7.52801 20.1411 7.56534 19.7998 7.64001C19.4585 7.71467 19.1278 7.82667 18.8078 7.97601V6.85601C19.1385 6.70667 19.4851 6.59467 19.8478 6.52001C20.2211 6.44534 20.6531 6.40801 21.1438 6.40801C22.5411 6.40801 23.5758 6.78667 24.2478 7.54401C24.9305 8.30134 25.2718 9.41601 25.2718 10.888C25.2718 12.3173 24.9625 13.4213 24.3438 14.2C23.7251 14.9787 22.6851 15.368 21.2238 15.368ZM30.0703 15.368C29.1423 15.368 28.4276 15.1013 27.9263 14.568C27.4356 14.0347 27.1903 13.2667 27.1903 12.264V6.56801H28.5023V12.248C28.5023 12.9627 28.6623 13.4747 28.9823 13.784C29.3023 14.0933 29.809 14.248 30.5023 14.248C31.0463 14.248 31.5476 14.136 32.0063 13.912C32.465 13.688 32.8596 13.4053 33.1903 13.064V6.56801H34.5023V15.208H33.3183L33.2383 14.168C32.8436 14.5307 32.3903 14.824 31.8783 15.048C31.3663 15.2613 30.7636 15.368 30.0703 15.368ZM39.2972 15.368C38.7532 15.368 38.2625 15.2827 37.8252 15.112C37.3985 14.9307 37.0572 14.6533 36.8012 14.28C36.5452 13.896 36.4172 13.4 36.4172 12.792C36.4172 11.9813 36.6892 11.3413 37.2332 10.872C37.7772 10.392 38.6092 10.152 39.7292 10.152H42.5612V9.48001C42.5612 8.98934 42.4865 8.60534 42.3372 8.32801C42.1985 8.04001 41.9532 7.83734 41.6012 7.72001C41.2492 7.59201 40.7585 7.52801 40.1292 7.52801C39.6492 7.52801 39.1745 7.56001 38.7052 7.62401C38.2465 7.68801 37.7985 7.79467 37.3612 7.94401V6.85601C37.7665 6.71734 38.2305 6.61067 38.7532 6.53601C39.2865 6.45067 39.8252 6.40801 40.3692 6.40801C41.5852 6.40801 42.4705 6.66401 43.0252 7.17601C43.5905 7.67734 43.8732 8.47734 43.8732 9.57601V15.208H42.5612V11.24H39.8092C39.0839 11.24 38.5505 11.3627 38.2092 11.608C37.8679 11.8427 37.6972 12.2373 37.6972 12.792C37.6972 13.336 37.8519 13.7147 38.1612 13.928C38.4705 14.1413 38.9665 14.248 39.6492 14.248C40.0652 14.248 40.4279 14.2053 40.7372 14.12V15.208C40.5559 15.2507 40.3425 15.288 40.0972 15.32C39.8519 15.352 39.5852 15.368 39.2972 15.368ZM37.5042 5.11201L37.5682 4.16801H43.8562V5.11201H37.5042ZM49.4722 15.368C48.3415 15.368 47.4722 15.1013 46.8642 14.568C46.2669 14.024 45.9682 13.2507 45.9682 12.248V11.08C45.9682 10.76 46.0429 10.456 46.1922 10.168C46.3415 9.88001 46.5175 9.60801 46.7202 9.35201C46.9229 9.09601 47.0989 8.85601 47.2482 8.63201C47.3975 8.40801 47.4722 8.20001 47.4722 8.00801C47.4722 7.82667 47.4295 7.71467 47.3442 7.67201C47.2695 7.61867 47.1362 7.59201 46.9442 7.59201H45.7922L45.9042 6.56801H47.6802C48.4162 6.56801 48.7842 6.93067 48.7842 7.65601C48.7842 8.01867 48.7095 8.34401 48.5602 8.63201C48.4109 8.92001 48.2349 9.19734 48.0322 9.46401C47.8295 9.73067 47.6535 9.99734 47.5042 10.264C47.3549 10.5307 47.2802 10.8187 47.2802 11.128V12.392C47.2802 13.0533 47.4775 13.528 47.8722 13.816C48.2669 14.104 48.8002 14.248 49.4722 14.248C50.1549 14.248 50.6935 14.104 51.0882 13.816C51.4935 13.528 51.6962 13.0427 51.6962 12.36V6.56801H53.0082V12.232C53.0082 13.2347 52.6935 14.008 52.0642 14.552C51.4455 15.096 50.5815 15.368 49.4722 15.368ZM57.8128 15.368C57.2688 15.368 56.7781 15.2827 56.3408 15.112C55.9141 14.9307 55.5728 14.6533 55.3168 14.28C55.0608 13.896 54.9328 13.4 54.9328 12.792C54.9328 11.9813 55.2048 11.3413 55.7488 10.872C56.2928 10.392 57.1248 10.152 58.2448 10.152H61.0768V9.48001C61.0768 8.98934 61.0021 8.60534 60.8528 8.32801C60.7141 8.04001 60.4688 7.83734 60.1168 7.72001C59.7648 7.59201 59.2741 7.52801 58.6448 7.52801C58.1648 7.52801 57.6901 7.56001 57.2208 7.62401C56.7621 7.68801 56.3141 7.79467 55.8768 7.94401V6.85601C56.2821 6.71734 56.7461 6.61067 57.2688 6.53601C57.8021 6.45067 58.3408 6.40801 58.8848 6.40801C59.1621 6.40801 59.4235 6.42401 59.6688 6.45601C59.9141 6.47734 60.1435 6.51467 60.3568 6.56801H63.1088L63.0448 7.64001H61.8928C62.0741 7.88534 62.2021 8.16801 62.2768 8.48801C62.3515 8.80801 62.3888 9.17067 62.3888 9.57601V15.208H61.0768V11.24H58.3248C57.5995 11.24 57.0661 11.3627 56.7248 11.608C56.3835 11.8427 56.2128 12.2373 56.2128 12.792C56.2128 13.336 56.3675 13.7147 56.6768 13.928C56.9861 14.1413 57.4821 14.248 58.1648 14.248C58.5808 14.248 58.9435 14.2053 59.2528 14.12V15.208C59.0715 15.2507 58.8581 15.288 58.6128 15.32C58.3675 15.352 58.1008 15.368 57.8128 15.368ZM56.0198 5.11201L56.0838 4.16801H62.3718V5.11201H56.0198ZM64.7059 15.208V6.56801H65.8899L65.9699 7.60801C66.3753 7.24534 66.8286 6.95734 67.3299 6.74401C67.8419 6.52001 68.4446 6.40801 69.1379 6.40801C70.0553 6.40801 70.7646 6.67467 71.2659 7.20801C71.7673 7.74134 72.0179 8.50401 72.0179 9.49601V15.208H70.7059V9.51201C70.7059 8.80801 70.5406 8.30134 70.2099 7.99201C69.8793 7.68267 69.3673 7.52801 68.6739 7.52801C68.1193 7.52801 67.6179 7.64534 67.1699 7.88001C66.7326 8.10401 66.3486 8.38667 66.0179 8.72801V15.208H64.7059ZM77.4368 15.368C76.7648 15.368 76.1355 15.3093 75.5488 15.192C74.9728 15.064 74.4875 14.92 74.0928 14.76V11.48H75.3088V13.912C75.9168 14.136 76.5941 14.248 77.3408 14.248C78.0448 14.248 78.5835 14.1413 78.9568 13.928C79.3301 13.7147 79.5168 13.3147 79.5168 12.728C79.5168 12.2587 79.4208 11.912 79.2288 11.688C79.0368 11.4533 78.7435 11.2773 78.3488 11.16C77.9541 11.032 77.4581 10.904 76.8608 10.776C76.3808 10.6693 75.9168 10.5467 75.4688 10.408C75.0208 10.2587 74.6528 10.0453 74.3648 9.76801C74.0768 9.48001 73.9328 9.07467 73.9328 8.55201C73.9328 7.79467 74.2475 7.25067 74.8768 6.92001C75.5061 6.57867 76.3808 6.40801 77.5008 6.40801C78.0341 6.40801 78.5728 6.45067 79.1168 6.53601C79.6608 6.61067 80.0875 6.70667 80.3968 6.82401V7.97601C80.0448 7.84801 79.6181 7.74134 79.1168 7.65601C78.6261 7.57067 78.1461 7.52801 77.6768 7.52801C77.2288 7.52801 76.8128 7.54934 76.4288 7.59201C76.0555 7.63467 75.7515 7.72534 75.5168 7.86401C75.2928 8.00267 75.1808 8.22134 75.1808 8.52001C75.1808 8.84001 75.2981 9.07467 75.5328 9.22401C75.7781 9.37334 76.1088 9.49601 76.5248 9.59201C76.9408 9.67734 77.4208 9.78934 77.9648 9.92801C78.5195 10.0667 79.0101 10.232 79.4368 10.424C79.8635 10.6053 80.1995 10.872 80.4448 11.224C80.7008 11.576 80.8288 12.0773 80.8288 12.728C80.8288 13.6347 80.5195 14.3013 79.9008 14.728C79.2821 15.1547 78.4608 15.368 77.4368 15.368ZM74.1448 5.11201L74.2088 4.16801H80.4968V5.11201H74.1448ZM77.6648 2.97601V0.992007H81.8408L81.7768 1.88801H78.6888V2.97601H77.6648ZM91.4323 15.368C90.6963 15.368 90.0083 15.2293 89.3683 14.952C88.7283 14.6747 88.163 14.296 87.6723 13.816C87.1923 13.3253 86.8136 12.76 86.5363 12.12C86.259 11.48 86.1203 10.792 86.1203 10.056C86.1203 9.32001 86.259 8.63201 86.5363 7.99201C86.8136 7.35201 87.1923 6.79201 87.6723 6.31201C88.163 5.82134 88.7283 5.43734 89.3683 5.16001C90.0083 4.88267 90.6963 4.74401 91.4323 4.74401C92.1683 4.74401 92.8563 4.88267 93.4963 5.16001C94.1363 5.43734 94.6963 5.82134 95.1763 6.31201C95.667 6.79201 96.051 7.35201 96.3283 7.99201C96.6056 8.63201 96.7443 9.32001 96.7443 10.056C96.7443 10.792 96.6056 11.48 96.3283 12.12C96.051 12.76 95.667 13.3253 95.1763 13.816C94.6963 14.296 94.1363 14.6747 93.4963 14.952C92.8563 15.2293 92.1683 15.368 91.4323 15.368ZM91.4323 14.408C92.2643 14.408 93.0056 14.2213 93.6563 13.848C94.307 13.4747 94.819 12.9627 95.1923 12.312C95.5656 11.6507 95.7523 10.8987 95.7523 10.056C95.7523 9.21334 95.5656 8.46667 95.1923 7.81601C94.819 7.16534 94.307 6.65334 93.6563 6.28001C93.0056 5.90667 92.2643 5.72001 91.4323 5.72001C90.611 5.72001 89.875 5.90667 89.2243 6.28001C88.5736 6.65334 88.0616 7.16534 87.6883 7.81601C87.315 8.46667 87.1283 9.21334 87.1283 10.056C87.1283 10.8987 87.315 11.6507 87.6883 12.312C88.0616 12.9627 88.5736 13.4747 89.2243 13.848C89.875 14.2213 90.611 14.408 91.4323 14.408ZM91.4163 13.752C90.2963 13.752 89.4163 13.4267 88.7763 12.776C88.147 12.1147 87.8323 11.2133 87.8323 10.072C87.8323 9.25067 87.9976 8.56801 88.3283 8.02401C88.6696 7.48001 89.1176 7.07467 89.6723 6.80801C90.2376 6.53067 90.8563 6.39201 91.5283 6.39201C91.987 6.39201 92.387 6.44001 92.7283 6.53601C93.0696 6.62134 93.3576 6.73867 93.5923 6.88801V7.75201C93.3043 7.60267 93.0056 7.49601 92.6963 7.43201C92.387 7.35734 92.067 7.32001 91.7363 7.32001C90.883 7.32001 90.195 7.52801 89.6723 7.94401C89.1496 8.36001 88.8883 9.06934 88.8883 10.072C88.8883 11.0747 89.1123 11.7893 89.5603 12.216C90.019 12.632 90.7176 12.84 91.6563 12.84C91.9763 12.84 92.3123 12.7973 92.6643 12.712C93.0163 12.6267 93.3256 12.5147 93.5923 12.376V13.272C93.0056 13.592 92.2803 13.752 91.4163 13.752ZM102.027 15.208V14.504C102.304 13.832 102.699 13.2187 103.211 12.664C103.723 12.1093 104.272 11.5867 104.859 11.096C105.445 10.6053 105.899 10.1947 106.219 9.86401C106.549 9.52267 106.779 9.19734 106.907 8.88801C107.035 8.56801 107.099 8.19467 107.099 7.76801C107.099 7.14934 106.939 6.68001 106.619 6.36001C106.299 6.02934 105.701 5.86401 104.827 5.86401C104.432 5.86401 104.027 5.90667 103.611 5.99201C103.195 6.06667 102.8 6.17867 102.427 6.32801V5.16001C102.768 5.04267 103.179 4.94667 103.659 4.87201C104.139 4.78667 104.597 4.74401 105.035 4.74401C106.144 4.74401 106.981 5.01601 107.547 5.56001C108.123 6.09334 108.411 6.82934 108.411 7.76801C108.411 8.28001 108.32 8.73334 108.139 9.12801C107.957 9.51201 107.707 9.88001 107.387 10.232C107.067 10.5733 106.693 10.936 106.267 11.32C105.744 11.7787 105.243 12.232 104.763 12.68C104.293 13.1173 103.92 13.6187 103.643 14.184H108.523V15.208H102.027ZM114.504 15.368C113.47 15.368 112.627 15.16 111.976 14.744C111.336 14.328 110.867 13.7307 110.568 12.952C110.27 12.1733 110.12 11.2507 110.12 10.184C110.12 9.03201 110.259 8.05067 110.536 7.24001C110.814 6.42934 111.272 5.81067 111.912 5.38401C112.552 4.95734 113.416 4.74401 114.504 4.74401C115.582 4.74401 116.44 4.95734 117.08 5.38401C117.72 5.81067 118.179 6.42934 118.456 7.24001C118.734 8.05067 118.872 9.03201 118.872 10.184C118.872 11.2507 118.723 12.1733 118.424 12.952C118.136 13.7307 117.672 14.328 117.032 14.744C116.392 15.16 115.55 15.368 114.504 15.368ZM114.504 14.248C115.262 14.248 115.859 14.0827 116.296 13.752C116.744 13.4107 117.064 12.936 117.256 12.328C117.459 11.7093 117.56 10.9947 117.56 10.184C117.56 8.78667 117.336 7.72001 116.888 6.98401C116.451 6.23734 115.656 5.86401 114.504 5.86401C113.736 5.86401 113.128 6.02934 112.68 6.36001C112.232 6.69067 111.912 7.18134 111.72 7.83201C111.528 8.47201 111.432 9.25601 111.432 10.184C111.432 10.9947 111.528 11.7093 111.72 12.328C111.923 12.936 112.248 13.4107 112.696 13.752C113.155 14.0827 113.758 14.248 114.504 14.248ZM120.48 15.208V14.504C120.757 13.832 121.152 13.2187 121.664 12.664C122.176 12.1093 122.725 11.5867 123.312 11.096C123.898 10.6053 124.352 10.1947 124.672 9.86401C125.002 9.52267 125.232 9.19734 125.36 8.88801C125.488 8.56801 125.552 8.19467 125.552 7.76801C125.552 7.14934 125.392 6.68001 125.072 6.36001C124.752 6.02934 124.154 5.86401 123.28 5.86401C122.885 5.86401 122.48 5.90667 122.064 5.99201C121.648 6.06667 121.253 6.17867 120.88 6.32801V5.16001C121.221 5.04267 121.632 4.94667 122.112 4.87201C122.592 4.78667 123.05 4.74401 123.488 4.74401C124.597 4.74401 125.434 5.01601 126 5.56001C126.576 6.09334 126.864 6.82934 126.864 7.76801C126.864 8.28001 126.773 8.73334 126.592 9.12801C126.41 9.51201 126.16 9.88001 125.84 10.232C125.52 10.5733 125.146 10.936 124.72 11.32C124.197 11.7787 123.696 12.232 123.216 12.68C122.746 13.1173 122.373 13.6187 122.096 14.184H126.976V15.208H120.48ZM128.573 15.208V14.504C128.851 13.832 129.245 13.2187 129.757 12.664C130.269 12.1093 130.819 11.5867 131.405 11.096C131.992 10.6053 132.445 10.1947 132.765 9.86401C133.096 9.52267 133.325 9.19734 133.453 8.88801C133.581 8.56801 133.645 8.19467 133.645 7.76801C133.645 7.14934 133.485 6.68001 133.165 6.36001C132.845 6.02934 132.248 5.86401 131.373 5.86401C130.979 5.86401 130.573 5.90667 130.157 5.99201C129.741 6.06667 129.347 6.17867 128.973 6.32801V5.16001C129.315 5.04267 129.725 4.94667 130.205 4.87201C130.685 4.78667 131.144 4.74401 131.581 4.74401C132.691 4.74401 133.528 5.01601 134.093 5.56001C134.669 6.09334 134.957 6.82934 134.957 7.76801C134.957 8.28001 134.867 8.73334 134.685 9.12801C134.504 9.51201 134.253 9.88001 133.933 10.232C133.613 10.5733 133.24 10.936 132.813 11.32C132.291 11.7787 131.789 12.232 131.309 12.68C130.84 13.1173 130.467 13.6187 130.189 14.184H135.069V15.208H128.573ZM140.675 15.208V9.60801C140.675 8.58401 140.973 7.79467 141.571 7.24001C142.179 6.68534 143.128 6.40801 144.419 6.40801C144.696 6.40801 144.957 6.42401 145.203 6.45601C145.448 6.47734 145.677 6.51467 145.891 6.56801H148.931L148.867 7.64001H147.539C147.752 7.89601 147.901 8.18934 147.987 8.52001C148.083 8.84001 148.131 9.20267 148.131 9.60801V15.208H146.819V9.46401C146.819 8.77067 146.611 8.27467 146.195 7.97601C145.789 7.67734 145.197 7.52801 144.419 7.52801C143.619 7.52801 143.011 7.67734 142.595 7.97601C142.189 8.27467 141.987 8.77067 141.987 9.46401V11.464C142.488 11.0267 143.107 10.808 143.843 10.808H144.899L144.963 11.88H143.811C143.085 11.88 142.477 12.088 141.987 12.504V15.208H140.675ZM146.426 19.336C145.914 19.336 145.508 19.2027 145.21 18.936C144.911 18.6693 144.762 18.3493 144.762 17.976V17.08H143.914L143.962 16.216H145.738V17.896C145.738 18.2693 145.967 18.456 146.426 18.456C146.906 18.456 147.146 18.2693 147.146 17.896V16.216H148.138V17.976C148.138 18.3493 147.988 18.6693 147.69 18.936C147.391 19.2027 146.97 19.336 146.426 19.336ZM153.57 15.368C152.642 15.368 151.928 15.1013 151.426 14.568C150.936 14.0347 150.69 13.2667 150.69 12.264V6.56801H152.002V12.248C152.002 12.9627 152.162 13.4747 152.482 13.784C152.802 14.0933 153.309 14.248 154.002 14.248C154.546 14.248 155.048 14.136 155.506 13.912C155.965 13.688 156.36 13.4053 156.69 13.064V6.56801H158.002V15.208H156.818L156.738 14.168C156.344 14.5307 155.89 14.824 155.378 15.048C154.866 15.2613 154.264 15.368 153.57 15.368ZM163.725 15.368C162.563 15.368 161.635 15.16 160.941 14.744C160.259 14.3173 159.917 13.6507 159.917 12.744C159.917 12.2427 160.029 11.8213 160.253 11.48C160.488 11.128 160.813 10.8667 161.229 10.696C160.867 10.5787 160.563 10.3653 160.317 10.056C160.083 9.74667 159.965 9.33601 159.965 8.82401C159.965 8.01334 160.205 7.41067 160.685 7.01601C161.165 6.61067 161.779 6.40801 162.525 6.40801C162.813 6.40801 163.064 6.42401 163.277 6.45601C163.491 6.48801 163.683 6.53067 163.853 6.58401V7.67201C163.715 7.61867 163.549 7.58134 163.357 7.56001C163.165 7.53867 162.968 7.52801 162.765 7.52801C162.296 7.52801 161.928 7.63467 161.661 7.84801C161.405 8.05067 161.277 8.37601 161.277 8.82401C161.277 9.29334 161.432 9.64001 161.741 9.86401C162.051 10.0773 162.456 10.184 162.957 10.184H163.869L163.949 11.176H162.909C162.344 11.176 161.923 11.3147 161.645 11.592C161.368 11.8587 161.229 12.2427 161.229 12.744C161.229 13.7467 162.045 14.248 163.677 14.248C164.499 14.248 165.112 14.0933 165.517 13.784C165.933 13.464 166.141 12.9573 166.141 12.264V6.56801H167.453V12.04C167.453 13.1173 167.155 13.944 166.557 14.52C165.96 15.0853 165.016 15.368 163.725 15.368ZM163.978 5.11201V2.96801H168.474L168.426 3.91201H165.082V5.11201H163.978ZM172.682 15.368C172.021 15.368 171.402 15.3093 170.826 15.192C170.25 15.064 169.765 14.92 169.37 14.76V10.408H172.538L172.602 11.48H170.682V13.928C170.96 14.024 171.269 14.104 171.61 14.168C171.962 14.2213 172.309 14.248 172.65 14.248C173.344 14.248 173.893 14.1413 174.298 13.928C174.714 13.7147 175.013 13.3627 175.194 12.872C175.386 12.3813 175.482 11.7253 175.482 10.904C175.482 10.0507 175.381 9.37867 175.178 8.88801C174.986 8.39734 174.656 8.05067 174.186 7.84801C173.728 7.63467 173.098 7.52801 172.298 7.52801C171.84 7.52801 171.365 7.56001 170.874 7.62401C170.394 7.68801 169.936 7.79467 169.498 7.94401V6.85601C169.925 6.70667 170.41 6.59467 170.954 6.52001C171.509 6.44534 172.069 6.40801 172.634 6.40801C174.106 6.40801 175.168 6.78667 175.818 7.54401C176.469 8.29067 176.794 9.41067 176.794 10.904C176.794 12.3653 176.469 13.4747 175.818 14.232C175.168 14.9893 174.122 15.368 172.682 15.368ZM175.81 5.44801C175.351 5.44801 174.956 5.29334 174.626 4.98401C174.295 4.67467 174.13 4.29067 174.13 3.83201C174.13 3.36267 174.295 2.97334 174.626 2.66401C174.956 2.35467 175.351 2.20001 175.81 2.20001C176.279 2.20001 176.674 2.35467 176.994 2.66401C177.314 2.97334 177.474 3.36267 177.474 3.83201C177.474 4.29067 177.314 4.67467 176.994 4.98401C176.674 5.29334 176.279 5.44801 175.81 5.44801ZM175.81 4.61601C176.023 4.61601 176.21 4.53601 176.37 4.37601C176.519 4.21601 176.594 4.03467 176.594 3.83201C176.594 3.61867 176.519 3.43201 176.37 3.27201C176.21 3.11201 176.023 3.03201 175.81 3.03201C175.586 3.03201 175.399 3.11201 175.25 3.27201C175.09 3.43201 175.01 3.61867 175.01 3.83201C175.01 4.03467 175.09 4.21601 175.25 4.37601C175.399 4.53601 175.586 4.61601 175.81 4.61601ZM182.194 15.208V9.62401C182.194 9.14401 182.146 8.74934 182.05 8.44001C181.954 8.13067 181.756 7.90134 181.458 7.75201C181.17 7.60267 180.727 7.52801 180.13 7.52801C179.788 7.52801 179.415 7.56534 179.01 7.64001C178.615 7.71467 178.252 7.81601 177.922 7.94401V6.85601C178.242 6.72801 178.62 6.62134 179.058 6.53601C179.495 6.45067 179.932 6.40801 180.37 6.40801C181.468 6.40801 182.263 6.65334 182.754 7.14401C183.255 7.62401 183.506 8.40267 183.506 9.48001V15.208H182.194ZM188.633 15.368C187.705 15.368 186.99 15.1013 186.489 14.568C185.998 14.0347 185.753 13.2667 185.753 12.264V6.56801H187.065V12.248C187.065 12.9627 187.225 13.4747 187.545 13.784C187.865 14.0933 188.371 14.248 189.065 14.248C189.609 14.248 190.11 14.136 190.569 13.912C191.027 13.688 191.422 13.4053 191.753 13.064V6.56801H193.065V15.208H191.881L191.801 14.168C191.406 14.5307 190.953 14.824 190.441 15.048C189.929 15.2613 189.326 15.368 188.633 15.368ZM197.396 15.368C196.478 15.368 195.673 15.2187 194.98 14.92V13.816C195.289 13.944 195.625 14.0507 195.988 14.136C196.361 14.2107 196.729 14.248 197.092 14.248C197.881 14.248 198.494 14.136 198.932 13.912C199.369 13.6773 199.678 13.3147 199.86 12.824C200.041 12.3333 200.132 11.688 200.132 10.888C200.132 9.69334 199.897 8.83467 199.428 8.31201C198.958 7.78934 198.164 7.52801 197.044 7.52801C196.67 7.52801 196.313 7.56534 195.972 7.64001C195.63 7.71467 195.3 7.82667 194.98 7.97601V6.85601C195.31 6.70667 195.657 6.59467 196.02 6.52001C196.393 6.44534 196.825 6.40801 197.316 6.40801C198.713 6.40801 199.748 6.78667 200.42 7.54401C201.102 8.30134 201.444 9.41601 201.444 10.888C201.444 12.3173 201.134 13.4213 200.516 14.2C199.897 14.9787 198.857 15.368 197.396 15.368ZM206.85 15.368C205.688 15.368 204.76 15.16 204.066 14.744C203.384 14.3173 203.042 13.6507 203.042 12.744C203.042 12.2427 203.154 11.8213 203.378 11.48C203.613 11.128 203.938 10.8667 204.354 10.696C203.992 10.5787 203.688 10.3653 203.442 10.056C203.208 9.74667 203.09 9.33601 203.09 8.82401C203.09 8.01334 203.33 7.41067 203.81 7.01601C204.29 6.61067 204.904 6.40801 205.65 6.40801C205.938 6.40801 206.189 6.42401 206.402 6.45601C206.616 6.48801 206.808 6.53067 206.978 6.58401V7.67201C206.84 7.61867 206.674 7.58134 206.482 7.56001C206.29 7.53867 206.093 7.52801 205.89 7.52801C205.421 7.52801 205.053 7.63467 204.786 7.84801C204.53 8.05067 204.402 8.37601 204.402 8.82401C204.402 9.29334 204.557 9.64001 204.866 9.86401C205.176 10.0773 205.581 10.184 206.082 10.184H206.994L207.074 11.176H206.034C205.469 11.176 205.048 11.3147 204.77 11.592C204.493 11.8587 204.354 12.2427 204.354 12.744C204.354 13.7467 205.17 14.248 206.802 14.248C207.624 14.248 208.237 14.0933 208.642 13.784C209.058 13.464 209.266 12.9573 209.266 12.264V6.56801H210.578V12.04C210.578 13.1173 210.28 13.944 209.682 14.52C209.085 15.0853 208.141 15.368 206.85 15.368ZM213.007 15.208V11.704C213.007 11.2667 213.109 10.8827 213.311 10.552C213.514 10.2107 213.845 9.97067 214.303 9.83201L212.495 9.41601V7.88001C212.901 7.50667 213.439 7.17067 214.111 6.87201C214.794 6.56267 215.594 6.40801 216.511 6.40801C217.77 6.40801 218.714 6.67467 219.343 7.20801C219.983 7.73067 220.303 8.56267 220.303 9.70401V15.208H218.991V9.65601C218.991 8.85601 218.805 8.30134 218.431 7.99201C218.058 7.68267 217.418 7.52801 216.511 7.52801C215.914 7.52801 215.354 7.61334 214.831 7.78401C214.319 7.94401 213.925 8.16267 213.647 8.44001V8.77601L215.519 9.22401V10.216C215.114 10.3227 214.81 10.4933 214.607 10.728C214.415 10.952 214.319 11.288 214.319 11.736V15.208H213.007ZM226.022 15.208V9.62401C226.022 9.14401 225.974 8.74934 225.878 8.44001C225.782 8.13067 225.584 7.90134 225.286 7.75201C224.998 7.60267 224.555 7.52801 223.958 7.52801C223.616 7.52801 223.243 7.56534 222.838 7.64001C222.443 7.71467 222.08 7.81601 221.75 7.94401V6.85601C222.07 6.72801 222.448 6.62134 222.886 6.53601C223.323 6.45067 223.76 6.40801 224.198 6.40801C225.296 6.40801 226.091 6.65334 226.582 7.14401C227.083 7.62401 227.334 8.40267 227.334 9.48001V15.208H226.022ZM232.317 15.368C231.784 15.368 231.261 15.3307 230.749 15.256C230.248 15.192 229.826 15.0907 229.485 14.952V13.784C229.89 13.944 230.322 14.0613 230.781 14.136C231.24 14.2107 231.677 14.248 232.093 14.248C232.872 14.248 233.453 14.1733 233.837 14.024C234.232 13.864 234.429 13.5227 234.429 13C234.429 12.6267 234.328 12.3493 234.125 12.168C233.933 11.976 233.656 11.8213 233.293 11.704C232.93 11.576 232.493 11.4267 231.981 11.256C231.512 11.096 231.069 10.92 230.653 10.728C230.237 10.5253 229.901 10.2693 229.645 9.96001C229.389 9.65067 229.261 9.24534 229.261 8.74401C229.261 7.98667 229.538 7.41067 230.093 7.01601C230.658 6.61067 231.496 6.40801 232.605 6.40801C233.074 6.40801 233.538 6.44534 233.997 6.52001C234.456 6.59467 234.84 6.68534 235.149 6.79201V7.94401C234.797 7.80534 234.413 7.70401 233.997 7.64001C233.592 7.56534 233.192 7.52801 232.797 7.52801C232.072 7.52801 231.517 7.60801 231.133 7.76801C230.76 7.91734 230.573 8.23201 230.573 8.71201C230.573 9.02134 230.669 9.27201 230.861 9.46401C231.064 9.64534 231.346 9.80534 231.709 9.94401C232.082 10.072 232.53 10.2213 233.053 10.392C233.576 10.5627 234.04 10.7547 234.445 10.968C234.85 11.1707 235.165 11.432 235.389 11.752C235.624 12.0613 235.741 12.472 235.741 12.984C235.741 13.848 235.426 14.4613 234.797 14.824C234.168 15.1867 233.341 15.368 232.317 15.368ZM241.451 15.368C240.235 15.368 239.296 15.08 238.635 14.504C237.984 13.928 237.659 13.0747 237.659 11.944V6.56801H238.971V12.04C238.971 12.8187 239.184 13.384 239.611 13.736C240.038 14.0773 240.651 14.248 241.451 14.248C242.251 14.248 242.864 14.0773 243.291 13.736C243.718 13.384 243.931 12.8187 243.931 12.04V6.56801H245.243V11.944C245.243 13.0747 244.912 13.928 244.251 14.504C243.6 15.08 242.667 15.368 241.451 15.368ZM250.223 15.368C249.69 15.368 249.167 15.3307 248.655 15.256C248.154 15.192 247.733 15.0907 247.391 14.952V13.784C247.797 13.944 248.229 14.0613 248.687 14.136C249.146 14.2107 249.583 14.248 249.999 14.248C250.778 14.248 251.359 14.1733 251.743 14.024C252.138 13.864 252.335 13.5227 252.335 13C252.335 12.6267 252.234 12.3493 252.031 12.168C251.839 11.976 251.562 11.8213 251.199 11.704C250.837 11.576 250.399 11.4267 249.887 11.256C249.418 11.096 248.975 10.92 248.559 10.728C248.143 10.5253 247.807 10.2693 247.551 9.96001C247.295 9.65067 247.167 9.24534 247.167 8.74401C247.167 7.98667 247.445 7.41067 247.999 7.01601C248.565 6.61067 249.402 6.40801 250.511 6.40801C250.981 6.40801 251.445 6.44534 251.903 6.52001C252.362 6.59467 252.746 6.68534 253.055 6.79201V7.94401C252.703 7.80534 252.319 7.70401 251.903 7.64001C251.498 7.56534 251.098 7.52801 250.703 7.52801C249.978 7.52801 249.423 7.60801 249.039 7.76801C248.666 7.91734 248.479 8.23201 248.479 8.71201C248.479 9.02134 248.575 9.27201 248.767 9.46401C248.97 9.64534 249.253 9.80534 249.615 9.94401C249.989 10.072 250.437 10.2213 250.959 10.392C251.482 10.5627 251.946 10.7547 252.351 10.968C252.757 11.1707 253.071 11.432 253.295 11.752C253.53 12.0613 253.647 12.472 253.647 12.984C253.647 13.848 253.333 14.4613 252.703 14.824C252.074 15.1867 251.247 15.368 250.223 15.368ZM246.957 5.11201L247.021 4.16801H253.309V5.11201H246.957ZM255.565 15.208V6.56801H256.877V9.36801H259.741C260.445 9.36801 260.931 9.21867 261.197 8.92001C261.464 8.62134 261.597 8.18934 261.597 7.62401V6.56801H262.909V7.60801C262.909 8.15201 262.808 8.62667 262.605 9.03201C262.403 9.43734 262.045 9.72001 261.533 9.88001C262.067 10.0507 262.413 10.328 262.573 10.712C262.733 11.096 262.813 11.544 262.813 12.056V15.208H261.501V12.216C261.501 11.5333 261.368 11.0693 261.101 10.824C260.845 10.568 260.365 10.44 259.661 10.44H256.877V15.208H255.565ZM268.522 15.208V9.62401C268.522 9.14401 268.474 8.74934 268.378 8.44001C268.282 8.13067 268.084 7.90134 267.786 7.75201C267.498 7.60267 267.055 7.52801 266.458 7.52801C266.116 7.52801 265.743 7.56534 265.338 7.64001C264.943 7.71467 264.58 7.81601 264.25 7.94401V6.85601C264.57 6.72801 264.948 6.62134 265.386 6.53601C265.823 6.45067 266.26 6.40801 266.698 6.40801C267.796 6.40801 268.591 6.65334 269.082 7.14401C269.583 7.62401 269.834 8.40267 269.834 9.48001V15.208H268.522ZM274.817 15.368C274.284 15.368 273.761 15.3307 273.249 15.256C272.748 15.192 272.326 15.0907 271.985 14.952V13.784C272.39 13.944 272.822 14.0613 273.281 14.136C273.74 14.2107 274.177 14.248 274.593 14.248C275.372 14.248 275.953 14.1733 276.337 14.024C276.732 13.864 276.929 13.5227 276.929 13C276.929 12.6267 276.828 12.3493 276.625 12.168C276.433 11.976 276.156 11.8213 275.793 11.704C275.43 11.576 274.993 11.4267 274.481 11.256C274.012 11.096 273.569 10.92 273.153 10.728C272.737 10.5253 272.401 10.2693 272.145 9.96001C271.889 9.65067 271.761 9.24534 271.761 8.74401C271.761 7.98667 272.038 7.41067 272.593 7.01601C273.158 6.61067 273.996 6.40801 275.105 6.40801C275.574 6.40801 276.038 6.44534 276.497 6.52001C276.956 6.59467 277.34 6.68534 277.649 6.79201V7.94401C277.297 7.80534 276.913 7.70401 276.497 7.64001C276.092 7.56534 275.692 7.52801 275.297 7.52801C274.572 7.52801 274.017 7.60801 273.633 7.76801C273.26 7.91734 273.073 8.23201 273.073 8.71201C273.073 9.02134 273.169 9.27201 273.361 9.46401C273.564 9.64534 273.846 9.80534 274.209 9.94401C274.582 10.072 275.03 10.2213 275.553 10.392C276.076 10.5627 276.54 10.7547 276.945 10.968C277.35 11.1707 277.665 11.432 277.889 11.752C278.124 12.0613 278.241 12.472 278.241 12.984C278.241 13.848 277.926 14.4613 277.297 14.824C276.668 15.1867 275.841 15.368 274.817 15.368ZM283.423 15.368C283.242 15.368 283.028 15.352 282.783 15.32C282.548 15.288 282.356 15.2453 282.207 15.192L280.863 11.608H279.839L279.903 10.536H281.711L283.103 14.248C283.604 14.2907 284.079 14.2107 284.527 14.008C284.975 13.7947 285.338 13.4267 285.615 12.904C285.892 12.3813 286.031 11.6773 286.031 10.792C286.031 9.99201 285.924 9.35201 285.711 8.87201C285.498 8.39201 285.151 8.05067 284.671 7.84801C284.191 7.63467 283.54 7.52801 282.719 7.52801C282.292 7.52801 281.839 7.56001 281.359 7.62401C280.89 7.68801 280.436 7.79467 279.999 7.94401V6.85601C280.404 6.71734 280.868 6.61067 281.391 6.53601C281.924 6.45067 282.484 6.40801 283.071 6.40801C284.554 6.40801 285.636 6.78667 286.319 7.54401C287.002 8.30134 287.343 9.38401 287.343 10.792C287.343 11.7947 287.162 12.6373 286.799 13.32C286.436 13.992 285.956 14.504 285.359 14.856C284.772 15.1973 284.127 15.368 283.423 15.368ZM283.556 5.11201V3.00001H284.66V4.16801H288.964L288.9 5.11201H283.556ZM292.388 15.368C292.186 15.368 291.946 15.3573 291.668 15.336C291.402 15.3147 291.172 15.2667 290.98 15.192L288.548 9.27201H289.828L291.876 14.248C292.89 14.3227 293.636 14.0613 294.116 13.464C294.607 12.8667 294.852 11.912 294.852 10.6C294.852 9.85334 294.783 9.26667 294.644 8.84001C294.506 8.40267 294.271 8.09334 293.94 7.91201C293.62 7.73067 293.167 7.64001 292.58 7.64001H292.02V6.56801H292.724C293.951 6.56801 294.831 6.89867 295.364 7.56001C295.898 8.21067 296.164 9.21867 296.164 10.584C296.164 11.7147 295.994 12.632 295.652 13.336C295.322 14.04 294.874 14.5573 294.308 14.888C293.743 15.208 293.103 15.368 292.388 15.368ZM298.081 15.208V6.56801H299.393V9.36801H302.257C302.961 9.36801 303.446 9.21867 303.713 8.92001C303.98 8.62134 304.113 8.18934 304.113 7.62401V6.56801H305.425V7.60801C305.425 8.15201 305.324 8.62667 305.121 9.03201C304.918 9.43734 304.561 9.72001 304.049 9.88001C304.582 10.0507 304.929 10.328 305.089 10.712C305.249 11.096 305.329 11.544 305.329 12.056V15.208H304.017V12.216C304.017 11.5333 303.884 11.0693 303.617 10.824C303.361 10.568 302.881 10.44 302.177 10.44H299.393V15.208H298.081ZM309.661 15.368C308.744 15.368 307.939 15.2187 307.245 14.92V13.816C307.555 13.944 307.891 14.0507 308.253 14.136C308.627 14.2107 308.995 14.248 309.357 14.248C310.147 14.248 310.76 14.136 311.197 13.912C311.635 13.6773 311.944 13.3147 312.125 12.824C312.307 12.3333 312.397 11.688 312.397 10.888C312.397 9.69334 312.163 8.83467 311.693 8.31201C311.224 7.78934 310.429 7.52801 309.309 7.52801C308.936 7.52801 308.579 7.56534 308.237 7.64001C307.896 7.71467 307.565 7.82667 307.245 7.97601V6.85601C307.576 6.70667 307.923 6.59467 308.285 6.52001C308.659 6.44534 309.091 6.40801 309.581 6.40801C310.979 6.40801 312.013 6.78667 312.685 7.54401C313.368 8.30134 313.709 9.41601 313.709 10.888C313.709 12.3173 313.4 13.4213 312.781 14.2C312.163 14.9787 311.123 15.368 309.661 15.368ZM309.916 5.11201V3.00001H311.02V4.16801H315.324L315.26 5.11201H309.916ZM318.764 15.368C318.102 15.368 317.51 15.2133 316.988 14.904C316.465 14.5947 316.054 14.12 315.756 13.48C315.457 12.8293 315.308 11.992 315.308 10.968C315.308 9.56001 315.66 8.45067 316.364 7.64001C317.068 6.81867 318.156 6.40801 319.628 6.40801C320.566 6.40801 321.324 6.57334 321.9 6.90401C322.486 7.22401 322.913 7.64534 323.18 8.16801C323.446 8.69067 323.58 9.25067 323.58 9.84801V15.208H322.268V9.86401C322.268 9.41601 322.182 9.01601 322.012 8.66401C321.841 8.31201 321.558 8.03467 321.164 7.83201C320.78 7.62934 320.257 7.52801 319.596 7.52801C318.529 7.52801 317.766 7.82667 317.308 8.42401C316.849 9.02134 316.62 9.86934 316.62 10.968C316.62 12.184 316.817 13.0373 317.212 13.528C317.617 14.008 318.209 14.248 318.988 14.248C319.19 14.248 319.388 14.2373 319.58 14.216C319.782 14.1947 319.953 14.1627 320.092 14.12V15.208C319.74 15.3147 319.297 15.368 318.764 15.368ZM329.175 15.368C328.045 15.368 327.175 15.1013 326.567 14.568C325.97 14.024 325.671 13.2507 325.671 12.248V11.08C325.671 10.76 325.746 10.456 325.895 10.168C326.045 9.88001 326.221 9.60801 326.423 9.35201C326.626 9.09601 326.802 8.85601 326.951 8.63201C327.101 8.40801 327.175 8.20001 327.175 8.00801C327.175 7.82667 327.133 7.71467 327.047 7.67201C326.973 7.61867 326.839 7.59201 326.647 7.59201H325.495L325.607 6.56801H327.383C328.119 6.56801 328.487 6.93067 328.487 7.65601C328.487 8.01867 328.413 8.34401 328.263 8.63201C328.114 8.92001 327.938 9.19734 327.735 9.46401C327.533 9.73067 327.357 9.99734 327.207 10.264C327.058 10.5307 326.983 10.8187 326.983 11.128V12.392C326.983 13.0533 327.181 13.528 327.575 13.816C327.97 14.104 328.503 14.248 329.175 14.248C329.858 14.248 330.397 14.104 330.791 13.816C331.197 13.528 331.399 13.0427 331.399 12.36V11.256C331.399 10.6587 331.303 10.2533 331.111 10.04C330.919 9.81601 330.567 9.70401 330.055 9.70401H329.607L329.671 8.66401H330.023C330.567 8.66401 330.93 8.53601 331.111 8.28001C331.303 8.02401 331.399 7.63467 331.399 7.11201V6.40801H332.711V7.09601C332.711 7.61867 332.637 8.05601 332.487 8.40801C332.338 8.74934 332.018 9.00534 331.527 9.17601C332.05 9.36801 332.375 9.64001 332.503 9.99201C332.642 10.344 332.711 10.776 332.711 11.288V12.232C332.711 13.2347 332.397 14.008 331.767 14.552C331.149 15.096 330.285 15.368 329.175 15.368ZM338.428 15.208V9.62401C338.428 9.14401 338.38 8.74934 338.284 8.44001C338.188 8.13067 337.991 7.90134 337.692 7.75201C337.404 7.60267 336.961 7.52801 336.364 7.52801C336.023 7.52801 335.649 7.56534 335.244 7.64001C334.849 7.71467 334.487 7.81601 334.156 7.94401V6.85601C334.476 6.72801 334.855 6.62134 335.292 6.53601C335.729 6.45067 336.167 6.40801 336.604 6.40801C337.703 6.40801 338.497 6.65334 338.988 7.14401C339.489 7.62401 339.74 8.40267 339.74 9.48001V15.208H338.428ZM345.475 15.368C344.313 15.368 343.385 15.16 342.691 14.744C342.009 14.3173 341.667 13.6507 341.667 12.744C341.667 12.2427 341.779 11.8213 342.003 11.48C342.238 11.128 342.563 10.8667 342.979 10.696C342.617 10.5787 342.313 10.3653 342.067 10.056C341.833 9.74667 341.715 9.33601 341.715 8.82401C341.715 8.01334 341.955 7.41067 342.435 7.01601C342.915 6.61067 343.529 6.40801 344.275 6.40801C344.563 6.40801 344.814 6.42401 345.027 6.45601C345.241 6.48801 345.433 6.53067 345.603 6.58401V7.67201C345.465 7.61867 345.299 7.58134 345.107 7.56001C344.915 7.53867 344.718 7.52801 344.515 7.52801C344.046 7.52801 343.678 7.63467 343.411 7.84801C343.155 8.05067 343.027 8.37601 343.027 8.82401C343.027 9.29334 343.182 9.64001 343.491 9.86401C343.801 10.0773 344.206 10.184 344.707 10.184H345.619L345.699 11.176H344.659C344.094 11.176 343.673 11.3147 343.395 11.592C343.118 11.8587 342.979 12.2427 342.979 12.744C342.979 13.7467 343.795 14.248 345.427 14.248C346.249 14.248 346.862 14.0933 347.267 13.784C347.683 13.464 347.891 12.9573 347.891 12.264V6.56801H349.203V12.04C349.203 13.1173 348.905 13.944 348.307 14.52C347.71 15.0853 346.766 15.368 345.475 15.368ZM356.576 15.208C356.118 15.208 355.755 15.0693 355.488 14.792C355.232 14.504 355.104 14.1307 355.104 13.672V6.56801H356.416V13.352C356.416 13.8747 356.667 14.136 357.168 14.136H357.92V15.208H356.576ZM352.912 15.208C352.454 15.208 352.091 15.0693 351.824 14.792C351.568 14.504 351.44 14.1307 351.44 13.672V6.56801H352.752V13.352C352.752 13.8747 353.003 14.136 353.504 14.136H354.256V15.208H352.912ZM362.983 15.368C362.321 15.368 361.729 15.2133 361.207 14.904C360.684 14.5947 360.273 14.12 359.975 13.48C359.676 12.8293 359.527 11.992 359.527 10.968C359.527 9.56001 359.879 8.45067 360.583 7.64001C361.287 6.81867 362.375 6.40801 363.847 6.40801C364.785 6.40801 365.543 6.57334 366.119 6.90401C366.705 7.22401 367.132 7.64534 367.399 8.16801C367.665 8.69067 367.799 9.25067 367.799 9.84801V15.208H366.487V9.86401C366.487 9.41601 366.401 9.01601 366.231 8.66401C366.06 8.31201 365.777 8.03467 365.383 7.83201C364.999 7.62934 364.476 7.52801 363.815 7.52801C362.748 7.52801 361.985 7.82667 361.527 8.42401C361.068 9.02134 360.839 9.86934 360.839 10.968C360.839 12.184 361.036 13.0373 361.431 13.528C361.836 14.008 362.428 14.248 363.207 14.248C363.409 14.248 363.607 14.2373 363.799 14.216C364.001 14.1947 364.172 14.1627 364.311 14.12V15.208C363.959 15.3147 363.516 15.368 362.983 15.368ZM372.914 15.368C371.986 15.368 371.271 15.1013 370.77 14.568C370.279 14.0347 370.034 13.2667 370.034 12.264V6.56801H371.346V12.248C371.346 12.9627 371.506 13.4747 371.826 13.784C372.146 14.0933 372.653 14.248 373.346 14.248C373.89 14.248 374.391 14.136 374.85 13.912C375.309 13.688 375.703 13.4053 376.034 13.064V6.56801H377.346V15.208H376.162L376.082 14.168C375.687 14.5307 375.234 14.824 374.722 15.048C374.21 15.2613 373.607 15.368 372.914 15.368ZM379.261 15.208V14.136H379.901C380.36 14.136 380.589 13.88 380.589 13.368V11.704C380.589 11.2667 380.664 10.8827 380.813 10.552C380.962 10.2213 381.261 9.98134 381.709 9.83201L379.805 9.41601V7.88001C380.21 7.50667 380.749 7.17067 381.421 6.87201C382.104 6.56267 382.904 6.40801 383.821 6.40801C385.08 6.40801 386.024 6.67467 386.653 7.20801C387.293 7.73067 387.613 8.56267 387.613 9.70401V15.208H386.301V9.65601C386.301 8.85601 386.114 8.30134 385.741 7.99201C385.368 7.68267 384.728 7.52801 383.821 7.52801C383.224 7.52801 382.664 7.61334 382.141 7.78401C381.629 7.94401 381.234 8.16267 380.957 8.44001V8.77601L382.925 9.22401V10.216C382.53 10.3333 382.258 10.4987 382.109 10.712C381.97 10.9253 381.901 11.2667 381.901 11.736V13.448C381.901 14.6213 381.352 15.208 380.253 15.208H379.261ZM393.319 15.208V9.62401C393.319 9.14401 393.271 8.74934 393.175 8.44001C393.079 8.13067 392.881 7.90134 392.583 7.75201C392.295 7.60267 391.852 7.52801 391.255 7.52801C390.913 7.52801 390.54 7.56534 390.135 7.64001C389.74 7.71467 389.377 7.81601 389.047 7.94401V6.85601C389.367 6.72801 389.745 6.62134 390.183 6.53601C390.62 6.45067 391.057 6.40801 391.495 6.40801C392.593 6.40801 393.388 6.65334 393.879 7.14401C394.38 7.62401 394.631 8.40267 394.631 9.48001V15.208H393.319ZM396.878 15.208V9.60801C396.878 8.58401 397.176 7.79467 397.774 7.24001C398.382 6.68534 399.331 6.40801 400.622 6.40801C401.912 6.40801 402.851 6.68534 403.438 7.24001C404.035 7.79467 404.334 8.58401 404.334 9.60801V15.208H403.022V9.46401C403.022 8.77067 402.814 8.27467 402.398 7.97601C401.992 7.67734 401.4 7.52801 400.622 7.52801C399.822 7.52801 399.214 7.67734 398.798 7.97601C398.392 8.27467 398.19 8.77067 398.19 9.46401V11.464C398.691 11.0267 399.31 10.808 400.046 10.808H401.102L401.166 11.88H400.014C399.288 11.88 398.68 12.088 398.19 12.504V15.208H396.878ZM407.845 15.208C407.386 15.208 407.024 15.0693 406.757 14.792C406.501 14.504 406.373 14.1307 406.373 13.672V8.12001C406.373 7.67201 406.442 7.28801 406.581 6.96801C406.72 6.64801 406.885 6.37601 407.077 6.15201C407.28 5.91734 407.482 5.70934 407.685 5.52801C407.888 5.33601 408.058 5.14934 408.197 4.96801C408.336 4.78667 408.405 4.58934 408.405 4.37601C408.405 4.03467 408.304 3.81067 408.101 3.70401C407.898 3.59734 407.61 3.54401 407.237 3.54401C406.65 3.54401 406.058 3.70934 405.461 4.04001V3.01601C405.77 2.83467 406.117 2.69601 406.501 2.60001C406.896 2.50401 407.274 2.45601 407.637 2.45601C408.352 2.45601 408.88 2.62134 409.221 2.95201C409.573 3.27201 409.749 3.71467 409.749 4.28001C409.749 4.61067 409.68 4.89334 409.541 5.12801C409.402 5.36267 409.232 5.57601 409.029 5.76801C408.826 5.96001 408.618 6.16267 408.405 6.37601C408.202 6.58934 408.032 6.83467 407.893 7.11201C407.754 7.38934 407.685 7.73067 407.685 8.13601V13.352C407.685 13.8747 407.936 14.136 408.437 14.136H409.349V15.208H407.845ZM414.326 15.368C413.665 15.368 413.073 15.2133 412.55 14.904C412.028 14.5947 411.617 14.12 411.318 13.48C411.02 12.8293 410.87 11.992 410.87 10.968C410.87 9.50667 411.1 8.38134 411.558 7.59201C412.028 6.80267 412.694 6.40801 413.558 6.40801C413.985 6.40801 414.332 6.48267 414.598 6.63201C414.865 6.78134 415.1 6.98934 415.302 7.25601C415.537 6.98934 415.825 6.78134 416.166 6.63201C416.518 6.48267 416.876 6.40801 417.238 6.40801C417.868 6.40801 418.342 6.59467 418.662 6.96801C418.982 7.33067 419.142 7.85867 419.142 8.55201V15.208H417.83V8.72801C417.83 8.28001 417.761 7.97067 417.622 7.80001C417.494 7.61867 417.244 7.52801 416.87 7.52801C416.636 7.52801 416.417 7.58667 416.214 7.70401C416.012 7.81067 415.852 8.00267 415.734 8.28001H414.854C414.705 8.00267 414.55 7.81067 414.39 7.70401C414.23 7.58667 414.006 7.52801 413.718 7.52801C413.11 7.52801 412.7 7.84267 412.486 8.47201C412.284 9.09067 412.182 9.92267 412.182 10.968C412.182 12.184 412.38 13.0373 412.774 13.528C413.18 14.008 413.772 14.248 414.55 14.248C414.753 14.248 414.95 14.2373 415.142 14.216C415.345 14.1947 415.516 14.1627 415.654 14.12V15.208C415.302 15.3147 414.86 15.368 414.326 15.368ZM415.762 5.11201V3.60801H414.498V2.66401H416.706V4.16801H420.21L420.146 5.11201H415.762Z" fill="white"/>
</svg>
