<svg width="358" height="57" viewBox="0 0 358 57" fill="none" xmlns="http://www.w3.org/2000/svg">
<path d="M1.19469 21.208V14.508C1.19469 13.2013 1.59469 12.1613 2.39469 11.388C3.20802 10.6013 4.50802 10.208 6.29469 10.208C6.65469 10.208 6.98802 10.228 7.29469 10.268C7.61469 10.2947 7.91469 10.3413 8.19469 10.408H12.3947L12.2547 12.468H10.8347C11.0214 12.708 11.1547 13.0147 11.2347 13.388C11.328 13.748 11.3747 14.1213 11.3747 14.508V21.208H8.67469V14.308C8.67469 13.6413 8.46135 13.1413 8.03469 12.808C7.62135 12.4747 7.04135 12.308 6.29469 12.308C4.69469 12.308 3.89469 12.9747 3.89469 14.308V16.248C4.14802 16.0613 4.42802 15.908 4.73469 15.788C5.05469 15.668 5.40135 15.608 5.77469 15.608H7.07469L7.15469 17.748H5.71469C5.34135 17.748 5.00802 17.8013 4.71469 17.908C4.42135 18.0013 4.14802 18.1413 3.89469 18.328V21.208H1.19469ZM8.61469 26.488C7.80135 26.488 7.16135 26.328 6.69469 26.008C6.22802 25.688 5.99469 25.2813 5.99469 24.788V23.848H4.89469L4.99469 22.228H7.87469V24.148C7.87469 24.5747 8.12135 24.788 8.61469 24.788C9.12135 24.788 9.37469 24.5747 9.37469 24.148V22.228H11.2947V24.348C11.2947 24.9213 11.0814 25.4213 10.6547 25.848C10.228 26.2747 9.54802 26.488 8.61469 26.488ZM18.0206 21.408C16.8606 21.408 15.9473 21.0613 15.2806 20.368C14.614 19.6613 14.2806 18.6813 14.2806 17.428V10.408H16.9806V17.268C16.9806 18.0013 17.1406 18.528 17.4606 18.848C17.794 19.1547 18.2806 19.308 18.9206 19.308C19.4273 19.308 19.9206 19.2013 20.4006 18.988C20.8806 18.7747 21.2673 18.508 21.5606 18.188V10.408H24.2606V21.208H21.7806L21.6606 20.148C21.1806 20.5347 20.6406 20.8413 20.0406 21.068C19.4406 21.2947 18.7673 21.408 18.0206 21.408ZM31.2839 21.408C30.3372 21.408 29.4706 21.3013 28.6839 21.088C27.8972 20.8747 27.2706 20.5147 26.8039 20.008C26.3372 19.488 26.1039 18.7947 26.1039 17.928C26.1039 17.4613 26.2106 17.0213 26.4239 16.608C26.6506 16.1813 26.9972 15.8413 27.4639 15.588C27.0772 15.4147 26.7572 15.1413 26.5039 14.768C26.2639 14.3947 26.1439 13.9413 26.1439 13.408C26.1439 12.3547 26.4772 11.5613 27.1439 11.028C27.8106 10.4813 28.6706 10.208 29.7239 10.208C30.1372 10.208 30.4906 10.2347 30.7839 10.288C31.0772 10.328 31.3439 10.3947 31.5839 10.488V12.468C31.1972 12.3613 30.7372 12.308 30.2039 12.308C29.7106 12.308 29.3372 12.3947 29.0839 12.568C28.8306 12.728 28.7039 13.008 28.7039 13.408C28.7039 13.848 28.8439 14.1547 29.1239 14.328C29.4039 14.488 29.8239 14.568 30.3839 14.568H31.5039L31.6039 16.548H30.3639C29.2306 16.548 28.6639 17.008 28.6639 17.928C28.6639 18.3813 28.8639 18.728 29.2639 18.968C29.6772 19.1947 30.3106 19.308 31.1639 19.308C32.0306 19.308 32.6706 19.128 33.0839 18.768C33.4972 18.408 33.7039 17.888 33.7039 17.208V10.408H36.4039V16.968C36.4039 18.528 35.9572 19.6613 35.0639 20.368C34.1839 21.0613 32.9239 21.408 31.2839 21.408ZM31.2723 8.92801V5.78801H37.3923L37.3123 7.62801H33.4723V8.92801H31.2723ZM42.8523 21.408C41.959 21.408 41.1257 21.328 40.3523 21.168C39.579 20.9947 38.9257 20.7947 38.3923 20.568V14.888H42.9723L43.0923 16.868H40.9523V19.048C41.2057 19.128 41.5057 19.1947 41.8523 19.248C42.2123 19.288 42.5523 19.308 42.8723 19.308C43.9657 19.308 44.7323 19.048 45.1723 18.528C45.6123 18.008 45.8323 17.1147 45.8323 15.848C45.8323 14.9413 45.7123 14.2347 45.4723 13.728C45.2457 13.208 44.8657 12.8413 44.3323 12.628C43.8123 12.4147 43.099 12.308 42.1923 12.308C41.6057 12.308 40.9923 12.3547 40.3523 12.448C39.7257 12.528 39.119 12.6613 38.5323 12.848V10.828C39.1323 10.628 39.819 10.4747 40.5923 10.368C41.3657 10.2613 42.119 10.208 42.8523 10.208C44.799 10.208 46.2057 10.6947 47.0723 11.668C47.9523 12.628 48.3923 14.0213 48.3923 15.848C48.3923 17.6347 47.9523 19.008 47.0723 19.968C46.2057 20.928 44.799 21.408 42.8523 21.408ZM46.6167 9.26801C45.9501 9.26801 45.3834 9.05467 44.9167 8.62801C44.4367 8.18801 44.1967 7.63467 44.1967 6.96801C44.1967 6.30134 44.4367 5.74801 44.9167 5.30801C45.3834 4.86801 45.9501 4.64801 46.6167 4.64801C47.2834 4.64801 47.8501 4.86801 48.3167 5.30801C48.7834 5.74801 49.0167 6.30134 49.0167 6.96801C49.0167 7.63467 48.7834 8.18801 48.3167 8.62801C47.8501 9.05467 47.2834 9.26801 46.6167 9.26801ZM46.6167 7.84801C46.8567 7.84801 47.0634 7.76134 47.2367 7.58801C47.4101 7.40134 47.4967 7.19467 47.4967 6.96801C47.4967 6.72801 47.4101 6.52134 47.2367 6.34801C47.0634 6.16134 46.8567 6.06801 46.6167 6.06801C46.3767 6.06801 46.1701 6.16134 45.9967 6.34801C45.8101 6.52134 45.7167 6.72801 45.7167 6.96801C45.7167 7.19467 45.8101 7.40134 45.9967 7.58801C46.1701 7.76134 46.3767 7.84801 46.6167 7.84801ZM54.0967 21.208V14.568C54.0967 13.848 53.9567 13.2947 53.6767 12.908C53.3967 12.508 52.8367 12.308 51.9967 12.308C51.5567 12.308 51.0901 12.3613 50.5967 12.468C50.1034 12.5613 49.6634 12.6813 49.2767 12.828V10.848C49.6767 10.6613 50.1701 10.508 50.7567 10.388C51.3434 10.268 51.9301 10.208 52.5167 10.208C54.0367 10.208 55.1301 10.5347 55.7967 11.188C56.4634 11.828 56.7967 12.828 56.7967 14.188V21.208H54.0967ZM62.923 21.408C61.763 21.408 60.8496 21.0613 60.183 20.368C59.5163 19.6613 59.183 18.6813 59.183 17.428V10.408H61.883V17.268C61.883 18.0013 62.043 18.528 62.363 18.848C62.6963 19.1547 63.183 19.308 63.823 19.308C64.3296 19.308 64.823 19.2013 65.303 18.988C65.783 18.7747 66.1696 18.508 66.463 18.188V10.408H69.163V21.208H66.683L66.563 20.148C66.083 20.5347 65.543 20.8413 64.943 21.068C64.343 21.2947 63.6696 21.408 62.923 21.408ZM74.2663 21.408C72.9729 21.408 71.8263 21.1947 70.8263 20.768V18.708C71.2396 18.8813 71.6863 19.028 72.1663 19.148C72.6463 19.2547 73.1329 19.308 73.6263 19.308C74.8796 19.308 75.7729 19.048 76.3063 18.528C76.8529 18.008 77.1263 17.1013 77.1263 15.808C77.1263 14.5147 76.8529 13.608 76.3063 13.088C75.7729 12.568 74.8796 12.308 73.6263 12.308C73.1329 12.308 72.6463 12.3613 72.1663 12.468C71.6863 12.5747 71.2396 12.7213 70.8263 12.908V10.848C71.8263 10.4213 72.9729 10.208 74.2663 10.208C76.0929 10.208 77.4529 10.688 78.3463 11.648C79.2396 12.5947 79.6863 13.9813 79.6863 15.808C79.6863 17.6347 79.2396 19.028 78.3463 19.988C77.4529 20.9347 76.0929 21.408 74.2663 21.408ZM86.0105 21.408C85.0638 21.408 84.1971 21.3013 83.4105 21.088C82.6238 20.8747 81.9971 20.5147 81.5305 20.008C81.0638 19.488 80.8305 18.7947 80.8305 17.928C80.8305 17.4613 80.9371 17.0213 81.1505 16.608C81.3771 16.1813 81.7238 15.8413 82.1905 15.588C81.8038 15.4147 81.4838 15.1413 81.2305 14.768C80.9905 14.3947 80.8705 13.9413 80.8705 13.408C80.8705 12.3547 81.2038 11.5613 81.8705 11.028C82.5371 10.4813 83.3971 10.208 84.4505 10.208C84.8638 10.208 85.2171 10.2347 85.5105 10.288C85.8038 10.328 86.0705 10.3947 86.3105 10.488V12.468C85.9238 12.3613 85.4638 12.308 84.9305 12.308C84.4371 12.308 84.0638 12.3947 83.8105 12.568C83.5571 12.728 83.4305 13.008 83.4305 13.408C83.4305 13.848 83.5705 14.1547 83.8505 14.328C84.1305 14.488 84.5505 14.568 85.1105 14.568H86.2305L86.3305 16.548H85.0905C83.9571 16.548 83.3905 17.008 83.3905 17.928C83.3905 18.3813 83.5905 18.728 83.9905 18.968C84.4038 19.1947 85.0371 19.308 85.8905 19.308C86.7571 19.308 87.3971 19.128 87.8105 18.768C88.2238 18.408 88.4305 17.888 88.4305 17.208V10.408H91.1305V16.968C91.1305 18.528 90.6838 19.6613 89.7905 20.368C88.9105 21.0613 87.6505 21.408 86.0105 21.408ZM93.6189 21.208V17.768C93.6189 17.1547 93.7189 16.6147 93.9189 16.148C94.1322 15.668 94.5456 15.3347 95.1589 15.148L93.1189 14.608V12.028C93.6656 11.5613 94.3922 11.1413 95.2989 10.768C96.2189 10.3947 97.2656 10.208 98.4389 10.208C99.5189 10.208 100.439 10.348 101.199 10.628C101.972 10.908 102.559 11.3747 102.959 12.028C103.372 12.6813 103.579 13.568 103.579 14.688V21.208H100.879V14.628C100.879 13.788 100.679 13.1947 100.279 12.848C99.8922 12.488 99.2322 12.308 98.2989 12.308C97.6989 12.308 97.1456 12.3947 96.6389 12.568C96.1456 12.7413 95.7456 12.9613 95.4389 13.228V13.508L97.6589 14.108V15.748C97.1256 15.8813 96.7656 16.1013 96.5789 16.408C96.4056 16.7013 96.3189 17.1613 96.3189 17.788V21.208H93.6189ZM109.78 21.208V14.568C109.78 13.848 109.64 13.2947 109.36 12.908C109.08 12.508 108.52 12.308 107.68 12.308C107.24 12.308 106.774 12.3613 106.28 12.468C105.787 12.5613 105.347 12.6813 104.96 12.828V10.848C105.36 10.6613 105.854 10.508 106.44 10.388C107.027 10.268 107.614 10.208 108.2 10.208C109.72 10.208 110.814 10.5347 111.48 11.188C112.147 11.828 112.48 12.828 112.48 14.188V21.208H109.78ZM118.507 21.408C117.76 21.408 117.04 21.3547 116.347 21.248C115.667 21.1413 115.113 21.0013 114.687 20.828V18.648C115.193 18.8613 115.747 19.028 116.347 19.148C116.96 19.2547 117.513 19.308 118.007 19.308C118.873 19.308 119.5 19.2413 119.887 19.108C120.287 18.9747 120.487 18.7013 120.487 18.288C120.487 17.968 120.38 17.7213 120.167 17.548C119.967 17.3747 119.653 17.2213 119.227 17.088C118.8 16.9413 118.253 16.7547 117.587 16.528C116.613 16.1813 115.847 15.7947 115.287 15.368C114.74 14.928 114.467 14.2813 114.467 13.428C114.467 12.468 114.84 11.6947 115.587 11.108C116.333 10.508 117.46 10.208 118.967 10.208C119.593 10.208 120.22 10.2547 120.847 10.348C121.473 10.4413 121.987 10.5547 122.387 10.688V12.848C121.947 12.6613 121.44 12.528 120.867 12.448C120.307 12.3547 119.8 12.308 119.347 12.308C118.72 12.308 118.173 12.3813 117.707 12.528C117.253 12.6613 117.027 12.9413 117.027 13.368C117.027 13.6347 117.14 13.848 117.367 14.008C117.607 14.168 117.94 14.3147 118.367 14.448C118.807 14.5813 119.327 14.7547 119.927 14.968C120.673 15.2213 121.273 15.488 121.727 15.768C122.193 16.048 122.527 16.388 122.727 16.788C122.94 17.188 123.047 17.688 123.047 18.288C123.047 19.3413 122.64 20.128 121.827 20.648C121.027 21.1547 119.92 21.408 118.507 21.408ZM130.065 21.408C128.478 21.408 127.225 21.0347 126.305 20.288C125.385 19.528 124.925 18.388 124.925 16.868V10.408H127.625V16.908C127.625 18.508 128.438 19.308 130.065 19.308C131.692 19.308 132.505 18.508 132.505 16.908V10.408H135.205V16.868C135.205 18.388 134.745 19.528 133.825 20.288C132.905 21.0347 131.652 21.408 130.065 21.408ZM141.221 21.408C140.475 21.408 139.755 21.3547 139.061 21.248C138.381 21.1413 137.828 21.0013 137.401 20.828V18.648C137.908 18.8613 138.461 19.028 139.061 19.148C139.675 19.2547 140.228 19.308 140.721 19.308C141.588 19.308 142.215 19.2413 142.601 19.108C143.001 18.9747 143.201 18.7013 143.201 18.288C143.201 17.968 143.095 17.7213 142.881 17.548C142.681 17.3747 142.368 17.2213 141.941 17.088C141.515 16.9413 140.968 16.7547 140.301 16.528C139.328 16.1813 138.561 15.7947 138.001 15.368C137.455 14.928 137.181 14.2813 137.181 13.428C137.181 12.468 137.555 11.6947 138.301 11.108C139.048 10.508 140.175 10.208 141.681 10.208C142.308 10.208 142.935 10.2547 143.561 10.348C144.188 10.4413 144.701 10.5547 145.101 10.688V12.848C144.661 12.6613 144.155 12.528 143.581 12.448C143.021 12.3547 142.515 12.308 142.061 12.308C141.435 12.308 140.888 12.3813 140.421 12.528C139.968 12.6613 139.741 12.9413 139.741 13.368C139.741 13.6347 139.855 13.848 140.081 14.008C140.321 14.168 140.655 14.3147 141.081 14.448C141.521 14.5813 142.041 14.7547 142.641 14.968C143.388 15.2213 143.988 15.488 144.441 15.768C144.908 16.048 145.241 16.388 145.441 16.788C145.655 17.188 145.761 17.688 145.761 18.288C145.761 19.3413 145.355 20.128 144.541 20.648C143.741 21.1547 142.635 21.408 141.221 21.408ZM136.52 8.92801L136.66 7.08801H145.26V8.92801H136.52ZM147.64 21.208V10.408H150.34V13.688H153.02C153.713 13.688 154.187 13.5413 154.44 13.248C154.707 12.9413 154.84 12.4813 154.84 11.868V10.408H157.54V11.768C157.54 12.4347 157.427 13.028 157.2 13.548C156.987 14.0547 156.587 14.4213 156 14.648C156.56 14.8613 156.94 15.1947 157.14 15.648C157.353 16.088 157.46 16.6013 157.46 17.188V21.208H154.76V17.488C154.76 16.808 154.627 16.3347 154.36 16.068C154.107 15.8013 153.64 15.668 152.96 15.668H150.34V21.208H147.64ZM163.667 21.208V14.568C163.667 13.848 163.527 13.2947 163.247 12.908C162.967 12.508 162.407 12.308 161.567 12.308C161.127 12.308 160.66 12.3613 160.167 12.468C159.674 12.5613 159.234 12.6813 158.847 12.828V10.848C159.247 10.6613 159.74 10.508 160.327 10.388C160.914 10.268 161.5 10.208 162.087 10.208C163.607 10.208 164.7 10.5347 165.367 11.188C166.034 11.828 166.367 12.828 166.367 14.188V21.208H163.667ZM172.393 21.408C171.647 21.408 170.927 21.3547 170.233 21.248C169.553 21.1413 169 21.0013 168.573 20.828V18.648C169.08 18.8613 169.633 19.028 170.233 19.148C170.847 19.2547 171.4 19.308 171.893 19.308C172.76 19.308 173.387 19.2413 173.773 19.108C174.173 18.9747 174.373 18.7013 174.373 18.288C174.373 17.968 174.267 17.7213 174.053 17.548C173.853 17.3747 173.54 17.2213 173.113 17.088C172.687 16.9413 172.14 16.7547 171.473 16.528C170.5 16.1813 169.733 15.7947 169.173 15.368C168.627 14.928 168.353 14.2813 168.353 13.428C168.353 12.468 168.727 11.6947 169.473 11.108C170.22 10.508 171.347 10.208 172.853 10.208C173.48 10.208 174.107 10.2547 174.733 10.348C175.36 10.4413 175.873 10.5547 176.273 10.688V12.848C175.833 12.6613 175.327 12.528 174.753 12.448C174.193 12.3547 173.687 12.308 173.233 12.308C172.607 12.308 172.06 12.3813 171.593 12.528C171.14 12.6613 170.913 12.9413 170.913 13.368C170.913 13.6347 171.027 13.848 171.253 14.008C171.493 14.168 171.827 14.3147 172.253 14.448C172.693 14.5813 173.213 14.7547 173.813 14.968C174.56 15.2213 175.16 15.488 175.613 15.768C176.08 16.048 176.413 16.388 176.613 16.788C176.827 17.188 176.933 17.688 176.933 18.288C176.933 19.3413 176.527 20.128 175.713 20.648C174.913 21.1547 173.807 21.408 172.393 21.408ZM183.132 21.408C182.839 21.408 182.499 21.3747 182.112 21.308C181.739 21.2547 181.439 21.188 181.212 21.108L179.692 17.048H178.212L178.332 15.128H181.392L182.972 19.348C183.799 19.348 184.439 19.068 184.892 18.508C185.345 17.9347 185.572 17.0013 185.572 15.708C185.572 14.8413 185.459 14.1613 185.232 13.668C185.019 13.1747 184.645 12.828 184.112 12.628C183.579 12.4147 182.852 12.308 181.932 12.308C181.399 12.308 180.825 12.3547 180.212 12.448C179.612 12.528 179.039 12.6547 178.492 12.828V10.828C179.039 10.6547 179.665 10.508 180.372 10.388C181.092 10.268 181.845 10.208 182.632 10.208C184.605 10.208 186.012 10.6813 186.852 11.628C187.705 12.5747 188.132 13.9347 188.132 15.708C188.132 16.948 187.899 17.9947 187.432 18.848C186.979 19.688 186.372 20.328 185.612 20.768C184.852 21.1947 184.025 21.408 183.132 21.408ZM182.483 8.92801V5.74801H184.683V7.08801H189.663L189.563 8.92801H182.483ZM194.063 21.408C193.703 21.408 193.317 21.3813 192.903 21.328C192.503 21.2747 192.15 21.2013 191.843 21.108L188.803 13.708H191.423L193.803 19.488C194.803 19.488 195.523 19.1547 195.963 18.488C196.417 17.808 196.643 16.8013 196.643 15.468C196.643 14.668 196.563 14.0413 196.403 13.588C196.257 13.1347 196.01 12.8147 195.663 12.628C195.317 12.428 194.837 12.328 194.223 12.328H193.403V10.408H194.603C196.19 10.408 197.35 10.828 198.083 11.668C198.83 12.4947 199.203 13.7613 199.203 15.468C199.203 16.868 198.983 18.008 198.543 18.888C198.103 19.7547 197.497 20.3947 196.723 20.808C195.963 21.208 195.077 21.408 194.063 21.408ZM200.55 21.208V10.408H203.25V13.688H205.93C206.623 13.688 207.097 13.5413 207.35 13.248C207.617 12.9413 207.75 12.4813 207.75 11.868V10.408H210.45V11.768C210.45 12.4347 210.337 13.028 210.11 13.548C209.897 14.0547 209.497 14.4213 208.91 14.648C209.47 14.8613 209.85 15.1947 210.05 15.648C210.263 16.088 210.37 16.6013 210.37 17.188V21.208H207.67V17.488C207.67 16.808 207.537 16.3347 207.27 16.068C207.017 15.8013 206.55 15.668 205.87 15.668H203.25V21.208H200.55ZM215.477 21.408C214.184 21.408 213.037 21.1947 212.037 20.768V18.708C212.451 18.8813 212.897 19.028 213.377 19.148C213.857 19.2547 214.344 19.308 214.837 19.308C216.091 19.308 216.984 19.048 217.517 18.528C218.064 18.008 218.337 17.1013 218.337 15.808C218.337 14.5147 218.064 13.608 217.517 13.088C216.984 12.568 216.091 12.308 214.837 12.308C214.344 12.308 213.857 12.3613 213.377 12.468C212.897 12.5747 212.451 12.7213 212.037 12.908V10.848C213.037 10.4213 214.184 10.208 215.477 10.208C217.304 10.208 218.664 10.688 219.557 11.648C220.451 12.5947 220.897 13.9813 220.897 15.808C220.897 17.6347 220.451 19.028 219.557 19.988C218.664 20.9347 217.304 21.408 215.477 21.408ZM215.061 8.92801V5.74801H217.261V7.08801H222.241L222.141 8.92801H215.061ZM226.701 21.408C225.835 21.408 225.061 21.2213 224.381 20.848C223.701 20.4747 223.161 19.8947 222.761 19.108C222.375 18.308 222.181 17.2813 222.181 16.028C222.181 14.188 222.655 12.7613 223.601 11.748C224.561 10.7213 225.968 10.208 227.821 10.208C229.115 10.208 230.161 10.428 230.961 10.868C231.761 11.2947 232.341 11.848 232.701 12.528C233.075 13.208 233.261 13.928 233.261 14.688V21.208H230.561V14.868C230.561 14.3613 230.481 13.9213 230.321 13.548C230.161 13.1613 229.875 12.8613 229.461 12.648C229.061 12.4213 228.501 12.308 227.781 12.308C225.755 12.308 224.741 13.548 224.741 16.028C224.741 17.2413 224.955 18.0947 225.381 18.588C225.808 19.068 226.408 19.308 227.181 19.308C227.435 19.308 227.681 19.2947 227.921 19.268C228.175 19.2413 228.388 19.2013 228.561 19.148V21.128C228.321 21.2213 228.055 21.288 227.761 21.328C227.468 21.3813 227.115 21.408 226.701 21.408ZM240.308 21.408C238.694 21.408 237.481 21.0347 236.668 20.288C235.854 19.5413 235.448 18.5213 235.448 17.228V16.548C235.448 16.0947 235.534 15.688 235.708 15.328C235.881 14.968 236.074 14.648 236.288 14.368C236.514 14.088 236.714 13.828 236.888 13.588C237.061 13.348 237.148 13.1213 237.148 12.908C237.148 12.708 237.101 12.5747 237.008 12.508C236.914 12.4413 236.748 12.408 236.508 12.408H235.208L235.428 10.408H238.228C239.334 10.408 239.888 10.9213 239.888 11.948C239.888 12.4013 239.801 12.8147 239.628 13.188C239.454 13.548 239.248 13.8947 239.008 14.228C238.781 14.5613 238.581 14.9147 238.408 15.288C238.234 15.648 238.148 16.0613 238.148 16.528V17.388C238.148 18.668 238.868 19.308 240.308 19.308C241.774 19.308 242.508 18.6413 242.508 17.308V16.048C242.508 15.5413 242.421 15.1813 242.248 14.968C242.074 14.7547 241.768 14.648 241.328 14.648H240.768L240.888 12.768H241.248C241.688 12.768 242.008 12.6547 242.208 12.428C242.408 12.2013 242.508 11.8413 242.508 11.348V10.208H245.208V11.288C245.208 11.9013 245.114 12.4013 244.928 12.788C244.741 13.1613 244.374 13.468 243.828 13.708C244.388 13.9613 244.754 14.288 244.928 14.688C245.114 15.0747 245.208 15.5613 245.208 16.148V17.188C245.208 18.4813 244.774 19.508 243.908 20.268C243.041 21.028 241.841 21.408 240.308 21.408ZM251.401 21.208V14.568C251.401 13.848 251.261 13.2947 250.981 12.908C250.701 12.508 250.141 12.308 249.301 12.308C248.861 12.308 248.395 12.3613 247.901 12.468C247.408 12.5613 246.968 12.6813 246.581 12.828V10.848C246.981 10.6613 247.475 10.508 248.061 10.388C248.648 10.268 249.235 10.208 249.821 10.208C251.341 10.208 252.435 10.5347 253.101 11.188C253.768 11.828 254.101 12.828 254.101 14.188V21.208H251.401ZM261.128 21.408C260.181 21.408 259.314 21.3013 258.528 21.088C257.741 20.8747 257.114 20.5147 256.648 20.008C256.181 19.488 255.948 18.7947 255.948 17.928C255.948 17.4613 256.054 17.0213 256.268 16.608C256.494 16.1813 256.841 15.8413 257.308 15.588C256.921 15.4147 256.601 15.1413 256.348 14.768C256.108 14.3947 255.988 13.9413 255.988 13.408C255.988 12.3547 256.321 11.5613 256.988 11.028C257.654 10.4813 258.514 10.208 259.568 10.208C259.981 10.208 260.334 10.2347 260.628 10.288C260.921 10.328 261.188 10.3947 261.428 10.488V12.468C261.041 12.3613 260.581 12.308 260.048 12.308C259.554 12.308 259.181 12.3947 258.928 12.568C258.674 12.728 258.548 13.008 258.548 13.408C258.548 13.848 258.688 14.1547 258.968 14.328C259.248 14.488 259.668 14.568 260.228 14.568H261.348L261.448 16.548H260.208C259.074 16.548 258.508 17.008 258.508 17.928C258.508 18.3813 258.708 18.728 259.108 18.968C259.521 19.1947 260.154 19.308 261.008 19.308C261.874 19.308 262.514 19.128 262.928 18.768C263.341 18.408 263.548 17.888 263.548 17.208V10.408H266.248V16.968C266.248 18.528 265.801 19.6613 264.908 20.368C264.028 21.0613 262.768 21.408 261.128 21.408ZM276.176 21.208C275.309 21.208 274.696 21.028 274.336 20.668C273.989 20.308 273.816 19.7413 273.816 18.968V10.408H276.516V18.268C276.516 18.828 276.789 19.108 277.336 19.108H278.016V21.208H276.176ZM271.056 21.208C270.189 21.208 269.576 21.028 269.216 20.668C268.869 20.308 268.696 19.7413 268.696 18.968V10.408H271.396V18.268C271.396 18.828 271.669 19.108 272.216 19.108H272.896V21.208H271.056ZM283.987 21.408C283.12 21.408 282.347 21.2213 281.667 20.848C280.987 20.4747 280.447 19.8947 280.047 19.108C279.66 18.308 279.467 17.2813 279.467 16.028C279.467 14.188 279.94 12.7613 280.887 11.748C281.847 10.7213 283.253 10.208 285.107 10.208C286.4 10.208 287.447 10.428 288.247 10.868C289.047 11.2947 289.627 11.848 289.987 12.528C290.36 13.208 290.547 13.928 290.547 14.688V21.208H287.847V14.868C287.847 14.3613 287.767 13.9213 287.607 13.548C287.447 13.1613 287.16 12.8613 286.747 12.648C286.347 12.4213 285.787 12.308 285.067 12.308C283.04 12.308 282.027 13.548 282.027 16.028C282.027 17.2413 282.24 18.0947 282.667 18.588C283.093 19.068 283.693 19.308 284.467 19.308C284.72 19.308 284.967 19.2947 285.207 19.268C285.46 19.2413 285.673 19.2013 285.847 19.148V21.128C285.607 21.2213 285.34 21.288 285.047 21.328C284.753 21.3813 284.4 21.408 283.987 21.408ZM296.673 21.408C295.513 21.408 294.6 21.0613 293.933 20.368C293.266 19.6613 292.933 18.6813 292.933 17.428V10.408H295.633V17.268C295.633 18.0013 295.793 18.528 296.113 18.848C296.446 19.1547 296.933 19.308 297.573 19.308C298.08 19.308 298.573 19.2013 299.053 18.988C299.533 18.7747 299.92 18.508 300.213 18.188V10.408H302.913V21.208H300.433L300.313 20.148C299.833 20.5347 299.293 20.8413 298.693 21.068C298.093 21.2947 297.42 21.408 296.673 21.408ZM305.096 21.208V19.108H305.756C306.023 19.108 306.203 19.0547 306.296 18.948C306.39 18.8413 306.436 18.6547 306.436 18.388V17.768C306.436 17.1547 306.523 16.6213 306.696 16.168C306.87 15.7147 307.263 15.3747 307.876 15.148L305.836 14.608V12.028C306.383 11.5613 307.11 11.1413 308.016 10.768C308.936 10.3947 309.983 10.208 311.156 10.208C312.676 10.208 313.87 10.548 314.736 11.228C315.616 11.908 316.056 13.0613 316.056 14.688V21.208H313.356V14.628C313.356 13.788 313.17 13.1947 312.796 12.848C312.436 12.488 311.843 12.308 311.016 12.308C310.416 12.308 309.863 12.3947 309.356 12.568C308.863 12.7413 308.463 12.9613 308.156 13.228V13.508L310.376 14.108V15.748C309.87 15.908 309.543 16.1347 309.396 16.428C309.25 16.708 309.176 17.1613 309.176 17.788V18.528C309.176 19.4747 308.95 20.1613 308.496 20.588C308.043 21.0013 307.39 21.208 306.536 21.208H305.096ZM322.261 21.208V14.568C322.261 13.848 322.121 13.2947 321.841 12.908C321.561 12.508 321.001 12.308 320.161 12.308C319.721 12.308 319.254 12.3613 318.761 12.468C318.267 12.5613 317.827 12.6813 317.441 12.828V10.848C317.841 10.6613 318.334 10.508 318.921 10.388C319.507 10.268 320.094 10.208 320.681 10.208C322.201 10.208 323.294 10.5347 323.961 11.188C324.627 11.828 324.961 12.828 324.961 14.188V21.208H322.261ZM327.347 21.208V14.508C327.347 13.2013 327.747 12.1613 328.547 11.388C329.36 10.6013 330.66 10.208 332.447 10.208C334.234 10.208 335.527 10.6013 336.327 11.388C337.127 12.1613 337.527 13.2013 337.527 14.508V21.208H334.827V14.308C334.827 13.6413 334.614 13.1413 334.187 12.808C333.774 12.4747 333.194 12.308 332.447 12.308C330.847 12.308 330.047 12.9747 330.047 14.308V16.248C330.3 16.0613 330.58 15.908 330.887 15.788C331.207 15.668 331.554 15.608 331.927 15.608H333.227L333.307 17.748H331.867C331.494 17.748 331.16 17.8013 330.867 17.908C330.574 18.0013 330.3 18.1413 330.047 18.328V21.208H327.347ZM341.986 21.208C341.119 21.208 340.506 21.028 340.146 20.668C339.799 20.308 339.626 19.7413 339.626 18.968V12.648C339.626 12.008 339.732 11.468 339.946 11.028C340.172 10.588 340.426 10.2147 340.706 9.90801C340.999 9.58801 341.252 9.30134 341.466 9.04801C341.692 8.79467 341.806 8.54134 341.806 8.28801C341.806 7.95467 341.712 7.72134 341.526 7.58801C341.339 7.44134 341.039 7.36801 340.626 7.36801C339.906 7.36801 339.199 7.56801 338.506 7.96801V6.02801C338.919 5.78801 339.406 5.60134 339.966 5.46801C340.526 5.33467 341.072 5.26801 341.606 5.26801C343.619 5.26801 344.626 6.03467 344.626 7.56801C344.626 8.00801 344.546 8.39467 344.386 8.72801C344.239 9.06134 344.052 9.37467 343.826 9.66801C343.599 9.96134 343.366 10.2547 343.126 10.548C342.899 10.8413 342.706 11.168 342.546 11.528C342.399 11.8747 342.326 12.2813 342.326 12.748V18.268C342.326 18.828 342.599 19.108 343.146 19.108H343.826V21.208H341.986ZM350.022 21.408C349.155 21.408 348.382 21.2213 347.702 20.848C347.022 20.4747 346.482 19.8947 346.082 19.108C345.695 18.308 345.502 17.2813 345.502 16.028C345.502 14.1213 345.835 12.6747 346.502 11.688C347.182 10.7013 348.095 10.208 349.242 10.208C349.815 10.208 350.262 10.3013 350.582 10.488C350.902 10.6747 351.168 10.9213 351.382 11.228C351.648 10.9213 352.015 10.6747 352.482 10.488C352.962 10.3013 353.448 10.208 353.942 10.208C354.888 10.208 355.582 10.4947 356.022 11.068C356.475 11.6413 356.702 12.3947 356.702 13.328V21.208H354.002V13.748C354.002 13.2813 353.935 12.928 353.802 12.688C353.682 12.4347 353.442 12.308 353.082 12.308C352.842 12.308 352.622 12.388 352.422 12.548C352.235 12.6947 352.102 12.9213 352.022 13.228H350.722C350.588 12.9213 350.448 12.6947 350.302 12.548C350.155 12.388 349.942 12.308 349.662 12.308C349.035 12.308 348.608 12.6547 348.382 13.348C348.168 14.028 348.062 14.9213 348.062 16.028C348.062 17.2413 348.275 18.0947 348.702 18.588C349.128 19.068 349.728 19.308 350.502 19.308C350.755 19.308 351.002 19.2947 351.242 19.268C351.495 19.2413 351.708 19.2013 351.882 19.148V21.128C351.642 21.2213 351.375 21.288 351.082 21.328C350.788 21.3813 350.435 21.408 350.022 21.408ZM351.745 8.92801V7.14801H350.185V5.30801H353.565V7.08801H357.845L357.745 8.92801H351.745Z" fill="#F7B60E"/>
<path d="M17.7795 50.208C17.3208 50.208 16.9582 50.0693 16.6915 49.792C16.4355 49.504 16.3075 49.1307 16.3075 48.672V41.568H17.6195V48.352C17.6195 48.8747 17.8702 49.136 18.3715 49.136H19.2835V50.208H17.7795ZM23.7581 50.368C23.2141 50.368 22.7235 50.2827 22.2861 50.112C21.8595 49.9307 21.5181 49.6533 21.2621 49.28C21.0061 48.896 20.8781 48.4 20.8781 47.792C20.8781 46.9813 21.1501 46.3413 21.6941 45.872C22.2381 45.392 23.0701 45.152 24.1901 45.152H27.0221V44.48C27.0221 43.9893 26.9475 43.6053 26.7981 43.328C26.6595 43.04 26.4141 42.8373 26.0621 42.72C25.7101 42.592 25.2195 42.528 24.5901 42.528C24.1101 42.528 23.6355 42.56 23.1661 42.624C22.7075 42.688 22.2595 42.7947 21.8221 42.944V41.856C22.2275 41.7173 22.6915 41.6107 23.2141 41.536C23.7475 41.4507 24.2861 41.408 24.8301 41.408C26.0461 41.408 26.9315 41.664 27.4861 42.176C28.0515 42.6773 28.3341 43.4773 28.3341 44.576V50.208H27.0221V46.24H24.2701C23.5448 46.24 23.0115 46.3627 22.6701 46.608C22.3288 46.8427 22.1581 47.2373 22.1581 47.792C22.1581 48.336 22.3128 48.7147 22.6221 48.928C22.9315 49.1413 23.4275 49.248 24.1101 49.248C24.5261 49.248 24.8888 49.2053 25.1981 49.12V50.208C25.0168 50.2507 24.8035 50.288 24.5581 50.32C24.3128 50.352 24.0461 50.368 23.7581 50.368ZM33.9331 50.368C32.8025 50.368 31.9331 50.1013 31.3251 49.568C30.7278 49.024 30.4291 48.2507 30.4291 47.248V46.08C30.4291 45.76 30.5038 45.456 30.6531 45.168C30.8025 44.88 30.9785 44.608 31.1811 44.352C31.3838 44.096 31.5598 43.856 31.7091 43.632C31.8585 43.408 31.9331 43.2 31.9331 43.008C31.9331 42.8267 31.8905 42.7147 31.8051 42.672C31.7305 42.6187 31.5971 42.592 31.4051 42.592H30.2531L30.3651 41.568H32.1411C32.8771 41.568 33.2451 41.9307 33.2451 42.656C33.2451 43.0187 33.1705 43.344 33.0211 43.632C32.8718 43.92 32.6958 44.1973 32.4931 44.464C32.2905 44.7307 32.1145 44.9973 31.9651 45.264C31.8158 45.5307 31.7411 45.8187 31.7411 46.128V47.392C31.7411 48.0533 31.9385 48.528 32.3331 48.816C32.7278 49.104 33.2611 49.248 33.9331 49.248C34.6158 49.248 35.1545 49.104 35.5491 48.816C35.9545 48.528 36.1571 48.0427 36.1571 47.36V41.568H37.4691V47.232C37.4691 48.2347 37.1545 49.008 36.5251 49.552C35.9065 50.096 35.0425 50.368 33.9331 50.368ZM39.7138 50.208V41.568H40.8978L40.9778 42.608C41.3831 42.2453 41.8364 41.9573 42.3378 41.744C42.8498 41.52 43.4524 41.408 44.1458 41.408C45.0631 41.408 45.7724 41.6747 46.2738 42.208C46.7751 42.7413 47.0258 43.504 47.0258 44.496V50.208H45.7138V44.512C45.7138 43.808 45.5484 43.3013 45.2178 42.992C44.8871 42.6827 44.3751 42.528 43.6818 42.528C43.1271 42.528 42.6258 42.6453 42.1778 42.88C41.7404 43.104 41.3564 43.3867 41.0258 43.728V50.208H39.7138ZM40.6526 40.112L40.7166 39.168H45.9006V37.808H47.0046V40.112H40.6526ZM45.885 37.024V34.8H46.989V37.024H45.885ZM56.3881 50.368C55.1615 50.368 54.2281 50.0587 53.5881 49.44C52.9481 48.8107 52.6281 47.8133 52.6281 46.448V44.016C52.6281 43.1627 52.7935 42.416 53.1241 41.776C53.4655 41.136 53.9455 40.64 54.5641 40.288C55.1935 39.9253 55.9348 39.744 56.7881 39.744C57.2895 39.744 57.7321 39.776 58.1161 39.84C58.5001 39.8933 58.8468 39.9733 59.1561 40.08V41.216C58.8468 41.0987 58.5001 41.0133 58.1161 40.96C57.7428 40.896 57.3215 40.864 56.8521 40.864C55.8175 40.864 55.0601 41.1307 54.5801 41.664C54.1108 42.1867 53.8761 42.8907 53.8761 43.776V44.56C54.2921 44.2507 54.7508 44.0267 55.2521 43.888C55.7641 43.7387 56.2281 43.664 56.6441 43.664C57.8175 43.664 58.6921 43.952 59.2681 44.528C59.8441 45.0933 60.1321 45.9147 60.1321 46.992C60.1321 47.9947 59.8228 48.8107 59.2041 49.44C58.5961 50.0587 57.6575 50.368 56.3881 50.368ZM56.3881 49.328C57.2415 49.328 57.8815 49.1253 58.3081 48.72C58.7348 48.304 58.9481 47.7387 58.9481 47.024C58.9481 46.5333 58.8788 46.1173 58.7401 45.776C58.6015 45.424 58.3561 45.1573 58.0041 44.976C57.6521 44.784 57.1615 44.688 56.5321 44.688C56.0095 44.688 55.5241 44.7733 55.0761 44.944C54.6281 45.104 54.2281 45.312 53.8761 45.568V46.816C53.8761 48.4907 54.7135 49.328 56.3881 49.328ZM66.1215 50.368C65.0868 50.368 64.2442 50.16 63.5935 49.744C62.9535 49.328 62.4842 48.7307 62.1855 47.952C61.8868 47.1733 61.7375 46.2507 61.7375 45.184C61.7375 44.032 61.8762 43.0507 62.1535 42.24C62.4308 41.4293 62.8895 40.8107 63.5295 40.384C64.1695 39.9573 65.0335 39.744 66.1215 39.744C67.1988 39.744 68.0575 39.9573 68.6975 40.384C69.3375 40.8107 69.7962 41.4293 70.0735 42.24C70.3508 43.0507 70.4895 44.032 70.4895 45.184C70.4895 46.2507 70.3402 47.1733 70.0415 47.952C69.7535 48.7307 69.2895 49.328 68.6495 49.744C68.0095 50.16 67.1668 50.368 66.1215 50.368ZM66.1215 49.248C66.8788 49.248 67.4762 49.0827 67.9135 48.752C68.3615 48.4107 68.6815 47.936 68.8735 47.328C69.0762 46.7093 69.1775 45.9947 69.1775 45.184C69.1775 43.7867 68.9535 42.72 68.5055 41.984C68.0682 41.2373 67.2735 40.864 66.1215 40.864C65.3535 40.864 64.7455 41.0293 64.2975 41.36C63.8495 41.6907 63.5295 42.1813 63.3375 42.832C63.1455 43.472 63.0495 44.256 63.0495 45.184C63.0495 45.9947 63.1455 46.7093 63.3375 47.328C63.5402 47.936 63.8655 48.4107 64.3135 48.752C64.7722 49.0827 65.3748 49.248 66.1215 49.248ZM77.7684 50.208C77.3097 50.208 76.947 50.0693 76.6804 49.792C76.4244 49.504 76.2964 49.1307 76.2964 48.672V46.704C76.2964 46.2667 76.3977 45.8827 76.6004 45.552C76.803 45.2107 77.1337 44.9707 77.5924 44.832L75.7844 44.416V42.88C76.1897 42.5067 76.7284 42.1707 77.4004 41.872C78.083 41.5627 78.883 41.408 79.8004 41.408C81.059 41.408 82.003 41.6747 82.6324 42.208C83.2724 42.7307 83.5924 43.5627 83.5924 44.704V50.208H82.2804V44.656C82.2804 43.856 82.0937 43.3013 81.7204 42.992C81.347 42.6827 80.707 42.528 79.8004 42.528C79.203 42.528 78.643 42.6133 78.1204 42.784C77.6084 42.944 77.2137 43.1627 76.9364 43.44V43.776L78.8084 44.224V45.216C78.403 45.3227 78.099 45.4933 77.8964 45.728C77.7044 45.952 77.6084 46.288 77.6084 46.736V48.352C77.6084 48.8747 77.859 49.136 78.3604 49.136H79.2724V50.208H77.7684ZM85.5188 50.208V49.104H86.7028V50.208H85.5188ZM91.18 50.368C90.636 50.368 90.1453 50.2827 89.708 50.112C89.2813 49.9307 88.94 49.6533 88.684 49.28C88.428 48.896 88.3 48.4 88.3 47.792C88.3 46.9813 88.572 46.3413 89.116 45.872C89.66 45.392 90.492 45.152 91.612 45.152H94.444V44.48C94.444 43.9893 94.3693 43.6053 94.22 43.328C94.0813 43.04 93.836 42.8373 93.484 42.72C93.132 42.592 92.6413 42.528 92.012 42.528C91.532 42.528 91.0573 42.56 90.588 42.624C90.1293 42.688 89.6813 42.7947 89.244 42.944V41.856C89.6493 41.7173 90.1133 41.6107 90.636 41.536C91.1693 41.4507 91.708 41.408 92.252 41.408C92.5293 41.408 92.7907 41.424 93.036 41.456C93.2813 41.4773 93.5107 41.5147 93.724 41.568H96.476L96.412 42.64H95.26C95.4413 42.8853 95.5693 43.168 95.644 43.488C95.7187 43.808 95.756 44.1707 95.756 44.576V50.208H94.444V46.24H91.692C90.9667 46.24 90.4333 46.3627 90.092 46.608C89.7507 46.8427 89.58 47.2373 89.58 47.792C89.58 48.336 89.7347 48.7147 90.044 48.928C90.3533 49.1413 90.8493 49.248 91.532 49.248C91.948 49.248 92.3107 49.2053 92.62 49.12V50.208C92.4387 50.2507 92.2253 50.288 91.98 50.32C91.7347 50.352 91.468 50.368 91.18 50.368ZM94.619 54.208V52.112H93.563L93.627 51.216H95.755V54.208H94.619ZM101.433 50.368C100.302 50.368 99.4331 50.1013 98.8251 49.568C98.2278 49.024 97.9291 48.2507 97.9291 47.248V46.08C97.9291 45.76 98.0038 45.456 98.1531 45.168C98.3025 44.88 98.4785 44.608 98.6811 44.352C98.8838 44.096 99.0598 43.856 99.2091 43.632C99.3585 43.408 99.4331 43.2 99.4331 43.008C99.4331 42.8267 99.3905 42.7147 99.3051 42.672C99.2305 42.6187 99.0971 42.592 98.9051 42.592H97.7531L97.8651 41.568H99.6411C100.377 41.568 100.745 41.9307 100.745 42.656C100.745 43.0187 100.67 43.344 100.521 43.632C100.372 43.92 100.196 44.1973 99.9931 44.464C99.7905 44.7307 99.6145 44.9973 99.4651 45.264C99.3158 45.5307 99.2411 45.8187 99.2411 46.128V47.392C99.2411 48.0533 99.4385 48.528 99.8331 48.816C100.228 49.104 100.761 49.248 101.433 49.248C102.116 49.248 102.654 49.104 103.049 48.816C103.454 48.528 103.657 48.0427 103.657 47.36V41.568H104.969V47.232C104.969 48.2347 104.654 49.008 104.025 49.552C103.406 50.096 102.542 50.368 101.433 50.368ZM110.702 50.368C109.539 50.368 108.611 50.16 107.918 49.744C107.235 49.3173 106.894 48.6507 106.894 47.744C106.894 47.2427 107.006 46.8213 107.23 46.48C107.464 46.128 107.79 45.8667 108.206 45.696C107.843 45.5787 107.539 45.3653 107.294 45.056C107.059 44.7467 106.942 44.336 106.942 43.824C106.942 43.0133 107.182 42.4107 107.662 42.016C108.142 41.6107 108.755 41.408 109.502 41.408C109.79 41.408 110.04 41.424 110.254 41.456C110.467 41.488 110.659 41.5307 110.83 41.584V42.672C110.691 42.6187 110.526 42.5813 110.334 42.56C110.142 42.5387 109.944 42.528 109.742 42.528C109.272 42.528 108.904 42.6347 108.638 42.848C108.382 43.0507 108.254 43.376 108.254 43.824C108.254 44.2933 108.408 44.64 108.718 44.864C109.027 45.0773 109.432 45.184 109.934 45.184H110.846L110.926 46.176H109.886C109.32 46.176 108.899 46.3147 108.622 46.592C108.344 46.8587 108.206 47.2427 108.206 47.744C108.206 48.7467 109.022 49.248 110.654 49.248C111.475 49.248 112.088 49.0933 112.494 48.784C112.91 48.464 113.118 47.9573 113.118 47.264V41.568H114.43V47.04C114.43 48.1173 114.131 48.944 113.534 49.52C112.936 50.0853 111.992 50.368 110.702 50.368ZM120.139 50.208V44.624C120.139 44.144 120.091 43.7493 119.995 43.44C119.899 43.1307 119.702 42.9013 119.403 42.752C119.115 42.6027 118.672 42.528 118.075 42.528C117.734 42.528 117.36 42.5653 116.955 42.64C116.56 42.7147 116.198 42.816 115.867 42.944V41.856C116.187 41.728 116.566 41.6213 117.003 41.536C117.44 41.4507 117.878 41.408 118.315 41.408C119.414 41.408 120.208 41.6533 120.699 42.144C121.2 42.624 121.451 43.4027 121.451 44.48V50.208H120.139ZM126.818 50.368C126.615 50.368 126.375 50.3573 126.098 50.336C125.831 50.3147 125.602 50.2667 125.41 50.192L122.978 44.272H124.258L126.306 49.248C127.319 49.3227 128.066 49.0613 128.546 48.464C129.037 47.8667 129.282 46.912 129.282 45.6C129.282 44.8533 129.213 44.2667 129.074 43.84C128.935 43.4027 128.701 43.0933 128.37 42.912C128.05 42.7307 127.597 42.64 127.01 42.64H126.45V41.568H127.154C128.381 41.568 129.261 41.8987 129.794 42.56C130.327 43.2107 130.594 44.2187 130.594 45.584C130.594 46.7147 130.423 47.632 130.082 48.336C129.751 49.04 129.303 49.5573 128.738 49.888C128.173 50.208 127.533 50.368 126.818 50.368ZM132.511 50.208V44.608C132.511 43.584 132.809 42.7947 133.407 42.24C134.015 41.6853 134.964 41.408 136.255 41.408C137.545 41.408 138.484 41.6853 139.071 42.24C139.668 42.7947 139.967 43.584 139.967 44.608V50.208H138.655V44.464C138.655 43.7707 138.447 43.2747 138.031 42.976C137.625 42.6773 137.033 42.528 136.255 42.528C135.455 42.528 134.847 42.6773 134.431 42.976C134.025 43.2747 133.823 43.7707 133.823 44.464V46.464C134.324 46.0267 134.943 45.808 135.679 45.808H136.735L136.799 46.88H135.647C134.921 46.88 134.313 47.088 133.823 47.504V50.208H132.511ZM136.502 40.112V37.968H140.998L140.95 38.912H137.606V40.112H136.502ZM149.037 50.368C148.376 50.368 147.784 50.2133 147.261 49.904C146.739 49.5947 146.328 49.12 146.029 48.48C145.731 47.8293 145.581 46.992 145.581 45.968C145.581 44.5067 145.811 43.3813 146.269 42.592C146.739 41.8027 147.405 41.408 148.269 41.408C148.696 41.408 149.043 41.4827 149.309 41.632C149.576 41.7813 149.811 41.9893 150.013 42.256C150.248 41.9893 150.536 41.7813 150.877 41.632C151.229 41.4827 151.587 41.408 151.949 41.408C152.579 41.408 153.053 41.5947 153.373 41.968C153.693 42.3307 153.853 42.8587 153.853 43.552V50.208H152.541V43.728C152.541 43.28 152.472 42.9707 152.333 42.8C152.205 42.6187 151.955 42.528 151.581 42.528C151.347 42.528 151.128 42.5867 150.925 42.704C150.723 42.8107 150.563 43.0027 150.445 43.28H149.565C149.416 43.0027 149.261 42.8107 149.101 42.704C148.941 42.5867 148.717 42.528 148.429 42.528C147.821 42.528 147.411 42.8427 147.197 43.472C146.995 44.0907 146.893 44.9227 146.893 45.968C146.893 47.184 147.091 48.0373 147.485 48.528C147.891 49.008 148.483 49.248 149.261 49.248C149.464 49.248 149.661 49.2373 149.853 49.216C150.056 49.1947 150.227 49.1627 150.365 49.12V50.208C150.013 50.3147 149.571 50.368 149.037 50.368ZM155.769 50.208V49.104H156.953V50.208H155.769ZM161.43 50.368C160.886 50.368 160.395 50.2827 159.958 50.112C159.531 49.9307 159.19 49.6533 158.934 49.28C158.678 48.896 158.55 48.4 158.55 47.792C158.55 46.9813 158.822 46.3413 159.366 45.872C159.91 45.392 160.742 45.152 161.862 45.152H164.694V44.48C164.694 43.9893 164.619 43.6053 164.47 43.328C164.331 43.04 164.086 42.8373 163.734 42.72C163.382 42.592 162.891 42.528 162.262 42.528C161.782 42.528 161.307 42.56 160.838 42.624C160.379 42.688 159.931 42.7947 159.494 42.944V41.856C159.899 41.7173 160.363 41.6107 160.886 41.536C161.419 41.4507 161.958 41.408 162.502 41.408C162.779 41.408 163.041 41.424 163.286 41.456C163.531 41.4773 163.761 41.5147 163.974 41.568H166.726L166.662 42.64H165.51C165.691 42.8853 165.819 43.168 165.894 43.488C165.969 43.808 166.006 44.1707 166.006 44.576V50.208H164.694V46.24H161.942C161.217 46.24 160.683 46.3627 160.342 46.608C160.001 46.8427 159.83 47.2373 159.83 47.792C159.83 48.336 159.985 48.7147 160.294 48.928C160.603 49.1413 161.099 49.248 161.782 49.248C162.198 49.248 162.561 49.2053 162.87 49.12V50.208C162.689 50.2507 162.475 50.288 162.23 50.32C161.985 50.352 161.718 50.368 161.43 50.368ZM168.003 44.768V42.976H169.139V43.76H171.619L171.571 44.768H168.003ZM168.003 49.184V47.392H169.139V48.192H171.619L171.571 49.184H168.003ZM175.014 50.208C174.555 50.208 174.193 50.0693 173.926 49.792C173.67 49.504 173.542 49.1307 173.542 48.672V41.568H174.854V48.352C174.854 48.8747 175.105 49.136 175.606 49.136H176.518V50.208H175.014ZM181.569 50.368C180.907 50.368 180.315 50.2133 179.793 49.904C179.27 49.5947 178.859 49.12 178.561 48.48C178.262 47.8293 178.113 46.992 178.113 45.968C178.113 44.5067 178.342 43.3813 178.801 42.592C179.27 41.8027 179.937 41.408 180.801 41.408C181.227 41.408 181.574 41.4827 181.841 41.632C182.107 41.7813 182.342 41.9893 182.545 42.256C182.779 41.9893 183.067 41.7813 183.409 41.632C183.761 41.4827 184.118 41.408 184.481 41.408C185.11 41.408 185.585 41.5947 185.905 41.968C186.225 42.3307 186.385 42.8587 186.385 43.552V50.208H185.073V43.728C185.073 43.28 185.003 42.9707 184.865 42.8C184.737 42.6187 184.486 42.528 184.113 42.528C183.878 42.528 183.659 42.5867 183.457 42.704C183.254 42.8107 183.094 43.0027 182.977 43.28H182.097C181.947 43.0027 181.793 42.8107 181.633 42.704C181.473 42.5867 181.249 42.528 180.961 42.528C180.353 42.528 179.942 42.8427 179.729 43.472C179.526 44.0907 179.424 44.9227 179.424 45.968C179.424 47.184 179.622 48.0373 180.017 48.528C180.422 49.008 181.014 49.248 181.793 49.248C181.995 49.248 182.193 49.2373 182.385 49.216C182.587 49.1947 182.758 49.1627 182.897 49.12V50.208C182.545 50.3147 182.102 50.368 181.569 50.368ZM191.74 50.368C191.537 50.368 191.297 50.3573 191.02 50.336C190.753 50.3147 190.524 50.2667 190.332 50.192L187.9 44.272H189.18L191.228 49.248C192.241 49.3227 192.988 49.0613 193.468 48.464C193.959 47.8667 194.204 46.912 194.204 45.6C194.204 44.8533 194.135 44.2667 193.996 43.84C193.857 43.4027 193.623 43.0933 193.292 42.912C192.972 42.7307 192.519 42.64 191.932 42.64H191.372V41.568H192.076C193.303 41.568 194.183 41.8987 194.716 42.56C195.249 43.2107 195.516 44.2187 195.516 45.584C195.516 46.7147 195.345 47.632 195.004 48.336C194.673 49.04 194.225 49.5573 193.66 49.888C193.095 50.208 192.455 50.368 191.74 50.368ZM204.112 50.368C203.451 50.368 202.832 50.3093 202.256 50.192C201.68 50.064 201.195 49.92 200.8 49.76V45.408H203.968L204.032 46.48H202.112V48.928C202.389 49.024 202.699 49.104 203.04 49.168C203.392 49.2213 203.739 49.248 204.08 49.248C204.773 49.248 205.323 49.1413 205.728 48.928C206.144 48.7147 206.443 48.3627 206.624 47.872C206.816 47.3813 206.912 46.7253 206.912 45.904C206.912 45.0507 206.811 44.3787 206.608 43.888C206.416 43.3973 206.085 43.0507 205.616 42.848C205.157 42.6347 204.528 42.528 203.728 42.528C203.269 42.528 202.795 42.56 202.304 42.624C201.824 42.688 201.365 42.7947 200.928 42.944V41.856C201.355 41.7067 201.84 41.5947 202.384 41.52C202.939 41.4453 203.499 41.408 204.064 41.408C205.536 41.408 206.597 41.7867 207.248 42.544C207.899 43.2907 208.224 44.4107 208.224 45.904C208.224 47.3653 207.899 48.4747 207.248 49.232C206.597 49.9893 205.552 50.368 204.112 50.368ZM209.831 50.208V49.104H211.015V50.208H209.831ZM214.405 50.208C213.946 50.208 213.583 50.0693 213.317 49.792C213.061 49.504 212.933 49.1307 212.933 48.672V41.568H214.245V48.352C214.245 48.8747 214.495 49.136 214.997 49.136H215.909V50.208H214.405ZM222.223 50.368C221.519 50.368 220.922 50.2613 220.431 50.048C219.94 49.824 219.492 49.5307 219.087 49.168L219.007 50.208H217.823V41.568H219.135V48.064C219.466 48.4053 219.85 48.688 220.287 48.912C220.735 49.136 221.236 49.248 221.791 49.248C222.484 49.248 222.996 49.0933 223.327 48.784C223.658 48.4747 223.823 47.9627 223.823 47.248V41.568H225.135V47.264C225.135 48.2667 224.879 49.0347 224.367 49.568C223.855 50.1013 223.14 50.368 222.223 50.368ZM218.762 40.112L218.826 39.168H222.106V37.808H223.098V39.168H224.122V37.808H225.114V40.112H218.762ZM230.362 50.368C229.701 50.368 229.082 50.3093 228.506 50.192C227.93 50.064 227.445 49.92 227.05 49.76V45.408H230.218L230.282 46.48H228.362V48.928C228.639 49.024 228.949 49.104 229.29 49.168C229.642 49.2213 229.989 49.248 230.33 49.248C231.023 49.248 231.573 49.1413 231.978 48.928C232.394 48.7147 232.693 48.3627 232.874 47.872C233.066 47.3813 233.162 46.7253 233.162 45.904C233.162 45.0507 233.061 44.3787 232.858 43.888C232.666 43.3973 232.335 43.0507 231.866 42.848C231.407 42.6347 230.778 42.528 229.978 42.528C229.519 42.528 229.045 42.56 228.554 42.624C228.074 42.688 227.615 42.7947 227.178 42.944V41.856C227.605 41.7067 228.09 41.5947 228.634 41.52C229.189 41.4453 229.749 41.408 230.314 41.408C231.786 41.408 232.847 41.7867 233.498 42.544C234.149 43.2907 234.474 44.4107 234.474 45.904C234.474 47.3653 234.149 48.4747 233.498 49.232C232.847 49.9893 231.802 50.368 230.362 50.368ZM239.521 50.368C239.319 50.368 239.079 50.3573 238.801 50.336C238.535 50.3147 238.305 50.2667 238.113 50.192L235.681 44.272H236.961L239.009 49.248C240.023 49.3227 240.769 49.0613 241.249 48.464C241.74 47.8667 241.985 46.912 241.985 45.6C241.985 44.8533 241.916 44.2667 241.777 43.84C241.639 43.4027 241.404 43.0933 241.073 42.912C240.753 42.7307 240.3 42.64 239.713 42.64H239.153V41.568H239.857C241.084 41.568 241.964 41.8987 242.497 42.56C243.031 43.2107 243.297 44.2187 243.297 45.584C243.297 46.7147 243.127 47.632 242.785 48.336C242.455 49.04 242.007 49.5573 241.441 49.888C240.876 50.208 240.236 50.368 239.521 50.368ZM252.165 50.368C251.984 50.368 251.771 50.352 251.525 50.32C251.291 50.288 251.099 50.2453 250.949 50.192L249.605 46.608H248.581L248.645 45.536H250.453L251.845 49.248C252.347 49.2907 252.821 49.2107 253.269 49.008C253.717 48.7947 254.08 48.4267 254.357 47.904C254.635 47.3813 254.773 46.6773 254.773 45.792C254.773 44.992 254.667 44.352 254.453 43.872C254.24 43.392 253.893 43.0507 253.413 42.848C252.933 42.6347 252.283 42.528 251.461 42.528C251.035 42.528 250.581 42.56 250.101 42.624C249.632 42.688 249.179 42.7947 248.741 42.944V41.856C249.147 41.7173 249.611 41.6107 250.133 41.536C250.667 41.4507 251.227 41.408 251.813 41.408C253.296 41.408 254.379 41.7867 255.061 42.544C255.744 43.3013 256.085 44.384 256.085 45.792C256.085 46.7947 255.904 47.6373 255.541 48.32C255.179 48.992 254.699 49.504 254.101 49.856C253.515 50.1973 252.869 50.368 252.165 50.368ZM257.691 50.208V49.104H258.875V50.208H257.691ZM264.28 50.368C263.117 50.368 262.189 50.16 261.496 49.744C260.813 49.3173 260.472 48.6507 260.472 47.744C260.472 47.2427 260.584 46.8213 260.808 46.48C261.043 46.128 261.368 45.8667 261.784 45.696C261.421 45.5787 261.117 45.3653 260.872 45.056C260.637 44.7467 260.52 44.336 260.52 43.824C260.52 43.0133 260.76 42.4107 261.24 42.016C261.72 41.6107 262.333 41.408 263.08 41.408C263.368 41.408 263.619 41.424 263.832 41.456C264.045 41.488 264.237 41.5307 264.408 41.584V42.672C264.269 42.6187 264.104 42.5813 263.912 42.56C263.72 42.5387 263.523 42.528 263.32 42.528C262.851 42.528 262.483 42.6347 262.216 42.848C261.96 43.0507 261.832 43.376 261.832 43.824C261.832 44.2933 261.987 44.64 262.296 44.864C262.605 45.0773 263.011 45.184 263.512 45.184H264.424L264.504 46.176H263.464C262.899 46.176 262.477 46.3147 262.2 46.592C261.923 46.8587 261.784 47.2427 261.784 47.744C261.784 48.7467 262.6 49.248 264.232 49.248C265.053 49.248 265.667 49.0933 266.072 48.784C266.488 48.464 266.696 47.9573 266.696 47.264V41.568H268.008V47.04C268.008 48.1173 267.709 48.944 267.112 49.52C266.515 50.0853 265.571 50.368 264.28 50.368ZM269.925 44.768V42.976H271.061V43.76H273.541L273.493 44.768H269.925ZM269.925 49.184V47.392H271.061V48.192H273.541L273.493 49.184H269.925ZM278.024 50.368C277.48 50.368 276.989 50.2827 276.552 50.112C276.125 49.9307 275.784 49.6533 275.528 49.28C275.272 48.896 275.144 48.4 275.144 47.792C275.144 46.9813 275.416 46.3413 275.96 45.872C276.504 45.392 277.336 45.152 278.456 45.152H281.288V44.48C281.288 43.9893 281.213 43.6053 281.064 43.328C280.925 43.04 280.68 42.8373 280.328 42.72C279.976 42.592 279.485 42.528 278.856 42.528C278.376 42.528 277.901 42.56 277.432 42.624C276.973 42.688 276.525 42.7947 276.088 42.944V41.856C276.493 41.7173 276.957 41.6107 277.48 41.536C278.013 41.4507 278.552 41.408 279.096 41.408C280.312 41.408 281.197 41.664 281.752 42.176C282.317 42.6773 282.6 43.4773 282.6 44.576V50.208H281.288V46.24H278.536C277.81 46.24 277.277 46.3627 276.936 46.608C276.594 46.8427 276.424 47.2373 276.424 47.792C276.424 48.336 276.578 48.7147 276.888 48.928C277.197 49.1413 277.693 49.248 278.376 49.248C278.792 49.248 279.154 49.2053 279.464 49.12V50.208C279.282 50.2507 279.069 50.288 278.824 50.32C278.578 50.352 278.312 50.368 278.024 50.368ZM288.311 50.208V44.624C288.311 44.144 288.263 43.7493 288.167 43.44C288.071 43.1307 287.873 42.9013 287.575 42.752C287.287 42.6027 286.844 42.528 286.247 42.528C285.905 42.528 285.532 42.5653 285.127 42.64C284.732 42.7147 284.369 42.816 284.039 42.944V41.856C284.359 41.728 284.737 41.6213 285.175 41.536C285.612 41.4507 286.049 41.408 286.487 41.408C287.585 41.408 288.38 41.6533 288.871 42.144C289.372 42.624 289.623 43.4027 289.623 44.48V50.208H288.311ZM298.582 50.368C298.091 50.368 297.648 50.336 297.254 50.272C296.87 50.2187 296.523 50.1387 296.214 50.032V48.896C296.523 49.0027 296.864 49.088 297.238 49.152C297.622 49.216 298.048 49.248 298.518 49.248C299.563 49.248 300.32 48.9813 300.79 48.448C301.259 47.9147 301.494 47.2107 301.494 46.336V45.552C301.078 45.8507 300.614 46.0747 300.102 46.224C299.6 46.3733 299.142 46.448 298.726 46.448C297.552 46.448 296.678 46.16 296.102 45.584C295.526 45.008 295.238 44.1867 295.238 43.12C295.238 42.1067 295.547 41.2907 296.166 40.672C296.784 40.0533 297.723 39.744 298.982 39.744C300.219 39.744 301.152 40.0587 301.782 40.688C302.422 41.3067 302.742 42.2987 302.742 43.664V46.096C302.742 46.9493 302.571 47.696 302.23 48.336C301.899 48.976 301.419 49.4773 300.79 49.84C300.171 50.192 299.435 50.368 298.582 50.368ZM298.838 45.424C299.36 45.424 299.846 45.344 300.294 45.184C300.742 45.0133 301.142 44.8 301.494 44.544V43.296C301.494 41.6213 300.656 40.784 298.982 40.784C298.128 40.784 297.488 40.992 297.062 41.408C296.635 41.8133 296.422 42.3733 296.422 43.088C296.422 43.568 296.491 43.984 296.63 44.336C296.768 44.688 297.014 44.96 297.366 45.152C297.718 45.3333 298.208 45.424 298.838 45.424ZM307.131 50.368C306.662 50.368 306.171 50.3307 305.659 50.256C305.147 50.1813 304.726 50.0747 304.395 49.936V48.768C305.184 49.088 306.048 49.248 306.987 49.248C307.904 49.248 308.571 49.0773 308.987 48.736C309.414 48.3947 309.627 47.8613 309.627 47.136C309.627 46.4533 309.467 45.9413 309.147 45.6C308.838 45.2587 308.23 45.088 307.323 45.088H304.347V44.176L304.619 39.904H310.203L310.075 40.928H305.723L305.515 44.048H307.451C308.656 44.048 309.536 44.304 310.091 44.816C310.656 45.328 310.939 46.1013 310.939 47.136C310.939 48.1387 310.614 48.928 309.963 49.504C309.323 50.08 308.379 50.368 307.131 50.368ZM316.918 50.368C315.884 50.368 315.041 50.16 314.39 49.744C313.75 49.328 313.281 48.7307 312.982 47.952C312.684 47.1733 312.534 46.2507 312.534 45.184C312.534 44.032 312.673 43.0507 312.95 42.24C313.228 41.4293 313.686 40.8107 314.326 40.384C314.966 39.9573 315.83 39.744 316.918 39.744C317.996 39.744 318.854 39.9573 319.494 40.384C320.134 40.8107 320.593 41.4293 320.87 42.24C321.148 43.0507 321.286 44.032 321.286 45.184C321.286 46.2507 321.137 47.1733 320.838 47.952C320.55 48.7307 320.086 49.328 319.446 49.744C318.806 50.16 317.964 50.368 316.918 50.368ZM316.918 49.248C317.676 49.248 318.273 49.0827 318.71 48.752C319.158 48.4107 319.478 47.936 319.67 47.328C319.873 46.7093 319.974 45.9947 319.974 45.184C319.974 43.7867 319.75 42.72 319.302 41.984C318.865 41.2373 318.07 40.864 316.918 40.864C316.15 40.864 315.542 41.0293 315.094 41.36C314.646 41.6907 314.326 42.1813 314.134 42.832C313.942 43.472 313.846 44.256 313.846 45.184C313.846 45.9947 313.942 46.7093 314.134 47.328C314.337 47.936 314.662 48.4107 315.11 48.752C315.569 49.0827 316.172 49.248 316.918 49.248ZM327.278 50.368C326.243 50.368 325.4 50.16 324.75 49.744C324.11 49.328 323.64 48.7307 323.342 47.952C323.043 47.1733 322.894 46.2507 322.894 45.184C322.894 44.032 323.032 43.0507 323.31 42.24C323.587 41.4293 324.046 40.8107 324.686 40.384C325.326 39.9573 326.19 39.744 327.278 39.744C328.355 39.744 329.214 39.9573 329.854 40.384C330.494 40.8107 330.952 41.4293 331.23 42.24C331.507 43.0507 331.646 44.032 331.646 45.184C331.646 46.2507 331.496 47.1733 331.198 47.952C330.91 48.7307 330.446 49.328 329.806 49.744C329.166 50.16 328.323 50.368 327.278 50.368ZM327.278 49.248C328.035 49.248 328.632 49.0827 329.07 48.752C329.518 48.4107 329.838 47.936 330.03 47.328C330.232 46.7093 330.334 45.9947 330.334 45.184C330.334 43.7867 330.11 42.72 329.662 41.984C329.224 41.2373 328.43 40.864 327.278 40.864C326.51 40.864 325.902 41.0293 325.454 41.36C325.006 41.6907 324.686 42.1813 324.494 42.832C324.302 43.472 324.206 44.256 324.206 45.184C324.206 45.9947 324.302 46.7093 324.494 47.328C324.696 47.936 325.022 48.4107 325.47 48.752C325.928 49.0827 326.531 49.248 327.278 49.248ZM337.637 50.368C336.602 50.368 335.76 50.16 335.109 49.744C334.469 49.328 334 48.7307 333.701 47.952C333.402 47.1733 333.253 46.2507 333.253 45.184C333.253 44.032 333.392 43.0507 333.669 42.24C333.946 41.4293 334.405 40.8107 335.045 40.384C335.685 39.9573 336.549 39.744 337.637 39.744C338.714 39.744 339.573 39.9573 340.213 40.384C340.853 40.8107 341.312 41.4293 341.589 42.24C341.866 43.0507 342.005 44.032 342.005 45.184C342.005 46.2507 341.856 47.1733 341.557 47.952C341.269 48.7307 340.805 49.328 340.165 49.744C339.525 50.16 338.682 50.368 337.637 50.368ZM337.637 49.248C338.394 49.248 338.992 49.0827 339.429 48.752C339.877 48.4107 340.197 47.936 340.389 47.328C340.592 46.7093 340.693 45.9947 340.693 45.184C340.693 43.7867 340.469 42.72 340.021 41.984C339.584 41.2373 338.789 40.864 337.637 40.864C336.869 40.864 336.261 41.0293 335.813 41.36C335.365 41.6907 335.045 42.1813 334.853 42.832C334.661 43.472 334.565 44.256 334.565 45.184C334.565 45.9947 334.661 46.7093 334.853 47.328C335.056 47.936 335.381 48.4107 335.829 48.752C336.288 49.0827 336.89 49.248 337.637 49.248Z" fill="white"/>
</svg>
