<svg width="716" height="25" viewBox="0 0 716 25" fill="none" xmlns="http://www.w3.org/2000/svg">
<path d="M21.7799 4.8907L18.9272 2.0407C18.579 1.69248 18.1129 1.49695 17.6201 1.49695C17.1272 1.49695 16.6611 1.68981 16.3129 2.0407L13.2406 5.10766C12.8924 5.45588 12.6968 5.92463 12.6968 6.41748C12.6968 6.91302 12.8897 7.37641 13.2406 7.72731L15.6406 10.13C15.0939 11.4039 14.3083 12.5613 13.3263 13.5398C12.3433 14.5282 11.1942 15.3077 9.91917 15.8594L7.51917 13.4568C7.17095 13.1086 6.70488 12.913 6.21203 12.913C5.96893 12.9121 5.72809 12.9598 5.50364 13.0531C5.27918 13.1465 5.07562 13.2837 4.90488 13.4568L1.82988 16.5237C1.48167 16.8719 1.28613 17.3407 1.28613 17.8336C1.28613 18.3291 1.47899 18.7925 1.82988 19.1434L4.67988 21.9934C5.27453 22.588 6.09417 22.9282 6.93524 22.9282C7.10935 22.9282 7.2781 22.9148 7.44953 22.8853C10.996 22.3014 14.5156 20.413 17.3576 17.5737C20.1968 14.7291 22.0826 11.2094 22.6718 7.66034C22.8406 6.6532 22.5031 5.61659 21.7799 4.8907ZM20.7727 7.34159C20.2504 10.4996 18.5522 13.6496 15.9942 16.2077C13.4361 18.7657 10.2888 20.4639 7.13078 20.9862C6.73435 21.0532 6.3272 20.9193 6.03792 20.6327L3.23881 17.8336L6.20667 14.863L9.4156 18.0773L9.4397 18.1014L10.0183 17.8871C11.7725 17.2421 13.3656 16.2234 14.687 14.9015C16.0084 13.5797 17.0266 11.9863 17.671 10.2318L17.8852 9.6532L14.6495 6.42016L17.6174 3.44963L20.4165 6.24873C20.7058 6.53802 20.8397 6.94516 20.7727 7.34159Z" fill="#F7B60E"/>
<path d="M49.184 18.368C48.1493 18.368 47.3067 18.16 46.656 17.744C46.016 17.328 45.5467 16.7307 45.248 15.952C44.9493 15.1733 44.8 14.2507 44.8 13.184C44.8 12.032 44.9387 11.0507 45.216 10.24C45.4933 9.42934 45.952 8.81067 46.592 8.38401C47.232 7.95734 48.096 7.74401 49.184 7.74401C50.2613 7.74401 51.12 7.95734 51.76 8.38401C52.4 8.81067 52.8587 9.42934 53.136 10.24C53.4133 11.0507 53.552 12.032 53.552 13.184C53.552 14.2507 53.4027 15.1733 53.104 15.952C52.816 16.7307 52.352 17.328 51.712 17.744C51.072 18.16 50.2293 18.368 49.184 18.368ZM49.184 17.248C49.9413 17.248 50.5387 17.0827 50.976 16.752C51.424 16.4107 51.744 15.936 51.936 15.328C52.1387 14.7093 52.24 13.9947 52.24 13.184C52.24 11.7867 52.016 10.72 51.568 9.98401C51.1307 9.23734 50.336 8.86401 49.184 8.86401C48.416 8.86401 47.808 9.02934 47.36 9.36001C46.912 9.69067 46.592 10.1813 46.4 10.832C46.208 11.472 46.112 12.256 46.112 13.184C46.112 13.9947 46.208 14.7093 46.4 15.328C46.6027 15.936 46.928 16.4107 47.376 16.752C47.8347 17.0827 48.4373 17.248 49.184 17.248ZM55.1594 14.432V13.392H61.1914V14.432H55.1594ZM64.0164 18.208L67.9364 8.92801H62.6244V7.90401H69.3124V8.81601L65.3444 18.208H64.0164ZM73.5211 18.368C73.0518 18.368 72.5505 18.3253 72.0171 18.24C71.4838 18.1547 71.0625 18.0533 70.7531 17.936V16.784C71.1585 16.944 71.5798 17.0613 72.0171 17.136C72.4545 17.2107 72.9025 17.248 73.3611 17.248C74.2785 17.248 74.9558 17.1093 75.3931 16.832C75.8411 16.5547 76.0651 16.0693 76.0651 15.376C76.0651 14.7147 75.8571 14.2347 75.4411 13.936C75.0251 13.6373 74.4438 13.488 73.6971 13.488H72.2091L72.3371 12.496H73.5691C74.3371 12.496 74.9078 12.3307 75.2811 12C75.6545 11.6587 75.8411 11.184 75.8411 10.576C75.8411 9.98934 75.6438 9.55734 75.2491 9.28001C74.8651 9.00267 74.2465 8.86401 73.3931 8.86401C72.9665 8.86401 72.5345 8.90667 72.0971 8.99201C71.6705 9.07734 71.2865 9.18934 70.9451 9.32801V8.19201C71.2438 8.07467 71.6331 7.97334 72.1131 7.88801C72.6038 7.79201 73.0891 7.74401 73.5691 7.74401C74.7958 7.74401 75.6971 8.01067 76.2731 8.54401C76.8598 9.06667 77.1531 9.73867 77.1531 10.56C77.1531 11.0827 77.0145 11.5733 76.7371 12.032C76.4705 12.48 76.0385 12.7947 75.4411 12.976C76.1238 13.1253 76.6145 13.424 76.9131 13.872C77.2225 14.3093 77.3771 14.8107 77.3771 15.376C77.3771 16.3787 77.0305 17.1307 76.3371 17.632C75.6438 18.1227 74.7051 18.368 73.5211 18.368ZM78.9719 18.208V17.504C79.2492 16.832 79.6439 16.2187 80.1559 15.664C80.6679 15.1093 81.2172 14.5867 81.8039 14.096C82.3905 13.6053 82.8439 13.1947 83.1639 12.864C83.4945 12.5227 83.7239 12.1973 83.8519 11.888C83.9799 11.568 84.0439 11.1947 84.0439 10.768C84.0439 10.1493 83.8839 9.68001 83.5639 9.36001C83.2439 9.02934 82.6465 8.86401 81.7719 8.86401C81.3772 8.86401 80.9719 8.90667 80.5559 8.99201C80.1399 9.06667 79.7452 9.17867 79.3719 9.32801V8.16001C79.7132 8.04267 80.1239 7.94667 80.6039 7.87201C81.0839 7.78667 81.5425 7.74401 81.9799 7.74401C83.0892 7.74401 83.9265 8.01601 84.4919 8.56001C85.0679 9.09334 85.3559 9.82934 85.3559 10.768C85.3559 11.28 85.2652 11.7333 85.0839 12.128C84.9025 12.512 84.6519 12.88 84.3319 13.232C84.0119 13.5733 83.6385 13.936 83.2119 14.32C82.6892 14.7787 82.1879 15.232 81.7079 15.68C81.2385 16.1173 80.8652 16.6187 80.5879 17.184H85.4679V18.208H78.9719ZM91.4496 18.368C90.415 18.368 89.5723 18.16 88.9216 17.744C88.2816 17.328 87.8123 16.7307 87.5136 15.952C87.215 15.1733 87.0656 14.2507 87.0656 13.184C87.0656 12.032 87.2043 11.0507 87.4816 10.24C87.759 9.42934 88.2176 8.81067 88.8576 8.38401C89.4976 7.95734 90.3616 7.74401 91.4496 7.74401C92.527 7.74401 93.3856 7.95734 94.0256 8.38401C94.6656 8.81067 95.1243 9.42934 95.4016 10.24C95.679 11.0507 95.8176 12.032 95.8176 13.184C95.8176 14.2507 95.6683 15.1733 95.3696 15.952C95.0816 16.7307 94.6176 17.328 93.9776 17.744C93.3376 18.16 92.495 18.368 91.4496 18.368ZM91.4496 17.248C92.207 17.248 92.8043 17.0827 93.2416 16.752C93.6896 16.4107 94.0096 15.936 94.2016 15.328C94.4043 14.7093 94.5056 13.9947 94.5056 13.184C94.5056 11.7867 94.2816 10.72 93.8336 9.98401C93.3963 9.23734 92.6016 8.86401 91.4496 8.86401C90.6816 8.86401 90.0736 9.02934 89.6256 9.36001C89.1776 9.69067 88.8576 10.1813 88.6656 10.832C88.4736 11.472 88.3776 12.256 88.3776 13.184C88.3776 13.9947 88.4736 14.7093 88.6656 15.328C88.8683 15.936 89.1936 16.4107 89.6416 16.752C90.1003 17.0827 90.703 17.248 91.4496 17.248ZM97.425 14.432V13.392H103.457V14.432H97.425ZM107.818 18.368C107.349 18.368 106.847 18.3253 106.314 18.24C105.781 18.1547 105.359 18.0533 105.05 17.936V16.784C105.455 16.944 105.877 17.0613 106.314 17.136C106.751 17.2107 107.199 17.248 107.658 17.248C108.575 17.248 109.253 17.1093 109.69 16.832C110.138 16.5547 110.362 16.0693 110.362 15.376C110.362 14.7147 110.154 14.2347 109.738 13.936C109.322 13.6373 108.741 13.488 107.994 13.488H106.506L106.634 12.496H107.866C108.634 12.496 109.205 12.3307 109.578 12C109.951 11.6587 110.138 11.184 110.138 10.576C110.138 9.98934 109.941 9.55734 109.546 9.28001C109.162 9.00267 108.543 8.86401 107.69 8.86401C107.263 8.86401 106.831 8.90667 106.394 8.99201C105.967 9.07734 105.583 9.18934 105.242 9.32801V8.19201C105.541 8.07467 105.93 7.97334 106.41 7.88801C106.901 7.79201 107.386 7.74401 107.866 7.74401C109.093 7.74401 109.994 8.01067 110.57 8.54401C111.157 9.06667 111.45 9.73867 111.45 10.56C111.45 11.0827 111.311 11.5733 111.034 12.032C110.767 12.48 110.335 12.7947 109.738 12.976C110.421 13.1253 110.911 13.424 111.21 13.872C111.519 14.3093 111.674 14.8107 111.674 15.376C111.674 16.3787 111.327 17.1307 110.634 17.632C109.941 18.1227 109.002 18.368 107.818 18.368ZM117.141 18.368C115.882 18.368 114.922 18.128 114.261 17.648C113.599 17.1573 113.269 16.4373 113.269 15.488C113.269 14.8693 113.434 14.3253 113.765 13.856C114.106 13.3867 114.602 13.0613 115.253 12.88C114.655 12.688 114.223 12.3893 113.957 11.984C113.69 11.568 113.557 11.1147 113.557 10.624C113.557 9.74934 113.855 9.05067 114.453 8.52801C115.05 8.00534 115.946 7.74401 117.141 7.74401C118.378 7.74401 119.285 8.00534 119.861 8.52801C120.437 9.05067 120.725 9.74934 120.725 10.624C120.725 11.136 120.591 11.6107 120.325 12.048C120.069 12.4853 119.61 12.816 118.949 13.04C119.674 13.2213 120.197 13.5147 120.517 13.92C120.847 14.3253 121.013 14.848 121.013 15.488C121.013 16.4373 120.682 17.1573 120.021 17.648C119.37 18.128 118.41 18.368 117.141 18.368ZM117.589 12.624C118.25 12.464 118.741 12.24 119.061 11.952C119.381 11.6533 119.541 11.216 119.541 10.64C119.541 10.032 119.333 9.57334 118.917 9.26401C118.511 8.94401 117.919 8.78401 117.141 8.78401C116.373 8.78401 115.781 8.93867 115.365 9.24801C114.949 9.54667 114.741 10.0053 114.741 10.624C114.741 11.0827 114.885 11.4667 115.173 11.776C115.461 12.0747 115.861 12.2773 116.373 12.384L117.589 12.624ZM117.141 17.328C118.933 17.328 119.829 16.7093 119.829 15.472C119.829 14.9067 119.658 14.496 119.317 14.24C118.986 13.9733 118.506 13.776 117.877 13.648L116.485 13.36C115.866 13.488 115.37 13.712 114.997 14.032C114.634 14.3413 114.453 14.816 114.453 15.456C114.453 16.096 114.682 16.5707 115.141 16.88C115.599 17.1787 116.266 17.328 117.141 17.328ZM123.845 18.208L127.765 8.92801H122.453V7.90401H129.141V8.81601L125.173 18.208H123.845ZM130.581 18.208V17.504C130.859 16.832 131.253 16.2187 131.765 15.664C132.277 15.1093 132.827 14.5867 133.413 14.096C134 13.6053 134.453 13.1947 134.773 12.864C135.104 12.5227 135.333 12.1973 135.461 11.888C135.589 11.568 135.653 11.1947 135.653 10.768C135.653 10.1493 135.493 9.68001 135.173 9.36001C134.853 9.02934 134.256 8.86401 133.381 8.86401C132.987 8.86401 132.581 8.90667 132.165 8.99201C131.749 9.06667 131.355 9.17867 130.981 9.32801V8.16001C131.323 8.04267 131.733 7.94667 132.213 7.87201C132.693 7.78667 133.152 7.74401 133.589 7.74401C134.699 7.74401 135.536 8.01601 136.101 8.56001C136.677 9.09334 136.965 9.82934 136.965 10.768C136.965 11.28 136.875 11.7333 136.693 12.128C136.512 12.512 136.261 12.88 135.941 13.232C135.621 13.5733 135.248 13.936 134.821 14.32C134.299 14.7787 133.797 15.232 133.317 15.68C132.848 16.1173 132.475 16.6187 132.197 17.184H137.077V18.208H130.581Z" fill="white"/>
<path d="M199.78 4.8907L196.927 2.0407C196.579 1.69248 196.113 1.49695 195.62 1.49695C195.127 1.49695 194.661 1.68981 194.313 2.0407L191.241 5.10766C190.892 5.45588 190.697 5.92463 190.697 6.41748C190.697 6.91302 190.89 7.37641 191.241 7.72731L193.641 10.13C193.094 11.4039 192.308 12.5613 191.326 13.5398C190.343 14.5282 189.194 15.3077 187.919 15.8594L185.519 13.4568C185.171 13.1086 184.705 12.913 184.212 12.913C183.969 12.9121 183.728 12.9598 183.504 13.0531C183.279 13.1465 183.076 13.2837 182.905 13.4568L179.83 16.5237C179.482 16.8719 179.286 17.3407 179.286 17.8336C179.286 18.3291 179.479 18.7925 179.83 19.1434L182.68 21.9934C183.275 22.588 184.094 22.9282 184.935 22.9282C185.109 22.9282 185.278 22.9148 185.45 22.8853C188.996 22.3014 192.516 20.413 195.358 17.5737C198.197 14.7291 200.083 11.2094 200.672 7.66034C200.841 6.6532 200.503 5.61659 199.78 4.8907ZM198.773 7.34159C198.25 10.4996 196.552 13.6496 193.994 16.2077C191.436 18.7657 188.289 20.4639 185.131 20.9862C184.734 21.0532 184.327 20.9193 184.038 20.6327L181.239 17.8336L184.207 14.863L187.416 18.0773L187.44 18.1014L188.018 17.8871C189.773 17.2421 191.366 16.2234 192.687 14.9015C194.008 13.5797 195.027 11.9863 195.671 10.2318L195.885 9.6532L192.65 6.42016L195.617 3.44963L198.416 6.24873C198.706 6.53802 198.84 6.94516 198.773 7.34159Z" fill="#F7B60E"/>
<path d="M224.432 18.208V9.02401L222.8 9.31201V8.20801L225.744 7.74401V18.208H224.432ZM231.531 18.368C230.273 18.368 229.313 18.128 228.651 17.648C227.99 17.1573 227.659 16.4373 227.659 15.488C227.659 14.8693 227.825 14.3253 228.155 13.856C228.497 13.3867 228.993 13.0613 229.643 12.88C229.046 12.688 228.614 12.3893 228.347 11.984C228.081 11.568 227.947 11.1147 227.947 10.624C227.947 9.74934 228.246 9.05067 228.843 8.52801C229.441 8.00534 230.337 7.74401 231.531 7.74401C232.769 7.74401 233.675 8.00534 234.251 8.52801C234.827 9.05067 235.115 9.74934 235.115 10.624C235.115 11.136 234.982 11.6107 234.715 12.048C234.459 12.4853 234.001 12.816 233.339 13.04C234.065 13.2213 234.587 13.5147 234.907 13.92C235.238 14.3253 235.403 14.848 235.403 15.488C235.403 16.4373 235.073 17.1573 234.411 17.648C233.761 18.128 232.801 18.368 231.531 18.368ZM231.979 12.624C232.641 12.464 233.131 12.24 233.451 11.952C233.771 11.6533 233.931 11.216 233.931 10.64C233.931 10.032 233.723 9.57334 233.307 9.26401C232.902 8.94401 232.31 8.78401 231.531 8.78401C230.763 8.78401 230.171 8.93867 229.755 9.24801C229.339 9.54667 229.131 10.0053 229.131 10.624C229.131 11.0827 229.275 11.4667 229.563 11.776C229.851 12.0747 230.251 12.2773 230.763 12.384L231.979 12.624ZM231.531 17.328C233.323 17.328 234.219 16.7093 234.219 15.472C234.219 14.9067 234.049 14.496 233.707 14.24C233.377 13.9733 232.897 13.776 232.267 13.648L230.875 13.36C230.257 13.488 229.761 13.712 229.387 14.032C229.025 14.3413 228.843 14.816 228.843 15.456C228.843 16.096 229.073 16.5707 229.531 16.88C229.99 17.1787 230.657 17.328 231.531 17.328ZM240.875 18.368C239.616 18.368 238.656 18.128 237.995 17.648C237.334 17.1573 237.003 16.4373 237.003 15.488C237.003 14.8693 237.168 14.3253 237.499 13.856C237.84 13.3867 238.336 13.0613 238.987 12.88C238.39 12.688 237.958 12.3893 237.691 11.984C237.424 11.568 237.291 11.1147 237.291 10.624C237.291 9.74934 237.59 9.05067 238.187 8.52801C238.784 8.00534 239.68 7.74401 240.875 7.74401C242.112 7.74401 243.019 8.00534 243.595 8.52801C244.171 9.05067 244.459 9.74934 244.459 10.624C244.459 11.136 244.326 11.6107 244.059 12.048C243.803 12.4853 243.344 12.816 242.683 13.04C243.408 13.2213 243.931 13.5147 244.251 13.92C244.582 14.3253 244.747 14.848 244.747 15.488C244.747 16.4373 244.416 17.1573 243.755 17.648C243.104 18.128 242.144 18.368 240.875 18.368ZM241.323 12.624C241.984 12.464 242.475 12.24 242.795 11.952C243.115 11.6533 243.275 11.216 243.275 10.64C243.275 10.032 243.067 9.57334 242.651 9.26401C242.246 8.94401 241.654 8.78401 240.875 8.78401C240.107 8.78401 239.515 8.93867 239.099 9.24801C238.683 9.54667 238.475 10.0053 238.475 10.624C238.475 11.0827 238.619 11.4667 238.907 11.776C239.195 12.0747 239.595 12.2773 240.107 12.384L241.323 12.624ZM240.875 17.328C242.667 17.328 243.563 16.7093 243.563 15.472C243.563 14.9067 243.392 14.496 243.051 14.24C242.72 13.9733 242.24 13.776 241.611 13.648L240.219 13.36C239.6 13.488 239.104 13.712 238.731 14.032C238.368 14.3413 238.187 14.816 238.187 15.456C238.187 16.096 238.416 16.5707 238.875 16.88C239.334 17.1787 240 17.328 240.875 17.328ZM250.731 18.368C249.696 18.368 248.854 18.16 248.203 17.744C247.563 17.328 247.094 16.7307 246.795 15.952C246.496 15.1733 246.347 14.2507 246.347 13.184C246.347 12.032 246.486 11.0507 246.763 10.24C247.04 9.42934 247.499 8.81067 248.139 8.38401C248.779 7.95734 249.643 7.74401 250.731 7.74401C251.808 7.74401 252.667 7.95734 253.307 8.38401C253.947 8.81067 254.406 9.42934 254.683 10.24C254.96 11.0507 255.099 12.032 255.099 13.184C255.099 14.2507 254.95 15.1733 254.651 15.952C254.363 16.7307 253.899 17.328 253.259 17.744C252.619 18.16 251.776 18.368 250.731 18.368ZM250.731 17.248C251.488 17.248 252.086 17.0827 252.523 16.752C252.971 16.4107 253.291 15.936 253.483 15.328C253.686 14.7093 253.787 13.9947 253.787 13.184C253.787 11.7867 253.563 10.72 253.115 9.98401C252.678 9.23734 251.883 8.86401 250.731 8.86401C249.963 8.86401 249.355 9.02934 248.907 9.36001C248.459 9.69067 248.139 10.1813 247.947 10.832C247.755 11.472 247.659 12.256 247.659 13.184C247.659 13.9947 247.755 14.7093 247.947 15.328C248.15 15.936 248.475 16.4107 248.923 16.752C249.382 17.0827 249.984 17.248 250.731 17.248ZM263.274 18.368C262.73 18.368 262.239 18.2827 261.802 18.112C261.375 17.9307 261.034 17.6533 260.778 17.28C260.522 16.896 260.394 16.4 260.394 15.792C260.394 14.9813 260.666 14.3413 261.21 13.872C261.754 13.392 262.586 13.152 263.706 13.152H266.538V12.48C266.538 11.9893 266.463 11.6053 266.314 11.328C266.175 11.04 265.93 10.8373 265.578 10.72C265.226 10.592 264.735 10.528 264.106 10.528C263.626 10.528 263.151 10.56 262.682 10.624C262.223 10.688 261.775 10.7947 261.338 10.944V9.85601C261.743 9.71734 262.207 9.61067 262.73 9.53601C263.263 9.45067 263.802 9.40801 264.346 9.40801C264.623 9.40801 264.884 9.42401 265.13 9.45601C265.375 9.47734 265.604 9.51467 265.818 9.56801H268.57L268.506 10.64H267.354C267.535 10.8853 267.663 11.168 267.738 11.488C267.812 11.808 267.85 12.1707 267.85 12.576V18.208H266.538V14.24H263.786C263.06 14.24 262.527 14.3627 262.186 14.608C261.844 14.8427 261.674 15.2373 261.674 15.792C261.674 16.336 261.828 16.7147 262.138 16.928C262.447 17.1413 262.943 17.248 263.626 17.248C264.042 17.248 264.404 17.2053 264.714 17.12V18.208C264.532 18.2507 264.319 18.288 264.074 18.32C263.828 18.352 263.562 18.368 263.274 18.368ZM273.639 18.208V12.624C273.639 12.144 273.591 11.7493 273.495 11.44C273.399 11.1307 273.202 10.9013 272.903 10.752C272.615 10.6027 272.172 10.528 271.575 10.528C271.234 10.528 270.86 10.5653 270.455 10.64C270.06 10.7147 269.698 10.816 269.367 10.944V9.85601C269.687 9.72801 270.066 9.62134 270.503 9.53601C270.94 9.45067 271.378 9.40801 271.815 9.40801C272.914 9.40801 273.708 9.65334 274.199 10.144C274.7 10.624 274.951 11.4027 274.951 12.48V18.208H273.639ZM280.686 18.368C279.523 18.368 278.595 18.16 277.902 17.744C277.219 17.3173 276.878 16.6507 276.878 15.744C276.878 15.2427 276.99 14.8213 277.214 14.48C277.449 14.128 277.774 13.8667 278.19 13.696C277.827 13.5787 277.523 13.3653 277.278 13.056C277.043 12.7467 276.926 12.336 276.926 11.824C276.926 11.0133 277.166 10.4107 277.646 10.016C278.126 9.61067 278.739 9.40801 279.486 9.40801C279.774 9.40801 280.025 9.42401 280.238 9.45601C280.451 9.48801 280.643 9.53067 280.814 9.58401V10.672C280.675 10.6187 280.51 10.5813 280.318 10.56C280.126 10.5387 279.929 10.528 279.726 10.528C279.257 10.528 278.889 10.6347 278.622 10.848C278.366 11.0507 278.238 11.376 278.238 11.824C278.238 12.2933 278.393 12.64 278.702 12.864C279.011 13.0773 279.417 13.184 279.918 13.184H280.83L280.91 14.176H279.87C279.305 14.176 278.883 14.3147 278.606 14.592C278.329 14.8587 278.19 15.2427 278.19 15.744C278.19 16.7467 279.006 17.248 280.638 17.248C281.459 17.248 282.073 17.0933 282.478 16.784C282.894 16.464 283.102 15.9573 283.102 15.264V9.56801H284.414V15.04C284.414 16.1173 284.115 16.944 283.518 17.52C282.921 18.0853 281.977 18.368 280.686 18.368ZM289.787 18.368C289.126 18.368 288.534 18.2133 288.011 17.904C287.489 17.5947 287.078 17.12 286.779 16.48C286.481 15.8293 286.331 14.992 286.331 13.968C286.331 12.56 286.683 11.4507 287.387 10.64C288.091 9.81867 289.179 9.40801 290.651 9.40801C291.59 9.40801 292.347 9.57334 292.923 9.90401C293.51 10.224 293.937 10.6453 294.203 11.168C294.47 11.6907 294.603 12.2507 294.603 12.848V18.208H293.291V12.864C293.291 12.416 293.206 12.016 293.035 11.664C292.865 11.312 292.582 11.0347 292.187 10.832C291.803 10.6293 291.281 10.528 290.619 10.528C289.553 10.528 288.79 10.8267 288.331 11.424C287.873 12.0213 287.643 12.8693 287.643 13.968C287.643 15.184 287.841 16.0373 288.235 16.528C288.641 17.008 289.233 17.248 290.011 17.248C290.214 17.248 290.411 17.2373 290.603 17.216C290.806 17.1947 290.977 17.1627 291.115 17.12V18.208C290.763 18.3147 290.321 18.368 289.787 18.368ZM293.303 8.11201V5.52001H294.615V8.11201H293.303ZM298.935 18.368C298.017 18.368 297.212 18.2187 296.519 17.92V16.816C296.828 16.944 297.164 17.0507 297.527 17.136C297.9 17.2107 298.268 17.248 298.631 17.248C299.42 17.248 300.033 17.136 300.471 16.912C300.908 16.6773 301.217 16.3147 301.399 15.824C301.58 15.3333 301.671 14.688 301.671 13.888C301.671 12.6933 301.436 11.8347 300.967 11.312C300.497 10.7893 299.703 10.528 298.583 10.528C298.209 10.528 297.852 10.5653 297.511 10.64C297.169 10.7147 296.839 10.8267 296.519 10.976V9.85601C296.849 9.70667 297.196 9.59467 297.559 9.52001C297.932 9.44534 298.364 9.40801 298.855 9.40801C300.252 9.40801 301.287 9.78667 301.959 10.544C302.641 11.3013 302.983 12.416 302.983 13.888C302.983 15.3173 302.673 16.4213 302.055 17.2C301.436 17.9787 300.396 18.368 298.935 18.368ZM307.781 18.368C306.853 18.368 306.139 18.1013 305.637 17.568C305.147 17.0347 304.901 16.2667 304.901 15.264V9.56801H306.213V15.248C306.213 15.9627 306.373 16.4747 306.693 16.784C307.013 17.0933 307.52 17.248 308.213 17.248C308.757 17.248 309.259 17.136 309.717 16.912C310.176 16.688 310.571 16.4053 310.901 16.064V9.56801H312.213V18.208H311.029L310.949 17.168C310.555 17.5307 310.101 17.824 309.589 18.048C309.077 18.2613 308.475 18.368 307.781 18.368ZM318.136 18.208V12.608C318.136 11.584 318.434 10.7947 319.032 10.24C319.64 9.68534 320.589 9.40801 321.88 9.40801C322.157 9.40801 322.418 9.42401 322.664 9.45601C322.909 9.47734 323.138 9.51467 323.352 9.56801H326.392L326.328 10.64H325C325.213 10.896 325.362 11.1893 325.448 11.52C325.544 11.84 325.592 12.2027 325.592 12.608V18.208H324.28V12.464C324.28 11.7707 324.072 11.2747 323.656 10.976C323.25 10.6773 322.658 10.528 321.88 10.528C321.08 10.528 320.472 10.6773 320.056 10.976C319.65 11.2747 319.448 11.7707 319.448 12.464V14.464C319.949 14.0267 320.568 13.808 321.304 13.808H322.36L322.424 14.88H321.272C320.546 14.88 319.938 15.088 319.448 15.504V18.208H318.136ZM331.143 18.368C330.482 18.368 329.863 18.3093 329.287 18.192C328.711 18.064 328.226 17.92 327.831 17.76V13.408H330.999L331.063 14.48H329.143V16.928C329.421 17.024 329.73 17.104 330.071 17.168C330.423 17.2213 330.77 17.248 331.111 17.248C331.805 17.248 332.354 17.1413 332.759 16.928C333.175 16.7147 333.474 16.3627 333.655 15.872C333.847 15.3813 333.943 14.7253 333.943 13.904C333.943 13.0507 333.842 12.3787 333.639 11.888C333.447 11.3973 333.117 11.0507 332.647 10.848C332.189 10.6347 331.559 10.528 330.759 10.528C330.301 10.528 329.826 10.56 329.335 10.624C328.855 10.688 328.397 10.7947 327.959 10.944V9.85601C328.386 9.70667 328.871 9.59467 329.415 9.52001C329.97 9.44534 330.53 9.40801 331.095 9.40801C332.567 9.40801 333.629 9.78667 334.279 10.544C334.93 11.2907 335.255 12.4107 335.255 13.904C335.255 15.3653 334.93 16.4747 334.279 17.232C333.629 17.9893 332.583 18.368 331.143 18.368ZM336.863 18.208V17.104H338.047V18.208H336.863ZM343.756 18.368C342.54 18.368 341.601 18.08 340.94 17.504C340.289 16.928 339.964 16.0747 339.964 14.944V9.56801H341.276V15.04C341.276 15.8187 341.489 16.384 341.916 16.736C342.342 17.0773 342.956 17.248 343.756 17.248C344.556 17.248 345.169 17.0773 345.596 16.736C346.022 16.384 346.236 15.8187 346.236 15.04V9.56801H347.548V14.944C347.548 16.0747 347.217 16.928 346.556 17.504C345.905 18.08 344.972 18.368 343.756 18.368ZM352.928 18.368C352.267 18.368 351.675 18.2133 351.152 17.904C350.629 17.5947 350.219 17.12 349.92 16.48C349.621 15.8293 349.472 14.992 349.472 13.968C349.472 12.5067 349.701 11.3813 350.16 10.592C350.629 9.80267 351.296 9.40801 352.16 9.40801C352.587 9.40801 352.933 9.48267 353.2 9.63201C353.467 9.78134 353.701 9.98934 353.904 10.256C354.139 9.98934 354.427 9.78134 354.768 9.63201C355.12 9.48267 355.477 9.40801 355.84 9.40801C356.469 9.40801 356.944 9.59467 357.264 9.96801C357.584 10.3307 357.744 10.8587 357.744 11.552V18.208H356.432V11.728C356.432 11.28 356.363 10.9707 356.224 10.8C356.096 10.6187 355.845 10.528 355.472 10.528C355.237 10.528 355.019 10.5867 354.816 10.704C354.613 10.8107 354.453 11.0027 354.336 11.28H353.456C353.307 11.0027 353.152 10.8107 352.992 10.704C352.832 10.5867 352.608 10.528 352.32 10.528C351.712 10.528 351.301 10.8427 351.088 11.472C350.885 12.0907 350.784 12.9227 350.784 13.968C350.784 15.184 350.981 16.0373 351.376 16.528C351.781 17.008 352.373 17.248 353.152 17.248C353.355 17.248 353.552 17.2373 353.744 17.216C353.947 17.1947 354.117 17.1627 354.256 17.12V18.208C353.904 18.3147 353.461 18.368 352.928 18.368ZM359.659 18.208V17.104H360.843V18.208H359.659ZM368.32 19.36C367.776 18.8907 367.344 18.3253 367.024 17.664C366.704 17.0027 366.475 16.2987 366.336 15.552C366.197 14.7947 366.128 14.064 366.128 13.36C366.128 12.656 366.197 11.9307 366.336 11.184C366.475 10.4373 366.704 9.73334 367.024 9.07201C367.344 8.40001 367.776 7.82934 368.32 7.36001H369.808C368.965 8.07467 368.357 8.94401 367.984 9.96801C367.621 10.992 367.44 12.1227 367.44 13.36C367.44 14.608 367.621 15.7387 367.984 16.752C368.357 17.7653 368.965 18.6347 369.808 19.36H368.32ZM373.529 18.208C373.071 18.208 372.708 18.0693 372.441 17.792C372.185 17.504 372.057 17.1307 372.057 16.672V9.02401C372.057 8.29867 371.919 7.76534 371.641 7.42401C371.364 7.08267 370.937 6.79467 370.361 6.56001V5.50401H374.953V6.56001H372.025C372.367 6.74134 372.633 6.94934 372.825 7.18401C373.017 7.40801 373.156 7.70134 373.241 8.06401C373.327 8.41601 373.369 8.86934 373.369 9.42401V16.352C373.369 16.8747 373.62 17.136 374.121 17.136H375.033V18.208H373.529ZM376.479 18.208V9.56801H377.663L377.743 10.608C378.149 10.2453 378.602 9.95734 379.103 9.74401C379.615 9.52001 380.218 9.40801 380.911 9.40801C381.829 9.40801 382.538 9.67467 383.039 10.208C383.541 10.7413 383.791 11.504 383.791 12.496V18.208H382.479V12.512C382.479 11.808 382.314 11.3013 381.983 10.992C381.653 10.6827 381.141 10.528 380.447 10.528C379.893 10.528 379.391 10.6453 378.943 10.88C378.506 11.104 378.122 11.3867 377.791 11.728V18.208H376.479ZM388.762 18.368C388.229 18.368 387.706 18.3307 387.194 18.256C386.693 18.192 386.272 18.0907 385.93 17.952V16.784C386.336 16.944 386.768 17.0613 387.226 17.136C387.685 17.2107 388.122 17.248 388.538 17.248C389.317 17.248 389.898 17.1733 390.282 17.024C390.677 16.864 390.874 16.5227 390.874 16C390.874 15.6267 390.773 15.3493 390.57 15.168C390.378 14.976 390.101 14.8213 389.738 14.704C389.376 14.576 388.938 14.4267 388.426 14.256C387.957 14.096 387.514 13.92 387.098 13.728C386.682 13.5253 386.346 13.2693 386.09 12.96C385.834 12.6507 385.706 12.2453 385.706 11.744C385.706 10.9867 385.984 10.4107 386.538 10.016C387.104 9.61067 387.941 9.40801 389.05 9.40801C389.52 9.40801 389.984 9.44534 390.442 9.52001C390.901 9.59467 391.285 9.68534 391.594 9.79201V10.944C391.242 10.8053 390.858 10.704 390.442 10.64C390.037 10.5653 389.637 10.528 389.242 10.528C388.517 10.528 387.962 10.608 387.578 10.768C387.205 10.9173 387.018 11.232 387.018 11.712C387.018 12.0213 387.114 12.272 387.306 12.464C387.509 12.6453 387.792 12.8053 388.154 12.944C388.528 13.072 388.976 13.2213 389.498 13.392C390.021 13.5627 390.485 13.7547 390.89 13.968C391.296 14.1707 391.61 14.432 391.834 14.752C392.069 15.0613 392.186 15.472 392.186 15.984C392.186 16.848 391.872 17.4613 391.242 17.824C390.613 18.1867 389.786 18.368 388.762 18.368ZM395.608 18.208L393.624 9.56801H394.968L396.392 16.368L398.216 10.656V9.56801H399.192L401.144 16.368L403.112 7.00801H404.44L401.912 18.208H400.6L398.824 12.128L396.904 18.208H395.608ZM408.372 18.368C407.838 18.368 407.316 18.3307 406.804 18.256C406.302 18.192 405.881 18.0907 405.54 17.952V16.784C405.945 16.944 406.377 17.0613 406.836 17.136C407.294 17.2107 407.732 17.248 408.148 17.248C408.926 17.248 409.508 17.1733 409.892 17.024C410.286 16.864 410.484 16.5227 410.484 16C410.484 15.6267 410.382 15.3493 410.18 15.168C409.988 14.976 409.71 14.8213 409.348 14.704C408.985 14.576 408.548 14.4267 408.036 14.256C407.566 14.096 407.124 13.92 406.708 13.728C406.292 13.5253 405.956 13.2693 405.7 12.96C405.444 12.6507 405.316 12.2453 405.316 11.744C405.316 10.9867 405.593 10.4107 406.148 10.016C406.713 9.61067 407.55 9.40801 408.66 9.40801C409.129 9.40801 409.593 9.44534 410.052 9.52001C410.51 9.59467 410.894 9.68534 411.204 9.79201V10.944C410.852 10.8053 410.468 10.704 410.052 10.64C409.646 10.5653 409.246 10.528 408.852 10.528C408.126 10.528 407.572 10.608 407.188 10.768C406.814 10.9173 406.628 11.232 406.628 11.712C406.628 12.0213 406.724 12.272 406.916 12.464C407.118 12.6453 407.401 12.8053 407.764 12.944C408.137 13.072 408.585 13.2213 409.108 13.392C409.63 13.5627 410.094 13.7547 410.5 13.968C410.905 14.1707 411.22 14.432 411.444 14.752C411.678 15.0613 411.796 15.472 411.796 15.984C411.796 16.848 411.481 17.4613 410.852 17.824C410.222 18.1867 409.396 18.368 408.372 18.368ZM405.106 8.11201L405.17 7.16801H410.354V5.80801H411.458V8.11201H405.106ZM413.714 18.208V9.56801H414.898L414.978 10.608C415.383 10.2453 415.836 9.95734 416.338 9.74401C416.85 9.52001 417.452 9.40801 418.146 9.40801C419.063 9.40801 419.772 9.67467 420.274 10.208C420.775 10.7413 421.026 11.504 421.026 12.496V18.208H419.714V12.512C419.714 11.808 419.548 11.3013 419.218 10.992C418.887 10.6827 418.375 10.528 417.682 10.528C417.127 10.528 416.626 10.6453 416.178 10.88C415.74 11.104 415.356 11.3867 415.026 11.728V18.208H413.714ZM417.549 8.11201V6.00001H418.653V7.16801H422.957L422.893 8.11201H417.549ZM419.901 5.02401V2.80001H421.005V5.02401H419.901ZM425.357 18.368C424.439 18.368 423.634 18.2187 422.941 17.92V16.816C423.25 16.944 423.586 17.0507 423.949 17.136C424.322 17.2107 424.69 17.248 425.053 17.248C425.842 17.248 426.455 17.136 426.893 16.912C427.33 16.6773 427.639 16.3147 427.821 15.824C428.002 15.3333 428.093 14.688 428.093 13.888C428.093 12.6933 427.858 11.8347 427.389 11.312C426.919 10.7893 426.125 10.528 425.005 10.528C424.631 10.528 424.274 10.5653 423.933 10.64C423.591 10.7147 423.261 10.8267 422.941 10.976V9.85601C423.271 9.70667 423.618 9.59467 423.981 9.52001C424.354 9.44534 424.786 9.40801 425.277 9.40801C426.674 9.40801 427.709 9.78667 428.381 10.544C429.063 11.3013 429.405 12.416 429.405 13.888C429.405 15.3173 429.095 16.4213 428.477 17.2C427.858 17.9787 426.818 18.368 425.357 18.368ZM435.115 18.368C433.899 18.368 432.96 18.08 432.299 17.504C431.648 16.928 431.323 16.0747 431.323 14.944V9.56801H432.635V15.04C432.635 15.8187 432.848 16.384 433.275 16.736C433.702 17.0773 434.315 17.248 435.115 17.248C435.915 17.248 436.528 17.0773 436.955 16.736C437.382 16.384 437.595 15.8187 437.595 15.04V7.00801H438.907V14.944C438.907 16.0747 438.576 16.928 437.915 17.504C437.264 18.08 436.331 18.368 435.115 18.368ZM443.887 18.368C443.354 18.368 442.831 18.3307 442.319 18.256C441.818 18.192 441.397 18.0907 441.055 17.952V16.784C441.461 16.944 441.893 17.0613 442.351 17.136C442.81 17.2107 443.247 17.248 443.663 17.248C444.442 17.248 445.023 17.1733 445.407 17.024C445.802 16.864 445.999 16.5227 445.999 16C445.999 15.6267 445.898 15.3493 445.695 15.168C445.503 14.976 445.226 14.8213 444.863 14.704C444.501 14.576 444.063 14.4267 443.551 14.256C443.082 14.096 442.639 13.92 442.223 13.728C441.807 13.5253 441.471 13.2693 441.215 12.96C440.959 12.6507 440.831 12.2453 440.831 11.744C440.831 10.9867 441.109 10.4107 441.663 10.016C442.229 9.61067 443.066 9.40801 444.175 9.40801C444.645 9.40801 445.109 9.44534 445.567 9.52001C446.026 9.59467 446.41 9.68534 446.719 9.79201V10.944C446.367 10.8053 445.983 10.704 445.567 10.64C445.162 10.5653 444.762 10.528 444.367 10.528C443.642 10.528 443.087 10.608 442.703 10.768C442.33 10.9173 442.143 11.232 442.143 11.712C442.143 12.0213 442.239 12.272 442.431 12.464C442.634 12.6453 442.917 12.8053 443.279 12.944C443.653 13.072 444.101 13.2213 444.623 13.392C445.146 13.5627 445.61 13.7547 446.015 13.968C446.421 14.1707 446.735 14.432 446.959 14.752C447.194 15.0613 447.311 15.472 447.311 15.984C447.311 16.848 446.997 17.4613 446.367 17.824C445.738 18.1867 444.911 18.368 443.887 18.368ZM448.909 12.768V10.976H450.045V11.76H452.525L452.477 12.768H448.909ZM448.909 17.184V15.392H450.045V16.192H452.525L452.477 17.184H448.909ZM455.92 18.208C455.461 18.208 455.099 18.0693 454.832 17.792C454.576 17.504 454.448 17.1307 454.448 16.672V9.56801H455.76V16.352C455.76 16.8747 456.011 17.136 456.512 17.136H457.424V18.208H455.92ZM459.339 18.208V9.56801H460.523L460.603 10.608C461.008 10.2453 461.461 9.95734 461.963 9.74401C462.475 9.52001 463.077 9.40801 463.771 9.40801C464.688 9.40801 465.397 9.67467 465.899 10.208C466.4 10.7413 466.651 11.504 466.651 12.496V18.208H465.339V12.512C465.339 11.808 465.173 11.3013 464.843 10.992C464.512 10.6827 464 10.528 463.307 10.528C462.752 10.528 462.251 10.6453 461.803 10.88C461.365 11.104 460.981 11.3867 460.651 11.728V18.208H459.339ZM468.886 18.208V12.608C468.886 11.584 469.184 10.7947 469.782 10.24C470.39 9.68534 471.339 9.40801 472.63 9.40801C472.907 9.40801 473.168 9.42401 473.414 9.45601C473.659 9.47734 473.888 9.51467 474.102 9.56801H477.142L477.078 10.64H475.75C475.963 10.896 476.112 11.1893 476.198 11.52C476.294 11.84 476.342 12.2027 476.342 12.608V18.208H475.03V12.464C475.03 11.7707 474.822 11.2747 474.406 10.976C474 10.6773 473.408 10.528 472.63 10.528C471.83 10.528 471.222 10.6773 470.806 10.976C470.4 11.2747 470.198 11.7707 470.198 12.464V14.464C470.699 14.0267 471.318 13.808 472.054 13.808H473.11L473.174 14.88H472.022C471.296 14.88 470.688 15.088 470.198 15.504V18.208H468.886ZM478.261 19.36C479.115 18.6347 479.723 17.7653 480.085 16.752C480.448 15.7387 480.629 14.608 480.629 13.36C480.629 12.1227 480.448 10.992 480.085 9.96801C479.723 8.94401 479.115 8.07467 478.261 7.36001H479.765C480.309 7.82934 480.741 8.40001 481.061 9.07201C481.381 9.73334 481.605 10.4373 481.733 11.184C481.872 11.9307 481.941 12.656 481.941 13.36C481.941 14.064 481.872 14.7947 481.733 15.552C481.605 16.2987 481.381 17.0027 481.061 17.664C480.741 18.3253 480.309 18.8907 479.765 19.36H478.261Z" fill="white"/>
<g clip-path="url(#clip0_87494_6332)">
<path d="M546.143 2.77454H523.857C523.383 2.77454 523 3.15757 523 3.63168V20.7745C523 21.2486 523.383 21.6317 523.857 21.6317H546.143C546.617 21.6317 547 21.2486 547 20.7745V3.63168C547 3.15757 546.617 2.77454 546.143 2.77454ZM545.071 5.74239V19.7031H524.929V5.74239L524.189 5.1665L525.242 3.81382L526.388 4.70579H543.614L544.761 3.81382L545.813 5.1665L545.071 5.74239ZM543.614 4.70311L535 11.3995L526.386 4.70311L525.239 3.81114L524.187 5.16382L524.926 5.73972L534.076 12.854C534.339 13.0584 534.663 13.1694 534.996 13.1694C535.329 13.1694 535.653 13.0584 535.916 12.854L545.071 5.74239L545.811 5.1665L544.758 3.81382L543.614 4.70311Z" fill="#F7B60E"/>
</g>
<path d="M570.504 18.368C570.013 18.368 569.544 18.336 569.096 18.272C568.659 18.208 568.291 18.1227 567.992 18.016V16.864C568.355 16.992 568.733 17.088 569.128 17.152C569.533 17.216 569.933 17.248 570.328 17.248C571 17.248 571.48 17.1787 571.768 17.04C572.056 16.8907 572.2 16.6187 572.2 16.224C572.2 15.936 572.12 15.7173 571.96 15.568C571.811 15.4187 571.576 15.2853 571.256 15.168C570.947 15.0507 570.547 14.912 570.056 14.752C569.619 14.6027 569.229 14.448 568.888 14.288C568.547 14.128 568.28 13.9147 568.088 13.648C567.896 13.3707 567.8 13.0027 567.8 12.544C567.8 11.872 568.035 11.36 568.504 11.008C568.973 10.6453 569.731 10.464 570.776 10.464C571.181 10.464 571.571 10.496 571.944 10.56C572.317 10.6133 572.643 10.6827 572.92 10.768V11.92C572.248 11.696 571.603 11.584 570.984 11.584C570.323 11.584 569.843 11.6533 569.544 11.792C569.256 11.92 569.112 12.1653 569.112 12.528C569.112 12.7733 569.176 12.9707 569.304 13.12C569.443 13.2587 569.651 13.3813 569.928 13.488C570.216 13.584 570.584 13.7067 571.032 13.856C571.619 14.0373 572.093 14.224 572.456 14.416C572.819 14.608 573.085 14.8427 573.256 15.12C573.427 15.3973 573.512 15.76 573.512 16.208C573.512 16.9547 573.251 17.504 572.728 17.856C572.205 18.1973 571.464 18.368 570.504 18.368ZM577.55 18.368C577.07 18.368 576.627 18.2827 576.222 18.112C575.817 17.9413 575.491 17.6907 575.246 17.36C575.001 17.0187 574.878 16.592 574.878 16.08C574.878 15.3867 575.107 14.8213 575.566 14.384C576.025 13.936 576.771 13.712 577.806 13.712H580.446V13.248C580.446 12.832 580.387 12.5013 580.27 12.256C580.163 12.0107 579.955 11.8347 579.646 11.728C579.337 11.6213 578.883 11.568 578.286 11.568C577.827 11.568 577.385 11.6053 576.958 11.68C576.531 11.7547 576.131 11.856 575.758 11.984V10.896C576.099 10.768 576.499 10.6667 576.958 10.592C577.427 10.5067 577.929 10.464 578.462 10.464C579.539 10.464 580.345 10.6827 580.878 11.12C581.422 11.5573 581.694 12.2667 581.694 13.248V18.208H580.59L580.494 17.344C580.163 17.6853 579.763 17.9413 579.294 18.112C578.825 18.2827 578.243 18.368 577.55 18.368ZM577.886 17.296C578.441 17.296 578.931 17.2 579.358 17.008C579.785 16.8053 580.147 16.5333 580.446 16.192V14.72H577.838C577.241 14.72 576.814 14.832 576.558 15.056C576.302 15.28 576.174 15.6213 576.174 16.08C576.174 16.5387 576.329 16.8587 576.638 17.04C576.947 17.2107 577.363 17.296 577.886 17.296ZM583.854 18.208V10.624H585.038L585.134 11.584C585.508 11.3387 585.945 11.1147 586.446 10.912C586.958 10.7093 587.46 10.56 587.95 10.464V11.488C587.652 11.552 587.326 11.6427 586.974 11.76C586.622 11.8667 586.286 11.9893 585.966 12.128C585.646 12.2667 585.38 12.4107 585.166 12.56V18.208H583.854ZM591.253 18.368C590.773 18.368 590.331 18.2827 589.925 18.112C589.52 17.9413 589.195 17.6907 588.949 17.36C588.704 17.0187 588.581 16.592 588.581 16.08C588.581 15.3867 588.811 14.8213 589.269 14.384C589.728 13.936 590.475 13.712 591.509 13.712H594.149V13.248C594.149 12.832 594.091 12.5013 593.973 12.256C593.867 12.0107 593.659 11.8347 593.349 11.728C593.04 11.6213 592.587 11.568 591.989 11.568C591.531 11.568 591.088 11.6053 590.661 11.68C590.235 11.7547 589.835 11.856 589.461 11.984V10.896C589.803 10.768 590.203 10.6667 590.661 10.592C591.131 10.5067 591.632 10.464 592.165 10.464C593.243 10.464 594.048 10.6827 594.581 11.12C595.125 11.5573 595.397 12.2667 595.397 13.248V18.208H594.293L594.197 17.344C593.867 17.6853 593.467 17.9413 592.997 18.112C592.528 18.2827 591.947 18.368 591.253 18.368ZM591.589 17.296C592.144 17.296 592.635 17.2 593.061 17.008C593.488 16.8053 593.851 16.5333 594.149 16.192V14.72H591.541C590.944 14.72 590.517 14.832 590.261 15.056C590.005 15.28 589.877 15.6213 589.877 16.08C589.877 16.5387 590.032 16.8587 590.341 17.04C590.651 17.2107 591.067 17.296 591.589 17.296ZM601.414 18.368C600.848 18.368 600.352 18.2933 599.926 18.144C599.51 17.984 599.126 17.7387 598.774 17.408L598.678 18.208H597.558V7.42401H598.87V11.184C599.563 10.704 600.406 10.464 601.398 10.464C602.475 10.464 603.318 10.7733 603.926 11.392C604.534 12 604.838 12.9867 604.838 14.352C604.838 15.728 604.534 16.7413 603.926 17.392C603.318 18.0427 602.48 18.368 601.414 18.368ZM601.078 17.312C601.963 17.312 602.592 17.0667 602.966 16.576C603.339 16.0853 603.526 15.344 603.526 14.352C603.526 13.3173 603.323 12.5867 602.918 12.16C602.523 11.7333 601.899 11.52 601.046 11.52C600.587 11.52 600.176 11.5893 599.814 11.728C599.451 11.856 599.136 12.0373 598.87 12.272V16.4C599.158 16.7093 599.488 16.9387 599.862 17.088C600.235 17.2373 600.64 17.312 601.078 17.312ZM609.035 18.368C608.555 18.368 608.112 18.2827 607.707 18.112C607.301 17.9413 606.976 17.6907 606.731 17.36C606.485 17.0187 606.363 16.592 606.363 16.08C606.363 15.3867 606.592 14.8213 607.051 14.384C607.509 13.936 608.256 13.712 609.291 13.712H611.931V13.248C611.931 12.832 611.872 12.5013 611.755 12.256C611.648 12.0107 611.44 11.8347 611.131 11.728C610.821 11.6213 610.368 11.568 609.771 11.568C609.312 11.568 608.869 11.6053 608.443 11.68C608.016 11.7547 607.616 11.856 607.243 11.984V10.896C607.584 10.768 607.984 10.6667 608.443 10.592C608.912 10.5067 609.413 10.464 609.947 10.464C611.024 10.464 611.829 10.6827 612.363 11.12C612.907 11.5573 613.179 12.2667 613.179 13.248V18.208H612.075L611.979 17.344C611.648 17.6853 611.248 17.9413 610.779 18.112C610.309 18.2827 609.728 18.368 609.035 18.368ZM609.371 17.296C609.925 17.296 610.416 17.2 610.843 17.008C611.269 16.8053 611.632 16.5333 611.931 16.192V14.72H609.323C608.725 14.72 608.299 14.832 608.043 15.056C607.787 15.28 607.659 15.6213 607.659 16.08C607.659 16.5387 607.813 16.8587 608.123 17.04C608.432 17.2107 608.848 17.296 609.371 17.296ZM615.339 18.208V10.624H616.523L616.603 11.488C616.965 11.1893 617.387 10.944 617.867 10.752C618.357 10.56 618.917 10.464 619.547 10.464C620.507 10.464 621.205 10.688 621.643 11.136C622.08 11.584 622.299 12.288 622.299 13.248V18.208H620.987V13.296C620.987 12.6347 620.853 12.176 620.587 11.92C620.32 11.6533 619.808 11.52 619.051 11.52C618.581 11.52 618.139 11.6053 617.723 11.776C617.307 11.9467 616.949 12.1813 616.651 12.48V18.208H615.339ZM629.6 20.32C628.832 20.32 628.117 20.2293 627.456 20.048C626.794 19.8773 626.213 19.5893 625.712 19.184C625.221 18.7893 624.837 18.2667 624.56 17.616C624.282 16.9653 624.144 16.16 624.144 15.2C624.144 13.3333 624.634 11.968 625.616 11.104C626.608 10.24 628 9.80801 629.792 9.80801C631.456 9.80801 632.709 10.1813 633.552 10.928C634.405 11.6747 634.832 12.7573 634.832 14.176C634.832 15.2 634.602 16.0267 634.144 16.656C633.696 17.2853 632.981 17.6 632 17.6H631.728C631.44 17.888 631.088 18.112 630.672 18.272C630.256 18.4427 629.749 18.528 629.152 18.528C628.437 18.528 627.861 18.3467 627.424 17.984C626.986 17.6213 626.768 17.1307 626.768 16.512C626.768 16.128 626.848 15.7707 627.008 15.44C627.168 15.1093 627.424 14.8427 627.776 14.64C628.128 14.4373 628.597 14.336 629.184 14.336H631.216V14.016C631.216 13.6427 631.168 13.3547 631.072 13.152C630.976 12.9493 630.805 12.8107 630.56 12.736C630.314 12.6507 629.962 12.608 629.504 12.608C629.184 12.608 628.853 12.6347 628.512 12.688C628.17 12.7413 627.845 12.8213 627.536 12.928V12.064C627.813 11.9467 628.144 11.8613 628.528 11.808C628.922 11.744 629.328 11.712 629.744 11.712C630.576 11.712 631.194 11.8987 631.6 12.272C632.005 12.6347 632.208 13.2107 632.208 14V16.656C632.762 16.656 633.152 16.4533 633.376 16.048C633.61 15.632 633.728 15.008 633.728 14.176C633.728 13.0347 633.413 12.1973 632.784 11.664C632.165 11.1307 631.168 10.864 629.792 10.864C628.266 10.864 627.125 11.1947 626.368 11.856C625.621 12.5067 625.248 13.6267 625.248 15.216C625.248 16.2827 625.434 17.1093 625.808 17.696C626.192 18.2827 626.709 18.688 627.36 18.912C628.01 19.1467 628.746 19.264 629.568 19.264C630.741 19.264 631.664 19.1627 632.336 18.96V20.032C632.005 20.1067 631.605 20.1707 631.136 20.224C630.666 20.288 630.154 20.32 629.6 20.32ZM629.264 17.664C630.149 17.664 630.8 17.392 631.216 16.848V15.216H629.344C628.725 15.216 628.309 15.3333 628.096 15.568C627.893 15.8027 627.792 16.1227 627.792 16.528C627.792 16.9333 627.909 17.2267 628.144 17.408C628.389 17.5787 628.762 17.664 629.264 17.664ZM639.129 18.368C638.638 18.368 638.169 18.336 637.721 18.272C637.284 18.208 636.916 18.1227 636.617 18.016V16.864C636.98 16.992 637.358 17.088 637.753 17.152C638.158 17.216 638.558 17.248 638.953 17.248C639.625 17.248 640.105 17.1787 640.393 17.04C640.681 16.8907 640.825 16.6187 640.825 16.224C640.825 15.936 640.745 15.7173 640.585 15.568C640.436 15.4187 640.201 15.2853 639.881 15.168C639.572 15.0507 639.172 14.912 638.681 14.752C638.244 14.6027 637.854 14.448 637.513 14.288C637.172 14.128 636.905 13.9147 636.713 13.648C636.521 13.3707 636.425 13.0027 636.425 12.544C636.425 11.872 636.66 11.36 637.129 11.008C637.598 10.6453 638.356 10.464 639.401 10.464C639.806 10.464 640.196 10.496 640.569 10.56C640.942 10.6133 641.268 10.6827 641.545 10.768V11.92C640.873 11.696 640.228 11.584 639.609 11.584C638.948 11.584 638.468 11.6533 638.169 11.792C637.881 11.92 637.737 12.1653 637.737 12.528C637.737 12.7733 637.801 12.9707 637.929 13.12C638.068 13.2587 638.276 13.3813 638.553 13.488C638.841 13.584 639.209 13.7067 639.657 13.856C640.244 14.0373 640.718 14.224 641.081 14.416C641.444 14.608 641.71 14.8427 641.881 15.12C642.052 15.3973 642.137 15.76 642.137 16.208C642.137 16.9547 641.876 17.504 641.353 17.856C640.83 18.1973 640.089 18.368 639.129 18.368ZM647.914 18.368C647.348 18.368 646.852 18.2933 646.426 18.144C646.01 17.984 645.626 17.7387 645.274 17.408L645.178 18.208H644.058V7.42401H645.37V11.184C646.063 10.704 646.906 10.464 647.898 10.464C648.975 10.464 649.818 10.7733 650.426 11.392C651.034 12 651.338 12.9867 651.338 14.352C651.338 15.728 651.034 16.7413 650.426 17.392C649.818 18.0427 648.98 18.368 647.914 18.368ZM647.578 17.312C648.463 17.312 649.092 17.0667 649.466 16.576C649.839 16.0853 650.026 15.344 650.026 14.352C650.026 13.3173 649.823 12.5867 649.418 12.16C649.023 11.7333 648.399 11.52 647.546 11.52C647.087 11.52 646.676 11.5893 646.314 11.728C645.951 11.856 645.636 12.0373 645.37 12.272V16.4C645.658 16.7093 645.988 16.9387 646.362 17.088C646.735 17.2373 647.14 17.312 647.578 17.312ZM653.261 21.664V10.624H654.381L654.477 11.424C654.829 11.0933 655.213 10.8533 655.629 10.704C656.055 10.544 656.551 10.464 657.117 10.464C658.183 10.464 659.021 10.7627 659.629 11.36C660.237 11.9467 660.541 12.928 660.541 14.304C660.541 15.6693 660.237 16.688 659.629 17.36C659.021 18.032 658.178 18.368 657.101 18.368C656.109 18.368 655.266 18.128 654.573 17.648V21.664H653.261ZM656.749 17.312C657.602 17.312 658.226 17.072 658.621 16.592C659.026 16.1013 659.229 15.3387 659.229 14.304C659.229 13.312 659.042 12.6027 658.669 12.176C658.295 11.7387 657.666 11.52 656.781 11.52C656.343 11.52 655.938 11.5947 655.565 11.744C655.191 11.8933 654.861 12.1227 654.573 12.432V16.56C654.839 16.7947 655.154 16.9813 655.517 17.12C655.879 17.248 656.29 17.312 656.749 17.312ZM664.738 18.368C664.258 18.368 663.815 18.2827 663.41 18.112C663.004 17.9413 662.679 17.6907 662.434 17.36C662.188 17.0187 662.066 16.592 662.066 16.08C662.066 15.3867 662.295 14.8213 662.754 14.384C663.212 13.936 663.959 13.712 664.994 13.712H667.634V13.248C667.634 12.832 667.575 12.5013 667.458 12.256C667.351 12.0107 667.143 11.8347 666.834 11.728C666.524 11.6213 666.071 11.568 665.474 11.568C665.015 11.568 664.572 11.6053 664.146 11.68C663.719 11.7547 663.319 11.856 662.946 11.984V10.896C663.287 10.768 663.687 10.6667 664.146 10.592C664.615 10.5067 665.116 10.464 665.65 10.464C666.727 10.464 667.532 10.6827 668.066 11.12C668.61 11.5573 668.882 12.2667 668.882 13.248V18.208H667.778L667.682 17.344C667.351 17.6853 666.951 17.9413 666.482 18.112C666.012 18.2827 665.431 18.368 664.738 18.368ZM665.074 17.296C665.628 17.296 666.119 17.2 666.546 17.008C666.972 16.8053 667.335 16.5333 667.634 16.192V14.72H665.026C664.428 14.72 664.002 14.832 663.746 15.056C663.49 15.28 663.362 15.6213 663.362 16.08C663.362 16.5387 663.516 16.8587 663.826 17.04C664.135 17.2107 664.551 17.296 665.074 17.296ZM674.626 18.368C673.303 18.368 672.322 18.0267 671.682 17.344C671.042 16.6507 670.722 15.6747 670.722 14.416C670.722 13.0827 671.085 12.0907 671.81 11.44C672.535 10.7893 673.511 10.464 674.738 10.464C675.239 10.464 675.655 10.5013 675.986 10.576C676.317 10.64 676.637 10.7467 676.946 10.896V11.936C676.37 11.6587 675.714 11.52 674.978 11.52C674.039 11.52 673.314 11.744 672.802 12.192C672.29 12.6293 672.034 13.3707 672.034 14.416C672.034 15.4187 672.258 16.1547 672.706 16.624C673.154 17.0827 673.895 17.312 674.93 17.312C675.666 17.312 676.343 17.1733 676.962 16.896V17.952C676.631 18.0907 676.274 18.192 675.89 18.256C675.517 18.3307 675.095 18.368 674.626 18.368ZM678.113 18.208V17.104H679.297V18.208H678.113ZM684.158 21.024C683.592 21.024 683.038 20.992 682.494 20.928C681.96 20.864 681.502 20.7627 681.118 20.624V19.536C681.544 19.6747 682.024 19.7813 682.558 19.856C683.091 19.9307 683.603 19.968 684.094 19.968C684.894 19.968 685.48 19.92 685.854 19.824C686.227 19.728 686.414 19.4827 686.414 19.088C686.414 18.8107 686.312 18.6133 686.11 18.496C685.918 18.3787 685.571 18.32 685.07 18.32H683.054C681.656 18.32 680.958 17.8507 680.958 16.912C680.958 16.6027 681.054 16.3093 681.246 16.032C681.448 15.744 681.747 15.5413 682.142 15.424C681.715 15.2107 681.4 14.9173 681.198 14.544C680.995 14.16 680.894 13.7067 680.894 13.184C680.894 12.2347 681.166 11.5467 681.71 11.12C682.264 10.6827 683.107 10.464 684.238 10.464C684.472 10.464 684.712 10.4853 684.958 10.528C685.214 10.56 685.411 10.592 685.55 10.624H688.286L688.238 11.52H686.862C687.107 11.7227 687.283 11.968 687.39 12.256C687.496 12.5333 687.55 12.8427 687.55 13.184C687.55 14.0267 687.304 14.6827 686.814 15.152C686.323 15.6107 685.571 15.84 684.558 15.84C684.387 15.84 684.232 15.8347 684.094 15.824C683.966 15.8027 683.811 15.7813 683.63 15.76C683.299 15.7707 682.99 15.8667 682.702 16.048C682.414 16.2187 682.27 16.4427 682.27 16.72C682.27 16.9013 682.339 17.0347 682.478 17.12C682.627 17.2053 682.894 17.248 683.278 17.248H685.374C686.131 17.248 686.712 17.4027 687.118 17.712C687.523 18.0107 687.726 18.4533 687.726 19.04C687.726 19.7867 687.416 20.304 686.798 20.592C686.179 20.88 685.299 21.024 684.158 21.024ZM684.238 14.848C684.995 14.848 685.518 14.7253 685.806 14.48C686.094 14.2347 686.238 13.8027 686.238 13.184C686.238 12.5653 686.083 12.1173 685.774 11.84C685.475 11.5627 684.963 11.424 684.238 11.424C683.523 11.424 683.006 11.5573 682.686 11.824C682.366 12.0907 682.206 12.544 682.206 13.184C682.206 13.7707 682.355 14.1973 682.654 14.464C682.963 14.72 683.491 14.848 684.238 14.848ZM693.123 18.368C691.801 18.368 690.835 18.032 690.227 17.36C689.63 16.6773 689.331 15.696 689.331 14.416C689.331 13.1467 689.635 12.1707 690.243 11.488C690.851 10.8053 691.811 10.464 693.123 10.464C694.435 10.464 695.395 10.8053 696.003 11.488C696.611 12.1707 696.915 13.1467 696.915 14.416C696.915 15.696 696.617 16.6773 696.019 17.36C695.422 18.032 694.457 18.368 693.123 18.368ZM693.123 17.248C694.03 17.248 694.67 17.024 695.043 16.576C695.417 16.1173 695.603 15.3973 695.603 14.416C695.603 13.4347 695.411 12.72 695.027 12.272C694.654 11.8133 694.019 11.584 693.123 11.584C692.227 11.584 691.587 11.8133 691.203 12.272C690.83 12.72 690.643 13.4347 690.643 14.416C690.643 15.3973 690.83 16.1173 691.203 16.576C691.577 17.024 692.217 17.248 693.123 17.248ZM698.519 18.208V17.104H699.703V18.208H698.519ZM704.388 18.368C703.641 18.368 703.076 18.1707 702.692 17.776C702.319 17.3707 702.132 16.8107 702.132 16.096V11.664H700.98V10.624H702.132V8.75201L703.444 8.35201V10.624H705.54L705.46 11.664H703.444V16.032C703.444 16.4907 703.545 16.8213 703.748 17.024C703.961 17.216 704.324 17.312 704.836 17.312C705.113 17.312 705.417 17.2587 705.748 17.152V18.144C705.353 18.2933 704.9 18.368 704.388 18.368ZM707.261 18.208V7.42401H708.573V11.44C708.925 11.152 709.335 10.9173 709.805 10.736C710.285 10.5547 710.839 10.464 711.469 10.464C712.386 10.464 713.074 10.688 713.533 11.136C713.991 11.584 714.221 12.288 714.221 13.248V18.208H712.909V13.296C712.909 12.6347 712.759 12.176 712.461 11.92C712.173 11.6533 711.693 11.52 711.021 11.52C710.594 11.52 710.151 11.616 709.693 11.808C709.245 11.9893 708.871 12.2293 708.573 12.528V18.208H707.261Z" fill="white"/>
<defs>
<clipPath id="clip0_87494_6332">
<rect width="24" height="24" fill="white" transform="translate(523 0.208008)"/>
</clipPath>
</defs>
</svg>
