<svg width="36" height="36" viewBox="0 0 36 36" fill="none" xmlns="http://www.w3.org/2000/svg">
<path d="M30.2143 28.2808H29.25V14.6201C29.25 8.95093 25.0594 4.26611 19.6071 3.48665V1.9237C19.6071 1.03576 18.8879 0.316559 18 0.316559C17.1121 0.316559 16.3929 1.03576 16.3929 1.9237V3.48665C10.9406 4.26611 6.75 8.95093 6.75 14.6201V28.2808H5.78571C5.07455 28.2808 4.5 28.8554 4.5 29.5666V30.8523C4.5 31.0291 4.64464 31.1737 4.82143 31.1737H13.5C13.5 33.6567 15.517 35.6737 18 35.6737C20.483 35.6737 22.5 33.6567 22.5 31.1737H31.1786C31.3554 31.1737 31.5 31.0291 31.5 30.8523V29.5666C31.5 28.8554 30.9254 28.2808 30.2143 28.2808ZM18 33.1023C16.9353 33.1023 16.0714 32.2384 16.0714 31.1737H19.9286C19.9286 32.2384 19.0647 33.1023 18 33.1023ZM9.64286 28.2808V14.6201C9.64286 12.3862 10.5107 10.2889 12.0897 8.70986C13.6688 7.13085 15.7661 6.26299 18 6.26299C20.2339 6.26299 22.3313 7.13085 23.9103 8.70986C25.4893 10.2889 26.3571 12.3862 26.3571 14.6201V28.2808H9.64286Z" fill="white"/>
</svg>
