<svg width="591" height="37" viewBox="0 0 591 37" fill="none" xmlns="http://www.w3.org/2000/svg">
<path d="M0 27.435V16.3351C0 14.1704 0.662682 12.4474 1.98805 11.1662C3.3355 9.86292 5.48922 9.21129 8.4492 9.21129C9.04561 9.21129 9.59785 9.24442 10.1059 9.31069C10.6361 9.35487 11.1331 9.43218 11.5969 9.54263H18.5551L18.3232 12.9554H15.9706C16.2799 13.353 16.5008 13.8611 16.6333 14.4796C16.788 15.076 16.8653 15.6945 16.8653 16.3351V27.435H12.3922V16.0038C12.3922 14.8993 12.0387 14.071 11.3319 13.5187C10.6471 12.9665 9.68621 12.6904 8.4492 12.6904C5.79847 12.6904 4.4731 13.7948 4.4731 16.0038V19.2178C4.8928 18.9085 5.35668 18.6545 5.86474 18.4557C6.39488 18.2569 6.96921 18.1575 7.58771 18.1575H9.74143L9.87397 21.7028H7.48831C6.86981 21.7028 6.31757 21.7912 5.8316 21.9679C5.34564 22.1225 4.8928 22.3545 4.4731 22.6637V27.435H0Z" fill="white"/>
<path d="M12.2928 36.1825C10.9453 36.1825 9.88501 35.9174 9.11188 35.3872C8.33875 34.8571 7.95219 34.1834 7.95219 33.3661V31.8088H6.12981L6.29548 29.1249H11.0668V32.3058C11.0668 33.0126 11.4754 33.3661 12.2928 33.3661C13.1322 33.3661 13.5519 33.0126 13.5519 32.3058V29.1249H16.7327V32.6371C16.7327 33.587 16.3793 34.4153 15.6724 35.1222C14.9656 35.829 13.839 36.1825 12.2928 36.1825Z" fill="white"/>
<path d="M27.8756 27.7664C25.9538 27.7664 24.4407 27.1921 23.3363 26.0434C22.2318 24.8727 21.6795 23.2491 21.6795 21.1727V9.54263H26.1527V20.9076C26.1527 22.1225 26.4177 22.9951 26.9479 23.5252C27.5001 24.0333 28.3064 24.2873 29.3667 24.2873C30.2061 24.2873 31.0234 24.1106 31.8186 23.7572C32.6138 23.4037 33.2544 22.9619 33.7404 22.4318V9.54263H38.2135V27.435H34.1048L33.906 25.6789C33.1108 26.3195 32.2162 26.8276 31.2222 27.2031C30.2281 27.5786 29.1126 27.7664 27.8756 27.7664Z" fill="white"/>
<path d="M49.849 27.7664C48.2806 27.7664 46.8448 27.5897 45.5415 27.2362C44.2383 26.8828 43.2001 26.2864 42.4269 25.447C41.6538 24.5855 41.2672 23.4369 41.2672 22.0011C41.2672 21.2279 41.444 20.499 41.7974 19.8142C42.1729 19.1073 42.7472 18.5441 43.5204 18.1244C42.8798 17.8372 42.3496 17.3844 41.9299 16.7659C41.5323 16.1474 41.3335 15.3963 41.3335 14.5127C41.3335 12.7677 41.8857 11.4534 42.9902 10.5698C44.0947 9.66412 45.5195 9.21129 47.2645 9.21129C47.9493 9.21129 48.5347 9.25546 49.0206 9.34382C49.5066 9.41009 49.9484 9.52054 50.346 9.67516V12.9554C49.7054 12.7787 48.9433 12.6904 48.0597 12.6904C47.2424 12.6904 46.6239 12.8339 46.2042 13.1211C45.7845 13.3862 45.5747 13.8501 45.5747 14.5127C45.5747 15.2417 45.8066 15.7498 46.2705 16.0369C46.7344 16.302 47.4302 16.4345 48.3579 16.4345H50.2135L50.3791 19.7148H48.3248C46.4472 19.7148 45.5084 20.4769 45.5084 22.0011C45.5084 22.7521 45.8397 23.3264 46.5024 23.724C47.1872 24.0995 48.2365 24.2873 49.6502 24.2873C51.086 24.2873 52.1463 23.9891 52.831 23.3927C53.5158 22.7963 53.8582 21.9348 53.8582 20.8082V9.54263H58.3313V20.4106C58.3313 22.9951 57.5913 24.8727 56.1113 26.0434C54.6534 27.1921 52.566 27.7664 49.849 27.7664Z" fill="white"/>
<path d="M49.8298 7.0907V1.88865H59.9689L59.8363 4.93698H53.4746V7.0907H49.8298Z" fill="white"/>
<path d="M69.0145 27.7664C67.5345 27.7664 66.1539 27.6339 64.8727 27.3688C63.5915 27.0816 62.5091 26.7503 61.6256 26.3748V16.9647H69.2133L69.4121 20.2449H65.8667V23.8566C66.2864 23.9891 66.7834 24.0995 67.3578 24.1879C67.9542 24.2542 68.5175 24.2873 69.0476 24.2873C70.8589 24.2873 72.1291 23.8566 72.858 22.9951C73.587 22.1336 73.9515 20.6536 73.9515 18.5551C73.9515 17.053 73.7527 15.8823 73.355 15.0429C72.9795 14.1814 72.35 13.5739 71.4664 13.2205C70.6049 12.8671 69.4231 12.6904 67.9211 12.6904C66.9491 12.6904 65.933 12.7677 64.8727 12.9223C63.8345 13.0548 62.8294 13.2757 61.8575 13.585V10.2384C62.8515 9.9071 63.9891 9.65307 65.2703 9.47636C66.5515 9.29964 67.7996 9.21129 69.0145 9.21129C72.2395 9.21129 74.57 10.0175 76.0058 11.6301C77.4637 13.2205 78.1926 15.5289 78.1926 18.5551C78.1926 21.5151 77.4637 23.7903 76.0058 25.3807C74.57 26.9712 72.2395 27.7664 69.0145 27.7664Z" fill="white"/>
<path d="M75.2509 7.65398C74.1465 7.65398 73.2077 7.30055 72.4345 6.59369C71.6393 5.86474 71.2417 4.94803 71.2417 3.84356C71.2417 2.73909 71.6393 1.82238 72.4345 1.09343C73.2077 0.364476 74.1465 0 75.2509 0C76.3554 0 77.2942 0.364476 78.0673 1.09343C78.8405 1.82238 79.227 2.73909 79.227 3.84356C79.227 4.94803 78.8405 5.86474 78.0673 6.59369C77.2942 7.30055 76.3554 7.65398 75.2509 7.65398ZM75.2509 5.30146C75.6486 5.30146 75.9909 5.15788 76.2781 4.87072C76.5653 4.56146 76.7088 4.21908 76.7088 3.84356C76.7088 3.44595 76.5653 3.10356 76.2781 2.8164C75.9909 2.50715 75.6486 2.35252 75.2509 2.35252C74.8533 2.35252 74.5109 2.50715 74.2238 2.8164C73.9145 3.10356 73.7599 3.44595 73.7599 3.84356C73.7599 4.21908 73.9145 4.56146 74.2238 4.87072C74.5109 5.15788 74.8533 5.30146 75.2509 5.30146Z" fill="white"/>
<path d="M87.6431 27.435V16.4345C87.6431 15.2417 87.4112 14.325 86.9473 13.6844C86.4834 13.0217 85.5557 12.6904 84.164 12.6904C83.4351 12.6904 82.6619 12.7787 81.8446 12.9554C81.0273 13.1101 80.2984 13.3089 79.6578 13.5519V10.2716C80.3205 9.96233 81.1378 9.7083 82.1097 9.50949C83.0816 9.31069 84.0536 9.21129 85.0255 9.21129C87.5437 9.21129 89.355 9.75248 90.4595 10.8349C91.564 11.8951 92.1162 13.5519 92.1162 15.805V27.435H87.6431Z" fill="white"/>
<path d="M102.266 27.7664C100.344 27.7664 98.8307 27.1921 97.7262 26.0434C96.6218 24.8727 96.0695 23.2491 96.0695 21.1727V9.54263H100.543V20.9076C100.543 22.1225 100.808 22.9951 101.338 23.5252C101.89 24.0333 102.696 24.2873 103.757 24.2873C104.596 24.2873 105.413 24.1106 106.209 23.7572C107.004 23.4037 107.644 22.9619 108.13 22.4318V9.54263H112.603V27.435H108.495L108.296 25.6789C107.501 26.3195 106.606 26.8276 105.612 27.2031C104.618 27.5786 103.503 27.7664 102.266 27.7664Z" fill="white"/>
<path d="M121.058 27.7664C118.915 27.7664 117.016 27.413 115.359 26.7061V23.2933C116.044 23.5804 116.784 23.8234 117.579 24.0222C118.374 24.1989 119.18 24.2873 119.998 24.2873C122.074 24.2873 123.554 23.8566 124.438 22.9951C125.343 22.1336 125.796 20.6315 125.796 18.4888C125.796 16.3462 125.343 14.8441 124.438 13.9826C123.554 13.1211 122.074 12.6904 119.998 12.6904C119.18 12.6904 118.374 12.7787 117.579 12.9554C116.784 13.1322 116.044 13.3751 115.359 13.6844V10.2716C117.016 9.56472 118.915 9.21129 121.058 9.21129C124.084 9.21129 126.337 10.0065 127.817 11.5969C129.297 13.1653 130.037 15.4626 130.037 18.4888C130.037 21.5151 129.297 23.8234 127.817 25.4139C126.337 26.9822 124.084 27.7664 121.058 27.7664Z" fill="white"/>
<path d="M140.515 27.7664C138.946 27.7664 137.511 27.5897 136.207 27.2362C134.904 26.8828 133.866 26.2864 133.093 25.447C132.32 24.5855 131.933 23.4369 131.933 22.0011C131.933 21.2279 132.11 20.499 132.463 19.8142C132.839 19.1073 133.413 18.5441 134.186 18.1244C133.546 17.8372 133.015 17.3844 132.596 16.7659C132.198 16.1474 131.999 15.3963 131.999 14.5127C131.999 12.7677 132.552 11.4534 133.656 10.5698C134.76 9.66412 136.185 9.21129 137.93 9.21129C138.615 9.21129 139.2 9.25546 139.686 9.34382C140.172 9.41009 140.614 9.52054 141.012 9.67516V12.9554C140.371 12.7787 139.609 12.6904 138.726 12.6904C137.908 12.6904 137.29 12.8339 136.87 13.1211C136.45 13.3862 136.24 13.8501 136.24 14.5127C136.24 15.2417 136.472 15.7498 136.936 16.0369C137.4 16.302 138.096 16.4345 139.024 16.4345H140.879L141.045 19.7148H138.991C137.113 19.7148 136.174 20.4769 136.174 22.0011C136.174 22.7521 136.506 23.3264 137.168 23.724C137.853 24.0995 138.902 24.2873 140.316 24.2873C141.752 24.2873 142.812 23.9891 143.497 23.3927C144.182 22.7963 144.524 21.9348 144.524 20.8082V9.54263H148.997V20.4106C148.997 22.9951 148.257 24.8727 146.777 26.0434C145.319 27.1921 143.232 27.7664 140.515 27.7664Z" fill="white"/>
<path d="M153.12 27.435V21.736C153.12 20.7199 153.285 19.8252 153.617 19.0521C153.97 18.2569 154.655 17.7047 155.671 17.3954L152.291 16.5008V12.2265C153.197 11.4534 154.401 10.7575 155.903 10.139C157.427 9.52054 159.161 9.21129 161.105 9.21129C162.894 9.21129 164.418 9.44322 165.678 9.9071C166.959 10.371 167.931 11.1441 168.593 12.2265C169.278 13.3089 169.621 14.7778 169.621 16.6333V27.435H165.147V16.5339C165.147 15.1423 164.816 14.1593 164.153 13.585C163.513 12.9886 162.419 12.6904 160.873 12.6904C159.879 12.6904 158.962 12.8339 158.123 13.1211C157.306 13.4083 156.643 13.7727 156.135 14.2145V14.6784L159.813 15.6724V18.3894C158.929 18.6103 158.333 18.9748 158.024 19.4829C157.736 19.9688 157.593 20.7309 157.593 21.7691V27.435H153.12Z" fill="white"/>
<path d="M179.894 27.435V16.4345C179.894 15.2417 179.662 14.325 179.199 13.6844C178.735 13.0217 177.807 12.6904 176.415 12.6904C175.686 12.6904 174.913 12.7787 174.096 12.9554C173.279 13.1101 172.55 13.3089 171.909 13.5519V10.2716C172.572 9.96233 173.389 9.7083 174.361 9.50949C175.333 9.31069 176.305 9.21129 177.277 9.21129C179.795 9.21129 181.606 9.75248 182.711 10.8349C183.815 11.8951 184.368 13.5519 184.368 15.805V27.435H179.894Z" fill="white"/>
<path d="M194.351 27.7664C193.114 27.7664 191.921 27.678 190.773 27.5013C189.646 27.3246 188.729 27.0927 188.023 26.8055V23.1939C188.862 23.5473 189.779 23.8234 190.773 24.0222C191.789 24.1989 192.706 24.2873 193.523 24.2873C194.959 24.2873 195.997 24.1769 196.637 23.956C197.3 23.7351 197.632 23.2822 197.632 22.5975C197.632 22.0673 197.455 21.6587 197.101 21.3715C196.77 21.0843 196.251 20.8303 195.544 20.6094C194.837 20.3664 193.932 20.0572 192.827 19.6817C191.215 19.1073 189.944 18.4667 189.017 17.7599C188.111 17.0309 187.658 15.9596 187.658 14.5459C187.658 12.9554 188.277 11.6743 189.514 10.7023C190.751 9.7083 192.617 9.21129 195.113 9.21129C196.152 9.21129 197.19 9.2886 198.228 9.44322C199.266 9.59785 200.117 9.78561 200.779 10.0065V13.585C200.05 13.2757 199.211 13.0548 198.261 12.9223C197.333 12.7677 196.494 12.6904 195.743 12.6904C194.705 12.6904 193.799 12.8119 193.026 13.0548C192.275 13.2757 191.899 13.7396 191.899 14.4465C191.899 14.8883 192.087 15.2417 192.463 15.5068C192.86 15.7718 193.412 16.0148 194.119 16.2357C194.848 16.4566 195.71 16.7438 196.704 17.0972C197.941 17.5169 198.935 17.9587 199.686 18.4226C200.459 18.8864 201.011 19.4497 201.343 20.1124C201.696 20.7751 201.873 21.6034 201.873 22.5975C201.873 24.3425 201.199 25.6458 199.852 26.5073C198.526 27.3467 196.693 27.7664 194.351 27.7664Z" fill="white"/>
<path d="M213.5 27.7664C210.872 27.7664 208.795 27.1479 207.271 25.9109C205.747 24.6518 204.985 22.7631 204.985 20.2449V9.54263H209.458V20.3112C209.458 22.9619 210.806 24.2873 213.5 24.2873C216.195 24.2873 217.543 22.9619 217.543 20.3112V9.54263H222.016V20.2449C222.016 22.7631 221.254 24.6518 219.73 25.9109C218.205 27.1479 216.129 27.7664 213.5 27.7664Z" fill="white"/>
<path d="M231.983 27.7664C230.746 27.7664 229.553 27.678 228.405 27.5013C227.278 27.3246 226.361 27.0927 225.654 26.8055V23.1939C226.494 23.5473 227.411 23.8234 228.405 24.0222C229.421 24.1989 230.337 24.2873 231.155 24.2873C232.591 24.2873 233.629 24.1769 234.269 23.956C234.932 23.7351 235.263 23.2822 235.263 22.5975C235.263 22.0673 235.087 21.6587 234.733 21.3715C234.402 21.0843 233.883 20.8303 233.176 20.6094C232.469 20.3664 231.563 20.0572 230.459 19.6817C228.846 19.1073 227.576 18.4667 226.648 17.7599C225.743 17.0309 225.29 15.9596 225.29 14.5459C225.29 12.9554 225.908 11.6743 227.145 10.7023C228.382 9.7083 230.249 9.21129 232.745 9.21129C233.783 9.21129 234.822 9.2886 235.86 9.44322C236.898 9.59785 237.748 9.78561 238.411 10.0065V13.585C237.682 13.2757 236.843 13.0548 235.893 12.9223C234.965 12.7677 234.126 12.6904 233.375 12.6904C232.336 12.6904 231.431 12.8119 230.658 13.0548C229.907 13.2757 229.531 13.7396 229.531 14.4465C229.531 14.8883 229.719 15.2417 230.094 15.5068C230.492 15.7718 231.044 16.0148 231.751 16.2357C232.48 16.4566 233.342 16.7438 234.336 17.0972C235.573 17.5169 236.567 17.9587 237.318 18.4226C238.091 18.8864 238.643 19.4497 238.974 20.1124C239.328 20.7751 239.505 21.6034 239.505 22.5975C239.505 24.3425 238.831 25.6458 237.483 26.5073C236.158 27.3467 234.325 27.7664 231.983 27.7664Z" fill="white"/>
<path d="M224.194 7.0907L224.426 4.04236H238.674V7.0907H224.194Z" fill="white"/>
<path d="M242.617 27.435V9.54263H247.09V14.9766H251.53C252.679 14.9766 253.463 14.7336 253.882 14.2477C254.324 13.7396 254.545 12.9775 254.545 11.9614V9.54263H259.018V11.7957C259.018 12.9002 258.83 13.8832 258.455 14.7447C258.101 15.5841 257.439 16.1915 256.467 16.5671C257.395 16.9205 258.024 17.4727 258.355 18.2238C258.709 18.9527 258.886 19.8032 258.886 20.7751V27.435H254.413V21.2721C254.413 20.1455 254.192 19.3614 253.75 18.9196C253.33 18.4778 252.557 18.2569 251.43 18.2569H247.09V27.435H242.617Z" fill="white"/>
<path d="M269.169 27.435V16.4345C269.169 15.2417 268.937 14.325 268.473 13.6844C268.009 13.0217 267.081 12.6904 265.69 12.6904C264.961 12.6904 264.188 12.7787 263.37 12.9554C262.553 13.1101 261.824 13.3089 261.184 13.5519V10.2716C261.846 9.96233 262.664 9.7083 263.635 9.50949C264.607 9.31069 265.579 9.21129 266.551 9.21129C269.069 9.21129 270.881 9.75248 271.985 10.8349C273.09 11.8951 273.642 13.5519 273.642 15.805V27.435H269.169Z" fill="white"/>
<path d="M283.626 27.7664C282.389 27.7664 281.196 27.678 280.047 27.5013C278.921 27.3246 278.004 27.0927 277.297 26.8055V23.1939C278.136 23.5473 279.053 23.8234 280.047 24.0222C281.063 24.1989 281.98 24.2873 282.797 24.2873C284.233 24.2873 285.271 24.1769 285.912 23.956C286.575 23.7351 286.906 23.2822 286.906 22.5975C286.906 22.0673 286.729 21.6587 286.376 21.3715C286.044 21.0843 285.525 20.8303 284.818 20.6094C284.112 20.3664 283.206 20.0572 282.102 19.6817C280.489 19.1073 279.219 18.4667 278.291 17.7599C277.385 17.0309 276.933 15.9596 276.933 14.5459C276.933 12.9554 277.551 11.6743 278.788 10.7023C280.025 9.7083 281.892 9.21129 284.388 9.21129C285.426 9.21129 286.464 9.2886 287.502 9.44322C288.541 9.59785 289.391 9.78561 290.054 10.0065V13.585C289.325 13.2757 288.485 13.0548 287.536 12.9223C286.608 12.7677 285.768 12.6904 285.017 12.6904C283.979 12.6904 283.073 12.8119 282.3 13.0548C281.549 13.2757 281.174 13.7396 281.174 14.4465C281.174 14.8883 281.362 15.2417 281.737 15.5068C282.135 15.7718 282.687 16.0148 283.394 16.2357C284.123 16.4566 284.984 16.7438 285.978 17.0972C287.215 17.5169 288.209 17.9587 288.96 18.4226C289.733 18.8864 290.286 19.4497 290.617 20.1124C290.97 20.7751 291.147 21.6034 291.147 22.5975C291.147 24.3425 290.473 25.6458 289.126 26.5073C287.801 27.3467 285.967 27.7664 283.626 27.7664Z" fill="white"/>
<path d="M301.416 27.7664C300.93 27.7664 300.367 27.7112 299.727 27.6007C299.108 27.5124 298.611 27.4019 298.236 27.2694L295.717 20.5432H293.265L293.464 17.3623H298.534L301.151 24.3536C302.521 24.3536 303.581 23.8897 304.332 22.9619C305.083 22.0121 305.459 20.4658 305.459 18.3232C305.459 16.8874 305.271 15.7608 304.895 14.9435C304.542 14.1262 303.924 13.5519 303.04 13.2205C302.156 12.8671 300.952 12.6904 299.428 12.6904C298.545 12.6904 297.595 12.7677 296.579 12.9223C295.585 13.0548 294.635 13.2647 293.729 13.5519V10.2384C294.635 9.95128 295.673 9.7083 296.844 9.50949C298.037 9.31069 299.285 9.21129 300.588 9.21129C303.857 9.21129 306.188 9.99546 307.579 11.5638C308.993 13.1322 309.7 15.3853 309.7 18.3232C309.7 20.3775 309.313 22.1115 308.54 23.5252C307.789 24.9169 306.784 25.9771 305.525 26.7061C304.266 27.413 302.896 27.7664 301.416 27.7664Z" fill="white"/>
<path d="M300.342 7.0907V1.82238H303.987V4.04236H312.237L312.071 7.0907H300.342Z" fill="white"/>
<path d="M319.526 27.7664C318.93 27.7664 318.289 27.7222 317.605 27.6339C316.942 27.5455 316.357 27.424 315.849 27.2694L310.812 15.0098H315.153L319.096 24.5855C320.752 24.5855 321.945 24.0333 322.674 22.9288C323.425 21.8022 323.801 20.1345 323.801 17.9256C323.801 16.6002 323.668 15.562 323.403 14.8109C323.16 14.0599 322.752 13.5298 322.177 13.2205C321.603 12.8892 320.808 12.7235 319.792 12.7235H318.433V9.54263H320.421C323.05 9.54263 324.972 10.2384 326.186 11.6301C327.423 12.9996 328.042 15.0981 328.042 17.9256C328.042 20.2449 327.677 22.1336 326.949 23.5915C326.22 25.0273 325.215 26.0876 323.933 26.7724C322.674 27.435 321.205 27.7664 319.526 27.7664Z" fill="white"/>
<path d="M330.273 27.435V9.54263H334.746V14.9766H339.186C340.335 14.9766 341.119 14.7336 341.539 14.2477C341.981 13.7396 342.202 12.9775 342.202 11.9614V9.54263H346.675V11.7957C346.675 12.9002 346.487 13.8832 346.111 14.7447C345.758 15.5841 345.095 16.1915 344.123 16.5671C345.051 16.9205 345.681 17.4727 346.012 18.2238C346.365 18.9527 346.542 19.8032 346.542 20.7751V27.435H342.069V21.2721C342.069 20.1455 341.848 19.3614 341.406 18.9196C340.987 18.4778 340.214 18.2569 339.087 18.2569H334.746V27.435H330.273Z" fill="white"/>
<path d="M355.003 27.7664C352.86 27.7664 350.961 27.413 349.304 26.7061V23.2933C349.989 23.5804 350.729 23.8234 351.524 24.0222C352.319 24.1989 353.125 24.2873 353.943 24.2873C356.019 24.2873 357.499 23.8566 358.383 22.9951C359.288 22.1336 359.741 20.6315 359.741 18.4888C359.741 16.3462 359.288 14.8441 358.383 13.9826C357.499 13.1211 356.019 12.6904 353.943 12.6904C353.125 12.6904 352.319 12.7787 351.524 12.9554C350.729 13.1322 349.989 13.3751 349.304 13.6844V10.2716C350.961 9.56472 352.86 9.21129 355.003 9.21129C358.029 9.21129 360.282 10.0065 361.762 11.5969C363.242 13.1653 363.982 15.4626 363.982 18.4888C363.982 21.5151 363.242 23.8234 361.762 25.4139C360.282 26.9822 358.029 27.7664 355.003 27.7664Z" fill="white"/>
<path d="M354.314 7.0907V1.82238H357.959V4.04236H366.209L366.044 7.0907H354.314Z" fill="white"/>
<path d="M373.598 27.7664C372.162 27.7664 370.881 27.4571 369.755 26.8386C368.628 26.2201 367.734 25.2592 367.071 23.956C366.43 22.6306 366.11 20.9297 366.11 18.8533C366.11 15.805 366.894 13.4414 368.462 11.7626C370.053 10.0617 372.383 9.21129 375.454 9.21129C377.596 9.21129 379.33 9.57576 380.656 10.3047C381.981 11.0116 382.942 11.9283 383.538 13.0548C384.157 14.1814 384.466 15.3742 384.466 16.6333V27.435H379.993V16.9315C379.993 16.0921 379.861 15.3632 379.596 14.7447C379.33 14.1041 378.856 13.6071 378.171 13.2536C377.508 12.8781 376.58 12.6904 375.388 12.6904C372.03 12.6904 370.351 14.7447 370.351 18.8533C370.351 20.8634 370.705 22.2772 371.411 23.0945C372.118 23.8897 373.112 24.2873 374.393 24.2873C374.813 24.2873 375.222 24.2652 375.619 24.221C376.039 24.1769 376.393 24.1106 376.68 24.0222V27.3025C376.282 27.4571 375.84 27.5676 375.354 27.6339C374.868 27.7222 374.283 27.7664 373.598 27.7664Z" fill="white"/>
<path d="M396.14 27.7664C393.467 27.7664 391.457 27.1479 390.11 25.9109C388.762 24.6739 388.088 22.984 388.088 20.8414V19.7148C388.088 18.9638 388.232 18.29 388.519 17.6936C388.806 17.0972 389.127 16.5671 389.48 16.1032C389.856 15.6393 390.187 15.2086 390.474 14.8109C390.761 14.4133 390.905 14.0378 390.905 13.6844C390.905 13.353 390.828 13.1322 390.673 13.0217C390.518 12.9113 390.242 12.856 389.845 12.856H387.691L388.055 9.54263H392.694C394.528 9.54263 395.444 10.3931 395.444 12.094C395.444 12.845 395.301 13.5298 395.013 14.1483C394.726 14.7447 394.384 15.319 393.986 15.8712C393.611 16.4235 393.279 17.0088 392.992 17.6273C392.705 18.2238 392.562 18.9085 392.562 19.6817V21.1064C392.562 23.227 393.754 24.2873 396.14 24.2873C398.57 24.2873 399.785 23.1828 399.785 20.9739V18.8864C399.785 18.047 399.641 17.4506 399.354 17.0972C399.067 16.7438 398.559 16.5671 397.83 16.5671H396.902L397.101 13.4525H397.697C398.426 13.4525 398.956 13.2647 399.288 12.8892C399.619 12.5137 399.785 11.9172 399.785 11.0999V9.21129H404.258V11.0005C404.258 12.0166 404.103 12.845 403.794 13.4856C403.485 14.1041 402.877 14.6121 401.972 15.0098C402.899 15.4295 403.507 15.9706 403.794 16.6333C404.103 17.2739 404.258 18.0802 404.258 19.0521V20.7751C404.258 22.9178 403.54 24.6186 402.104 25.8777C400.668 27.1368 398.68 27.7664 396.14 27.7664Z" fill="white"/>
<path d="M414.519 27.435V16.4345C414.519 15.2417 414.287 14.325 413.823 13.6844C413.359 13.0217 412.431 12.6904 411.04 12.6904C410.311 12.6904 409.538 12.7787 408.72 12.9554C407.903 13.1101 407.174 13.3089 406.534 13.5519V10.2716C407.196 9.96233 408.014 9.7083 408.986 9.50949C409.957 9.31069 410.929 9.21129 411.901 9.21129C414.419 9.21129 416.231 9.75248 417.335 10.8349C418.44 11.8951 418.992 13.5519 418.992 15.805V27.435H414.519Z" fill="white"/>
<path d="M430.632 27.7664C429.064 27.7664 427.628 27.5897 426.325 27.2362C425.022 26.8828 423.983 26.2864 423.21 25.447C422.437 24.5855 422.051 23.4369 422.051 22.0011C422.051 21.2279 422.227 20.499 422.581 19.8142C422.956 19.1073 423.531 18.5441 424.304 18.1244C423.663 17.8372 423.133 17.3844 422.713 16.7659C422.316 16.1474 422.117 15.3963 422.117 14.5127C422.117 12.7677 422.669 11.4534 423.774 10.5698C424.878 9.66412 426.303 9.21129 428.048 9.21129C428.733 9.21129 429.318 9.25546 429.804 9.34382C430.29 9.41009 430.732 9.52054 431.129 9.67516V12.9554C430.489 12.7787 429.727 12.6904 428.843 12.6904C428.026 12.6904 427.407 12.8339 426.988 13.1211C426.568 13.3862 426.358 13.8501 426.358 14.5127C426.358 15.2417 426.59 15.7498 427.054 16.0369C427.518 16.302 428.214 16.4345 429.141 16.4345H430.997L431.163 19.7148H429.108C427.231 19.7148 426.292 20.4769 426.292 22.0011C426.292 22.7521 426.623 23.3264 427.286 23.724C427.971 24.0995 429.02 24.2873 430.434 24.2873C431.869 24.2873 432.93 23.9891 433.614 23.3927C434.299 22.7963 434.642 21.9348 434.642 20.8082V9.54263H439.115V20.4106C439.115 22.9951 438.375 24.8727 436.895 26.0434C435.437 27.1921 433.349 27.7664 430.632 27.7664Z" fill="white"/>
<path d="M455.563 27.435C454.127 27.435 453.111 27.1368 452.515 26.5404C451.941 25.944 451.653 25.0052 451.653 23.724V9.54263H456.127V22.5643C456.127 23.4921 456.579 23.956 457.485 23.956H458.612V27.435H455.563ZM447.081 27.435C445.645 27.435 444.629 27.1368 444.033 26.5404C443.458 25.944 443.171 25.0052 443.171 23.724V9.54263H447.644V22.5643C447.644 23.4921 448.097 23.956 449.003 23.956H450.129V27.435H447.081Z" fill="white"/>
<path d="M468.503 27.7664C467.067 27.7664 465.786 27.4571 464.659 26.8386C463.533 26.2201 462.638 25.2592 461.975 23.956C461.335 22.6306 461.015 20.9297 461.015 18.8533C461.015 15.805 461.799 13.4414 463.367 11.7626C464.958 10.0617 467.288 9.21129 470.358 9.21129C472.501 9.21129 474.235 9.57576 475.56 10.3047C476.886 11.0116 477.847 11.9283 478.443 13.0548C479.062 14.1814 479.371 15.3742 479.371 16.6333V27.435H474.898V16.9315C474.898 16.0921 474.765 15.3632 474.5 14.7447C474.235 14.1041 473.76 13.6071 473.075 13.2536C472.413 12.8781 471.485 12.6904 470.292 12.6904C466.935 12.6904 465.256 14.7447 465.256 18.8533C465.256 20.8634 465.609 22.2772 466.316 23.0945C467.023 23.8897 468.017 24.2873 469.298 24.2873C469.718 24.2873 470.126 24.2652 470.524 24.221C470.944 24.1769 471.297 24.1106 471.584 24.0222V27.3025C471.187 27.4571 470.745 27.5676 470.259 27.6339C469.773 27.7222 469.188 27.7664 468.503 27.7664Z" fill="white"/>
<path d="M489.521 27.7664C487.599 27.7664 486.086 27.1921 484.981 26.0434C483.877 24.8727 483.324 23.2491 483.324 21.1727V9.54263H487.798V20.9076C487.798 22.1225 488.063 22.9951 488.593 23.5252C489.145 24.0333 489.951 24.2873 491.012 24.2873C491.851 24.2873 492.668 24.1106 493.464 23.7572C494.259 23.4037 494.899 22.9619 495.385 22.4318V9.54263H499.858V27.435H495.75L495.551 25.6789C494.756 26.3195 493.861 26.8276 492.867 27.2031C491.873 27.5786 490.758 27.7664 489.521 27.7664Z" fill="white"/>
<path d="M503.475 27.435V23.956H504.569C505.011 23.956 505.309 23.8676 505.464 23.6909C505.618 23.5142 505.695 23.2049 505.695 22.7631V21.736C505.695 20.7199 505.839 19.8363 506.126 19.0853C506.413 18.3342 507.065 17.7709 508.081 17.3954L504.701 16.5008V12.2265C505.607 11.4534 506.811 10.7575 508.313 10.139C509.837 9.52054 511.571 9.21129 513.515 9.21129C516.033 9.21129 518.01 9.77457 519.446 10.9011C520.904 12.0277 521.633 13.9384 521.633 16.6333V27.435H517.16V16.5339C517.16 15.1423 516.851 14.1593 516.232 13.585C515.636 12.9886 514.653 12.6904 513.283 12.6904C512.289 12.6904 511.372 12.8339 510.533 13.1211C509.716 13.4083 509.053 13.7727 508.545 14.2145V14.6784L512.223 15.6724V18.3894C511.383 18.6545 510.842 19.03 510.599 19.516C510.356 19.9799 510.235 20.7309 510.235 21.7691V22.9951C510.235 24.5634 509.859 25.701 509.108 26.4079C508.357 27.0927 507.275 27.435 505.861 27.435H503.475Z" fill="white"/>
<path d="M531.912 27.435V16.4345C531.912 15.2417 531.68 14.325 531.216 13.6844C530.752 13.0217 529.825 12.6904 528.433 12.6904C527.704 12.6904 526.931 12.7787 526.114 12.9554C525.296 13.1101 524.567 13.3089 523.927 13.5519V10.2716C524.589 9.96233 525.407 9.7083 526.379 9.50949C527.351 9.31069 528.323 9.21129 529.294 9.21129C531.813 9.21129 533.624 9.75248 534.728 10.8349C535.833 11.8951 536.385 13.5519 536.385 15.805V27.435H531.912Z" fill="white"/>
<path d="M540.338 27.435V16.3351C540.338 14.1704 541.001 12.4474 542.327 11.1662C543.674 9.86292 545.828 9.21129 548.788 9.21129C551.748 9.21129 553.89 9.86292 555.216 11.1662C556.541 12.4474 557.204 14.1704 557.204 16.3351V27.435H552.731V16.0038C552.731 14.8993 552.377 14.071 551.67 13.5187C550.986 12.9665 550.025 12.6904 548.788 12.6904C546.137 12.6904 544.812 13.7948 544.812 16.0038V19.2178C545.231 18.9085 545.695 18.6545 546.203 18.4557C546.733 18.2569 547.308 18.1575 547.926 18.1575H550.08L550.212 21.7028H547.827C547.208 21.7028 546.656 21.7912 546.17 21.9679C545.684 22.1225 545.231 22.3545 544.812 22.6637V27.435H540.338Z" fill="white"/>
<path d="M564.59 27.435C563.154 27.435 562.138 27.1368 561.542 26.5404C560.968 25.944 560.68 25.0052 560.68 23.724V13.2536C560.68 12.1934 560.857 11.2987 561.211 10.5698C561.586 9.84083 562.006 9.22233 562.47 8.71427C562.956 8.18413 563.375 7.7092 563.729 7.28951C564.104 6.86981 564.292 6.45011 564.292 6.03041C564.292 5.47818 564.138 5.09161 563.828 4.87072C563.519 4.62773 563.022 4.50624 562.337 4.50624C561.144 4.50624 559.974 4.83758 558.825 5.50026V2.28625C559.51 1.88865 560.316 1.57939 561.244 1.3585C562.172 1.13761 563.077 1.02716 563.961 1.02716C567.296 1.02716 568.964 2.2973 568.964 4.83758C568.964 5.56653 568.831 6.20713 568.566 6.75936C568.323 7.3116 568.014 7.8307 567.639 8.31666C567.263 8.80263 566.877 9.2886 566.479 9.77456C566.103 10.2605 565.783 10.8017 565.518 11.3981C565.275 11.9725 565.154 12.6462 565.154 13.4193V22.5643C565.154 23.4921 565.606 23.956 566.512 23.956H567.639V27.435H564.59Z" fill="white"/>
<path d="M577.904 27.7664C576.468 27.7664 575.187 27.4571 574.06 26.8386C572.934 26.2201 572.039 25.2592 571.376 23.956C570.736 22.6306 570.415 20.9297 570.415 18.8533C570.415 15.6945 570.968 13.2978 572.072 11.6632C573.199 10.0286 574.712 9.21129 576.612 9.21129C577.561 9.21129 578.301 9.36591 578.832 9.67516C579.362 9.98442 579.803 10.3931 580.157 10.9011C580.599 10.3931 581.206 9.98442 581.979 9.67516C582.774 9.36591 583.581 9.21129 584.398 9.21129C585.966 9.21129 587.115 9.68621 587.844 10.6361C588.595 11.5859 588.971 12.8339 588.971 14.3802V27.435H584.497V15.076C584.497 14.3029 584.387 13.7175 584.166 13.3199C583.967 12.9002 583.57 12.6904 582.973 12.6904C582.576 12.6904 582.211 12.8229 581.88 13.088C581.571 13.331 581.35 13.7065 581.217 14.2145H579.063C578.843 13.7065 578.611 13.331 578.368 13.088C578.125 12.8229 577.771 12.6904 577.307 12.6904C576.269 12.6904 575.562 13.2647 575.187 14.4133C574.833 15.5399 574.657 17.0199 574.657 18.8533C574.657 20.8634 575.01 22.2772 575.717 23.0945C576.424 23.8897 577.418 24.2873 578.699 24.2873C579.119 24.2873 579.527 24.2652 579.925 24.221C580.345 24.1769 580.698 24.1106 580.985 24.0222V27.3025C580.588 27.4571 580.146 27.5676 579.66 27.6339C579.174 27.7222 578.589 27.7664 577.904 27.7664Z" fill="white"/>
<path d="M580.759 7.0907V4.14177H578.175V1.09343H583.774V4.04236H590.865L590.699 7.0907H580.759Z" fill="white"/>
</svg>
