<svg width="551" height="17" viewBox="0 0 551 17" fill="none" xmlns="http://www.w3.org/2000/svg">
<path d="M5.46713 17C4.43997 17 3.47908 16.9254 2.58446 16.7763C1.70641 16.6272 0.944322 16.4119 0.298207 16.1302V13.173C1.02716 13.4712 1.81409 13.7114 2.65901 13.8937C3.50393 14.0759 4.33229 14.167 5.14407 14.167C6.30377 14.167 7.15697 14.0593 7.70368 13.844C8.25039 13.6286 8.52375 13.1399 8.52375 12.3778C8.52375 11.8973 8.40778 11.5163 8.17584 11.2347C7.9439 10.953 7.53801 10.7045 6.95816 10.4891C6.39488 10.2572 5.59138 10.0004 4.54766 9.71878C2.87438 9.2549 1.69812 8.67505 1.01887 7.97924C0.339625 7.28342 0 6.32253 0 5.09657C0 3.6221 0.538429 2.48726 1.61529 1.69204C2.69215 0.896818 4.25773 0.499208 6.31205 0.499208C7.27294 0.499208 8.16756 0.565477 8.99591 0.698014C9.82426 0.83055 10.4952 0.987938 11.0088 1.17018V4.12739C9.65031 3.61382 8.23383 3.35703 6.75936 3.35703C5.71563 3.35703 4.89557 3.473 4.29915 3.70493C3.70274 3.92031 3.40453 4.38418 3.40453 5.09657C3.40453 5.51074 3.51222 5.84208 3.72759 6.09059C3.94296 6.3391 4.30744 6.56275 4.82101 6.76156C5.35116 6.96036 6.08839 7.18402 7.03272 7.43252C8.34151 7.78043 9.3521 8.19461 10.0645 8.67505C10.7769 9.1555 11.2656 9.70221 11.5307 10.3152C11.8123 10.9282 11.9531 11.6157 11.9531 12.3778C11.9531 13.7694 11.423 14.8877 10.3627 15.7326C9.3024 16.5775 7.67055 17 5.46713 17Z" fill="white"/>
<path d="M20.1709 17C17.9675 17 16.3522 16.4699 15.325 15.4096C14.2979 14.3327 13.7843 12.8168 13.7843 10.8619C13.7843 8.90699 14.2979 7.39939 15.325 6.3391C16.3688 5.26224 17.9841 4.72381 20.1709 4.72381C22.3743 4.72381 23.9896 5.26224 25.0168 6.3391C26.0605 7.39939 26.5824 8.90699 26.5824 10.8619C26.5824 12.8168 26.0688 14.3327 25.0416 15.4096C24.0145 16.4699 22.3909 17 20.1709 17ZM20.1709 14.1422C21.2478 14.1422 22.0181 13.902 22.482 13.4215C22.9459 12.9245 23.1778 12.0713 23.1778 10.8619C23.1778 9.65251 22.9459 8.80759 22.482 8.32714C22.0181 7.83013 21.2478 7.58163 20.1709 7.58163C19.1106 7.58163 18.3485 7.83013 17.8847 8.32714C17.4208 8.80759 17.1888 9.65251 17.1888 10.8619C17.1888 12.0713 17.4208 12.9245 17.8847 13.4215C18.3485 13.902 19.1106 14.1422 20.1709 14.1422Z" fill="white"/>
<path d="M33.2639 17C31.8557 17 30.754 16.6107 29.9587 15.832C29.1801 15.0368 28.7908 13.8771 28.7908 12.3529V4.97231H32.1456V12.2784C32.1456 13.0736 32.3361 13.6535 32.7172 14.0179C33.0982 14.3658 33.6698 14.5398 34.4318 14.5398C35.0117 14.5398 35.5418 14.4238 36.0223 14.1919C36.5193 13.9599 36.9418 13.67 37.2897 13.3221V4.97231H40.6445V16.7515H37.5382L37.4139 15.6332C36.9169 16.0308 36.3288 16.3622 35.6495 16.6272C34.9868 16.8757 34.1916 17 33.2639 17Z" fill="white"/>
<path d="M48.1721 17C46.8136 17 45.803 16.6438 45.1403 15.9314C44.4942 15.219 44.1711 14.2499 44.1711 13.0239V7.55677H42.5061V4.97231H44.1711V2.43755L47.526 1.44353V4.97231H50.508L50.3092 7.55677H47.526V12.8002C47.526 13.4464 47.6751 13.8937 47.9733 14.1422C48.2715 14.3741 48.7354 14.4901 49.3649 14.4901C49.8288 14.4901 50.3092 14.4073 50.8062 14.2416V16.5527C50.4418 16.7018 50.0442 16.8095 49.6134 16.8757C49.1827 16.9586 48.7022 17 48.1721 17Z" fill="white"/>
<path d="M52.5279 16.7515V0.00219727H55.8828V5.96634C56.3632 5.60186 56.9513 5.30366 57.6471 5.07172C58.343 4.83978 59.0968 4.72381 59.9085 4.72381C61.4659 4.72381 62.6007 5.08828 63.3131 5.81723C64.0255 6.54618 64.3817 7.67274 64.3817 9.19691V16.7515H61.0268V9.37087C61.0268 8.57565 60.8612 8.01237 60.5298 7.68103C60.215 7.34969 59.6186 7.18402 58.7406 7.18402C58.227 7.18402 57.7051 7.29998 57.175 7.53192C56.6614 7.76386 56.2307 8.05379 55.8828 8.40169V16.7515H52.5279Z" fill="white"/>
<path d="M72.8629 17C70.8251 17 69.2098 16.4947 68.017 15.4841C66.8242 14.457 66.2278 12.9079 66.2278 10.8371C66.2278 8.96498 66.7248 7.48222 67.7188 6.3888C68.7294 5.2788 70.2287 4.72381 72.2168 4.72381C74.0391 4.72381 75.4308 5.20425 76.3917 6.16514C77.3691 7.10946 77.8579 8.35199 77.8579 9.89273V12.0299H69.3341C69.5163 12.9742 69.9471 13.6203 70.6263 13.9682C71.3222 14.3161 72.2996 14.4901 73.5587 14.4901C74.1883 14.4901 74.8261 14.4321 75.4722 14.3161C76.1349 14.2002 76.6982 14.0511 77.162 13.8688V16.2545C76.6153 16.503 75.9775 16.6852 75.2485 16.8012C74.5196 16.9337 73.7244 17 72.8629 17ZM69.3341 9.96728H74.9255V9.32117C74.9255 8.64192 74.7267 8.11177 74.3291 7.73073C73.9315 7.33312 73.2605 7.13432 72.3162 7.13432C71.2062 7.13432 70.4275 7.35797 69.9802 7.80528C69.5495 8.25259 69.3341 8.97326 69.3341 9.96728Z" fill="white"/>
<path d="M80.1936 16.7515V4.97231H83.2999L83.449 6.18999C83.9792 5.85865 84.6336 5.56044 85.4122 5.29537C86.2075 5.01373 86.9861 4.82321 87.7482 4.72381V7.25857C87.3009 7.32484 86.8122 7.42424 86.282 7.55677C85.7519 7.68931 85.2466 7.83842 84.7661 8.00409C84.2857 8.16976 83.8798 8.34371 83.5484 8.52595V16.7515H80.1936Z" fill="white"/>
<path d="M89.4641 16.7515V4.97231H92.5704L92.6946 6.09059C93.1751 5.72611 93.7798 5.41134 94.5087 5.14627C95.2542 4.86463 96.0329 4.72381 96.8447 4.72381C98.402 4.72381 99.5368 5.08828 100.249 5.81723C100.962 6.54618 101.318 7.67274 101.318 9.19691V16.7515H97.963V9.37087C97.963 8.57565 97.7973 8.01237 97.4659 7.68103C97.1512 7.34969 96.5547 7.18402 95.6767 7.18402C95.1631 7.18402 94.6413 7.29998 94.1111 7.53192C93.5975 7.76386 93.1668 8.05379 92.8189 8.40169V16.7515H89.4641Z" fill="white"/>
<path d="M109.51 16.7515V0.747714H117.611C119.218 0.747714 120.411 1.12876 121.189 1.89084C121.985 2.63636 122.382 3.69665 122.382 5.07172C122.382 5.9332 122.216 6.65387 121.885 7.23372C121.554 7.797 121.106 8.23602 120.543 8.5508C121.289 8.78274 121.877 9.17206 122.308 9.71878C122.755 10.2489 122.979 11.0359 122.979 12.0796C122.979 13.6203 122.54 14.7883 121.661 15.5835C120.8 16.3622 119.549 16.7515 117.909 16.7515H109.51ZM112.864 7.38282H116.99C117.801 7.38282 118.381 7.20887 118.729 6.86096C119.077 6.49648 119.251 5.99119 119.251 5.34507C119.251 4.63269 119.069 4.10254 118.704 3.75464C118.356 3.40673 117.702 3.23277 116.741 3.23277H112.864V7.38282ZM112.864 14.2913H117.114C117.959 14.2913 118.58 14.1173 118.978 13.7694C119.375 13.4215 119.574 12.8085 119.574 11.9305C119.574 11.2181 119.375 10.6879 118.978 10.34C118.597 9.99213 117.901 9.81818 116.89 9.81818H112.864V14.2913Z" fill="white"/>
<path d="M131.198 17C128.994 17 127.379 16.4699 126.352 15.4096C125.325 14.3327 124.811 12.8168 124.811 10.8619C124.811 8.90699 125.325 7.39939 126.352 6.3391C127.396 5.26224 129.011 4.72381 131.198 4.72381C133.401 4.72381 135.016 5.26224 136.044 6.3391C137.087 7.39939 137.609 8.90699 137.609 10.8619C137.609 12.8168 137.096 14.3327 136.068 15.4096C135.041 16.4699 133.418 17 131.198 17ZM131.198 14.1422C132.275 14.1422 133.045 13.902 133.509 13.4215C133.973 12.9245 134.205 12.0713 134.205 10.8619C134.205 9.65251 133.973 8.80759 133.509 8.32714C133.045 7.83013 132.275 7.58163 131.198 7.58163C130.137 7.58163 129.375 7.83013 128.911 8.32714C128.448 8.80759 128.216 9.65251 128.216 10.8619C128.216 12.0713 128.448 12.9245 128.911 13.4215C129.375 13.902 130.137 14.1422 131.198 14.1422Z" fill="white"/>
<path d="M139.942 16.7515V4.97231H143.048L143.197 6.18999C143.727 5.85865 144.382 5.56044 145.16 5.29537C145.956 5.01373 146.734 4.82321 147.496 4.72381V7.25857C147.049 7.32484 146.56 7.42424 146.03 7.55677C145.5 7.68931 144.995 7.83842 144.514 8.00409C144.034 8.16976 143.628 8.34371 143.297 8.52595V16.7515H139.942Z" fill="white"/>
<path d="M153.647 17C152.604 17 151.668 16.8178 150.839 16.4533C150.027 16.0722 149.39 15.4593 148.926 14.6143C148.462 13.7529 148.23 12.618 148.23 11.2098C148.23 9.80161 148.487 8.61707 149 7.65618C149.514 6.69529 150.201 5.96634 151.063 5.46933C151.924 4.97231 152.869 4.72381 153.896 4.72381C155.188 4.72381 156.29 5.02202 157.201 5.61843V0.00219727H160.556V16.7515H157.673L157.474 15.6581C156.961 16.1054 156.397 16.445 155.784 16.6769C155.188 16.8923 154.476 17 153.647 17ZM154.567 14.5398C155.61 14.5398 156.489 14.1836 157.201 13.4712V8.10349C156.505 7.49051 155.693 7.18402 154.766 7.18402C152.678 7.18402 151.634 8.52595 151.634 11.2098C151.634 12.4689 151.891 13.3387 152.405 13.8191C152.918 14.2996 153.639 14.5398 154.567 14.5398Z" fill="white"/>
<path d="M169.28 17C167.242 17 165.627 16.4947 164.434 15.4841C163.242 14.457 162.645 12.9079 162.645 10.8371C162.645 8.96498 163.142 7.48222 164.136 6.3888C165.147 5.2788 166.646 4.72381 168.634 4.72381C170.456 4.72381 171.848 5.20425 172.809 6.16514C173.786 7.10946 174.275 8.35199 174.275 9.89273V12.0299H165.751C165.934 12.9742 166.364 13.6203 167.044 13.9682C167.74 14.3161 168.717 14.4901 169.976 14.4901C170.606 14.4901 171.243 14.4321 171.89 14.3161C172.552 14.2002 173.116 14.0511 173.579 13.8688V16.2545C173.033 16.503 172.395 16.6852 171.666 16.8012C170.937 16.9337 170.142 17 169.28 17ZM165.751 9.96728H171.343V9.32117C171.343 8.64192 171.144 8.11177 170.746 7.73073C170.349 7.33312 169.678 7.13432 168.734 7.13432C167.624 7.13432 166.845 7.35797 166.398 7.80528C165.967 8.25259 165.751 8.97326 165.751 9.96728Z" fill="white"/>
<path d="M176.611 16.7515V4.97231H179.717L179.866 6.18999C180.397 5.85865 181.051 5.56044 181.83 5.29537C182.625 5.01373 183.403 4.82321 184.166 4.72381V7.25857C183.718 7.32484 183.23 7.42424 182.699 7.55677C182.169 7.68931 181.664 7.83842 181.183 8.00409C180.703 8.16976 180.297 8.34371 179.966 8.52595V16.7515H176.611Z" fill="white"/>
<path d="M191.342 16.7515V0.747714H198.847C200.106 0.747714 201.133 0.987937 201.928 1.46838C202.74 1.94883 203.345 2.60323 203.742 3.43158C204.14 4.25993 204.339 5.20425 204.339 6.26454C204.339 7.3414 204.107 8.29401 203.643 9.12236C203.195 9.95072 202.549 10.5968 201.704 11.0607C200.876 11.508 199.89 11.7317 198.747 11.7317H194.697V16.7515H191.342ZM194.697 9.07266H198.051C199.012 9.07266 199.733 8.82416 200.213 8.32714C200.71 7.81357 200.959 7.12603 200.959 6.26454C200.959 5.33679 200.727 4.63269 200.263 4.15224C199.799 3.65523 199.103 3.40673 198.176 3.40673H194.697V9.07266Z" fill="white"/>
<path d="M206.194 16.7515V4.97231H209.3L209.449 6.18999C209.979 5.85865 210.634 5.56044 211.412 5.29537C212.208 5.01373 212.986 4.82321 213.748 4.72381V7.25857C213.301 7.32484 212.812 7.42424 212.282 7.55677C211.752 7.68931 211.247 7.83842 210.766 8.00409C210.286 8.16976 209.88 8.34371 209.549 8.52595V16.7515H206.194Z" fill="white"/>
<path d="M220.868 17C218.665 17 217.05 16.4699 216.023 15.4096C214.995 14.3327 214.482 12.8168 214.482 10.8619C214.482 8.90699 214.995 7.39939 216.023 6.3391C217.066 5.26224 218.682 4.72381 220.868 4.72381C223.072 4.72381 224.687 5.26224 225.714 6.3391C226.758 7.39939 227.28 8.90699 227.28 10.8619C227.28 12.8168 226.766 14.3327 225.739 15.4096C224.712 16.4699 223.088 17 220.868 17ZM220.868 14.1422C221.945 14.1422 222.716 13.902 223.18 13.4215C223.643 12.9245 223.875 12.0713 223.875 10.8619C223.875 9.65251 223.643 8.80759 223.18 8.32714C222.716 7.83013 221.945 7.58163 220.868 7.58163C219.808 7.58163 219.046 7.83013 218.582 8.32714C218.118 8.80759 217.886 9.65251 217.886 10.8619C217.886 12.0713 218.118 12.9245 218.582 13.4215C219.046 13.902 219.808 14.1422 220.868 14.1422Z" fill="white"/>
<path d="M232.404 16.7515L227.757 4.97231H231.261L234.193 13.3718L237.15 4.97231H240.629L236.007 16.7515H232.404Z" fill="white"/>
<path d="M242.931 2.81031V0.176151H246.584V2.81031H242.931ZM243.204 16.7515V7.45737H241.44L241.738 4.97231H246.559V16.7515H243.204Z" fill="white"/>
<path d="M249.415 16.7515V4.97231H252.522L252.646 6.09059C253.126 5.72611 253.731 5.41134 254.46 5.14627C255.206 4.86463 255.984 4.72381 256.796 4.72381C258.353 4.72381 259.488 5.08828 260.201 5.81723C260.913 6.54618 261.269 7.67274 261.269 9.19691V16.7515H257.914V9.37087C257.914 8.57565 257.749 8.01237 257.417 7.68103C257.103 7.34969 256.506 7.18402 255.628 7.18402C255.114 7.18402 254.593 7.29998 254.062 7.53192C253.549 7.76386 253.118 8.05379 252.77 8.40169V16.7515H249.415Z" fill="white"/>
<path d="M269.626 17C267.522 17 265.907 16.4781 264.78 15.4344C263.67 14.3907 263.115 12.8665 263.115 10.8619C263.115 8.79102 263.712 7.25028 264.905 6.23969C266.114 5.2291 267.721 4.72381 269.726 4.72381C270.554 4.72381 271.266 4.78179 271.863 4.89776C272.459 5.01373 273.039 5.20425 273.602 5.46933V7.87983C273.188 7.68103 272.708 7.52364 272.161 7.40767C271.614 7.2917 271.026 7.23372 270.397 7.23372C269.137 7.23372 268.176 7.49879 267.514 8.02894C266.851 8.54252 266.52 9.48684 266.52 10.8619C266.52 12.121 266.818 13.0405 267.414 13.6203C268.027 14.2002 269.013 14.4901 270.372 14.4901C270.951 14.4901 271.515 14.4321 272.061 14.3161C272.625 14.2002 273.147 14.0262 273.627 13.7943V16.2793C272.517 16.7598 271.183 17 269.626 17Z" fill="white"/>
<path d="M281.884 17C279.847 17 278.231 16.4947 277.039 15.4841C275.846 14.457 275.249 12.9079 275.249 10.8371C275.249 8.96498 275.746 7.48222 276.74 6.3888C277.751 5.2788 279.25 4.72381 281.238 4.72381C283.061 4.72381 284.452 5.20425 285.413 6.16514C286.391 7.10946 286.879 8.35199 286.879 9.89273V12.0299H278.356C278.538 12.9742 278.969 13.6203 279.648 13.9682C280.344 14.3161 281.321 14.4901 282.58 14.4901C283.21 14.4901 283.848 14.4321 284.494 14.3161C285.156 14.2002 285.72 14.0511 286.184 13.8688V16.2545C285.637 16.503 284.999 16.6852 284.27 16.8012C283.541 16.9337 282.746 17 281.884 17ZM278.356 9.96728H283.947V9.32117C283.947 8.64192 283.748 8.11177 283.351 7.73073C282.953 7.33312 282.282 7.13432 281.338 7.13432C280.228 7.13432 279.449 7.35797 279.002 7.80528C278.571 8.25259 278.356 8.97326 278.356 9.96728Z" fill="white"/>
<path d="M293.244 17C292.366 17 291.529 16.9337 290.734 16.8012C289.939 16.6852 289.301 16.5361 288.82 16.3539V13.5706C289.4 13.8026 290.055 13.9848 290.784 14.1173C291.513 14.2333 292.184 14.2913 292.797 14.2913C293.625 14.2913 294.205 14.2416 294.536 14.1422C294.884 14.0428 295.058 13.8191 295.058 13.4712C295.058 13.0736 294.793 12.7837 294.263 12.6014C293.749 12.4192 292.979 12.1624 291.952 11.8311C290.875 11.4666 290.046 11.0276 289.467 10.514C288.887 10.0004 288.597 9.23833 288.597 8.22774C288.597 7.10118 289.003 6.23969 289.815 5.64328C290.643 5.0303 291.968 4.72381 293.791 4.72381C294.52 4.72381 295.207 4.78179 295.853 4.89776C296.499 4.99717 297.046 5.12142 297.493 5.27052V8.02894C297.046 7.81357 296.532 7.65618 295.953 7.55677C295.373 7.44081 294.834 7.38282 294.337 7.38282C293.625 7.38282 293.053 7.43252 292.623 7.53192C292.208 7.63133 292.001 7.8467 292.001 8.17804C292.001 8.54251 292.225 8.79931 292.672 8.94841C293.136 9.09751 293.849 9.32117 294.809 9.61937C295.754 9.90101 296.491 10.2075 297.021 10.5388C297.551 10.8702 297.924 11.2678 298.139 11.7317C298.355 12.179 298.463 12.7423 298.463 13.4215C298.463 15.8072 296.723 17 293.244 17Z" fill="white"/>
<path d="M305.754 16.7515L311.868 0.747714H315.546L321.634 16.7515H318.155L316.639 12.8997H310.749L309.258 16.7515H305.754ZM311.246 10.3152H316.142L313.682 3.87889L311.246 10.3152Z" fill="white"/>
<path d="M327.771 17C326.728 17 325.791 16.8178 324.963 16.4533C324.151 16.0722 323.514 15.4593 323.05 14.6143C322.586 13.7529 322.354 12.618 322.354 11.2098C322.354 9.80161 322.611 8.61707 323.124 7.65618C323.638 6.69529 324.325 5.96634 325.187 5.46933C326.048 4.97231 326.993 4.72381 328.02 4.72381C329.312 4.72381 330.414 5.02202 331.325 5.61843V0.00219727H334.68V16.7515H331.797L331.598 15.6581C331.085 16.1054 330.521 16.445 329.908 16.6769C329.312 16.8923 328.6 17 327.771 17ZM328.691 14.5398C329.734 14.5398 330.613 14.1836 331.325 13.4712V8.10349C330.629 7.49051 329.817 7.18402 328.89 7.18402C326.802 7.18402 325.758 8.52595 325.758 11.2098C325.758 12.4689 326.015 13.3387 326.529 13.8191C327.042 14.2996 327.763 14.5398 328.691 14.5398Z" fill="white"/>
<path d="M337.509 16.7515V4.97231H340.615L340.739 6.11544C341.303 5.6847 341.916 5.34507 342.578 5.09657C343.258 4.84806 343.987 4.72381 344.765 4.72381C345.594 4.72381 346.231 4.84806 346.679 5.09657C347.143 5.34507 347.499 5.70126 347.747 6.16514C348.294 5.7344 348.915 5.38649 349.611 5.12142C350.323 4.85635 351.16 4.72381 352.121 4.72381C353.479 4.72381 354.482 5.08 355.128 5.79238C355.774 6.4882 356.097 7.55677 356.097 8.99811V16.7515H352.792V9.37087C352.792 8.59222 352.626 8.03722 352.295 7.70588C351.964 7.35797 351.433 7.18402 350.704 7.18402C349.71 7.18402 348.882 7.54021 348.219 8.25259C348.302 8.53423 348.344 8.87386 348.344 9.27147V16.7515H345.212V9.37087C345.212 8.64192 345.088 8.09521 344.84 7.73073C344.591 7.36625 344.111 7.18402 343.398 7.18402C342.901 7.18402 342.429 7.31655 341.982 7.58163C341.551 7.83013 341.162 8.12006 340.814 8.4514V16.7515H337.509Z" fill="white"/>
<path d="M359.661 2.81031V0.176151H363.314V2.81031H359.661ZM359.934 16.7515V7.45737H358.17L358.468 4.97231H363.289V16.7515H359.934Z" fill="white"/>
<path d="M366.145 16.7515V4.97231H369.252L369.376 6.09059C369.856 5.72611 370.461 5.41134 371.19 5.14627C371.935 4.86463 372.714 4.72381 373.526 4.72381C375.083 4.72381 376.218 5.08828 376.93 5.81723C377.643 6.54618 377.999 7.67274 377.999 9.19691V16.7515H374.644V9.37087C374.644 8.57565 374.478 8.01237 374.147 7.68103C373.832 7.34969 373.236 7.18402 372.358 7.18402C371.844 7.18402 371.322 7.29998 370.792 7.53192C370.279 7.76386 369.848 8.05379 369.5 8.40169V16.7515H366.145Z" fill="white"/>
<path d="M381.55 2.81031V0.176151H385.203V2.81031H381.55ZM381.824 16.7515V7.45737H380.059L380.358 4.97231H385.179V16.7515H381.824Z" fill="white"/>
<path d="M392.185 17C391.307 17 390.47 16.9337 389.675 16.8012C388.88 16.6852 388.242 16.5361 387.762 16.3539V13.5706C388.342 13.8026 388.996 13.9848 389.725 14.1173C390.454 14.2333 391.125 14.2913 391.738 14.2913C392.566 14.2913 393.146 14.2416 393.477 14.1422C393.825 14.0428 393.999 13.8191 393.999 13.4712C393.999 13.0736 393.734 12.7837 393.204 12.6014C392.69 12.4192 391.92 12.1624 390.893 11.8311C389.816 11.4666 388.988 11.0276 388.408 10.514C387.828 10.0004 387.538 9.23833 387.538 8.22774C387.538 7.10118 387.944 6.23969 388.756 5.64328C389.584 5.0303 390.909 4.72381 392.732 4.72381C393.461 4.72381 394.148 4.78179 394.794 4.89776C395.441 4.99717 395.987 5.12142 396.435 5.27052V8.02894C395.987 7.81357 395.474 7.65618 394.894 7.55677C394.314 7.44081 393.776 7.38282 393.279 7.38282C392.566 7.38282 391.995 7.43252 391.564 7.53192C391.15 7.63133 390.943 7.8467 390.943 8.17804C390.943 8.54251 391.166 8.79931 391.614 8.94841C392.077 9.09751 392.79 9.32117 393.751 9.61937C394.695 9.90101 395.432 10.2075 395.962 10.5388C396.493 10.8702 396.865 11.2678 397.081 11.7317C397.296 12.179 397.404 12.7423 397.404 13.4215C397.404 15.8072 395.664 17 392.185 17Z" fill="white"/>
<path d="M404.04 17C402.682 17 401.671 16.6438 401.008 15.9314C400.362 15.219 400.039 14.2499 400.039 13.0239V7.55677H398.374V4.97231H400.039V2.43755L403.394 1.44353V4.97231H406.376L406.177 7.55677H403.394V12.8002C403.394 13.4464 403.543 13.8937 403.841 14.1422C404.14 14.3741 404.604 14.4901 405.233 14.4901C405.697 14.4901 406.177 14.4073 406.674 14.2416V16.5527C406.31 16.7018 405.912 16.8095 405.482 16.8757C405.051 16.9586 404.57 17 404.04 17Z" fill="white"/>
<path d="M408.396 16.7515V4.97231H411.502L411.651 6.18999C412.182 5.85865 412.836 5.56044 413.615 5.29537C414.41 5.01373 415.189 4.82321 415.951 4.72381V7.25857C415.503 7.32484 415.015 7.42424 414.484 7.55677C413.954 7.68931 413.449 7.83842 412.969 8.00409C412.488 8.16976 412.082 8.34371 411.751 8.52595V16.7515H408.396Z" fill="white"/>
<path d="M420.617 17C419.871 17 419.176 16.8675 418.529 16.6024C417.9 16.3207 417.386 15.9149 416.989 15.3847C416.608 14.838 416.417 14.1587 416.417 13.347C416.417 12.1873 416.823 11.2595 417.635 10.5637C418.463 9.86788 419.681 9.51997 421.288 9.51997H424.767V9.19691C424.767 8.46796 424.56 7.95438 424.146 7.65618C423.748 7.35797 422.936 7.20887 421.71 7.20887C420.368 7.20887 419.076 7.41596 417.834 7.83013V5.46933C418.38 5.25396 419.043 5.08 419.822 4.94746C420.617 4.79836 421.478 4.72381 422.406 4.72381C424.179 4.72381 425.546 5.08828 426.507 5.81723C427.484 6.52962 427.973 7.68103 427.973 9.27147V16.7515H425.065L424.891 15.6829C424.427 16.0971 423.856 16.4202 423.177 16.6521C422.497 16.884 421.644 17 420.617 17ZM421.536 14.7883C422.282 14.7883 422.928 14.664 423.475 14.4155C424.021 14.167 424.452 13.8523 424.767 13.4712V11.6074H421.362C420.054 11.6074 419.399 12.1458 419.399 13.2227C419.399 14.2664 420.112 14.7883 421.536 14.7883Z" fill="white"/>
<path d="M435.346 17C433.988 17 432.977 16.6438 432.314 15.9314C431.668 15.219 431.345 14.2499 431.345 13.0239V7.55677H429.68V4.97231H431.345V2.43755L434.7 1.44353V4.97231H437.682L437.483 7.55677H434.7V12.8002C434.7 13.4464 434.849 13.8937 435.147 14.1422C435.446 14.3741 435.909 14.4901 436.539 14.4901C437.003 14.4901 437.483 14.4073 437.98 14.2416V16.5527C437.616 16.7018 437.218 16.8095 436.787 16.8757C436.357 16.9586 435.876 17 435.346 17Z" fill="white"/>
<path d="M440.522 2.81031V0.176151H444.175V2.81031H440.522ZM440.795 16.7515V7.45737H439.031L439.329 4.97231H444.15V16.7515H440.795Z" fill="white"/>
<path d="M450.671 16.7515L446.024 4.97231H449.528L452.461 13.3718L455.418 4.97231H458.897L454.275 16.7515H450.671Z" fill="white"/>
<path d="M466.031 17C463.993 17 462.378 16.4947 461.185 15.4841C459.992 14.457 459.396 12.9079 459.396 10.8371C459.396 8.96498 459.893 7.48222 460.887 6.3888C461.898 5.2788 463.397 4.72381 465.385 4.72381C467.207 4.72381 468.599 5.20425 469.56 6.16514C470.537 7.10946 471.026 8.35199 471.026 9.89273V12.0299H462.502C462.685 12.9742 463.115 13.6203 463.795 13.9682C464.49 14.3161 465.468 14.4901 466.727 14.4901C467.357 14.4901 467.994 14.4321 468.641 14.3161C469.303 14.2002 469.866 14.0511 470.33 13.8688V16.2545C469.784 16.503 469.146 16.6852 468.417 16.8012C467.688 16.9337 466.893 17 466.031 17ZM462.502 9.96728H468.094V9.32117C468.094 8.64192 467.895 8.11177 467.497 7.73073C467.1 7.33312 466.429 7.13432 465.484 7.13432C464.374 7.13432 463.596 7.35797 463.148 7.80528C462.718 8.25259 462.502 8.97326 462.502 9.96728Z" fill="white"/>
<path d="M486.625 17C483.941 17 481.887 16.2793 480.462 14.838C479.038 13.3801 478.325 11.4003 478.325 8.89871C478.325 6.24798 479.013 4.18538 480.388 2.71091C481.779 1.23644 483.85 0.499208 486.6 0.499208C487.561 0.499208 488.423 0.57376 489.185 0.722863C489.964 0.8554 490.693 1.04592 491.372 1.29443V4.2268C489.964 3.64695 488.456 3.35703 486.849 3.35703C485.027 3.35703 483.718 3.81262 482.923 4.72381C482.127 5.635 481.73 7.02663 481.73 8.89871C481.73 12.4109 483.453 14.167 486.899 14.167C487.677 14.167 488.448 14.1008 489.21 13.9682C489.972 13.8191 490.701 13.6038 491.397 13.3221V16.2793C490.717 16.4947 489.988 16.6687 489.21 16.8012C488.448 16.9337 487.586 17 486.625 17Z" fill="white"/>
<path d="M499.861 17C497.823 17 496.208 16.4947 495.015 15.4841C493.822 14.457 493.226 12.9079 493.226 10.8371C493.226 8.96498 493.723 7.48222 494.717 6.3888C495.728 5.2788 497.227 4.72381 499.215 4.72381C501.037 4.72381 502.429 5.20425 503.39 6.16514C504.367 7.10946 504.856 8.35199 504.856 9.89273V12.0299H496.332C496.514 12.9742 496.945 13.6203 497.624 13.9682C498.32 14.3161 499.298 14.4901 500.557 14.4901C501.186 14.4901 501.824 14.4321 502.47 14.3161C503.133 14.2002 503.696 14.0511 504.16 13.8688V16.2545C503.613 16.503 502.976 16.6852 502.247 16.8012C501.518 16.9337 500.722 17 499.861 17ZM496.332 9.96728H501.924V9.32117C501.924 8.64192 501.725 8.11177 501.327 7.73073C500.93 7.33312 500.259 7.13432 499.314 7.13432C498.204 7.13432 497.426 7.35797 496.978 7.80528C496.548 8.25259 496.332 8.97326 496.332 9.96728Z" fill="white"/>
<path d="M507.192 16.7515V4.97231H510.298L510.422 6.09059C510.903 5.72611 511.507 5.41134 512.236 5.14627C512.982 4.86463 513.761 4.72381 514.572 4.72381C516.13 4.72381 517.264 5.08828 517.977 5.81723C518.689 6.54618 519.045 7.67274 519.045 9.19691V16.7515H515.691V9.37087C515.691 8.57565 515.525 8.01237 515.194 7.68103C514.879 7.34969 514.282 7.18402 513.404 7.18402C512.891 7.18402 512.369 7.29998 511.839 7.53192C511.325 7.76386 510.894 8.05379 510.547 8.40169V16.7515H507.192Z" fill="white"/>
<path d="M526.449 17C525.09 17 524.08 16.6438 523.417 15.9314C522.771 15.219 522.448 14.2499 522.448 13.0239V7.55677H520.783V4.97231H522.448V2.43755L525.803 1.44353V4.97231H528.785L528.586 7.55677H525.803V12.8002C525.803 13.4464 525.952 13.8937 526.25 14.1422C526.548 14.3741 527.012 14.4901 527.642 14.4901C528.105 14.4901 528.586 14.4073 529.083 14.2416V16.5527C528.718 16.7018 528.321 16.8095 527.89 16.8757C527.459 16.9586 526.979 17 526.449 17Z" fill="white"/>
<path d="M530.805 16.7515V4.97231H533.911L534.06 6.18999C534.59 5.85865 535.245 5.56044 536.023 5.29537C536.818 5.01373 537.597 4.82321 538.359 4.72381V7.25857C537.912 7.32484 537.423 7.42424 536.893 7.55677C536.363 7.68931 535.858 7.83842 535.377 8.00409C534.897 8.16976 534.491 8.34371 534.159 8.52595V16.7515H530.805Z" fill="white"/>
<path d="M545.728 17C543.69 17 542.075 16.4947 540.882 15.4841C539.689 14.457 539.093 12.9079 539.093 10.8371C539.093 8.96498 539.59 7.48222 540.584 6.3888C541.594 5.2788 543.094 4.72381 545.082 4.72381C546.904 4.72381 548.296 5.20425 549.257 6.16514C550.234 7.10946 550.723 8.35199 550.723 9.89273V12.0299H542.199C542.381 12.9742 542.812 13.6203 543.491 13.9682C544.187 14.3161 545.164 14.4901 546.424 14.4901C547.053 14.4901 547.691 14.4321 548.337 14.3161C549 14.2002 549.563 14.0511 550.027 13.8688V16.2545C549.48 16.503 548.842 16.6852 548.113 16.8012C547.384 16.9337 546.589 17 545.728 17ZM542.199 9.96728H547.79V9.32117C547.79 8.64192 547.592 8.11177 547.194 7.73073C546.796 7.33312 546.125 7.13432 545.181 7.13432C544.071 7.13432 543.292 7.35797 542.845 7.80528C542.414 8.25259 542.199 8.97326 542.199 9.96728Z" fill="white"/>
</svg>
